# Blender v2.78 (sub 0) OBJ File: ''
# www.blender.org
mtllib AmmoCrateClean.mtl
o Copy_AmmoCrate.001
v -0.943858 -0.744040 -0.799055
v -0.943858 -0.744040 -0.599055
v -0.343857 -0.544040 -0.799055
v -0.143857 -0.744040 -0.799055
v -0.743858 -0.744040 -0.599055
v -0.743858 -0.744041 0.600945
v -0.943858 0.455960 -0.799055
v -0.943858 0.255959 -0.599054
v -0.743858 0.255959 -0.599054
v -0.143857 -0.744040 -0.999055
v 0.756143 -0.744041 0.600945
v -0.343857 -0.544040 -0.999055
v -0.543857 -0.144039 -0.999055
v -0.343857 -0.144039 -0.999055
v -0.343857 -0.144039 -0.901831
v -0.343857 -0.144039 -0.799055
v -0.143857 -0.544040 -0.999055
v -0.143857 -0.544040 -0.901831
v -0.143857 -0.144039 -0.999055
v 0.006144 -0.544040 -0.999055
v 0.006144 -0.544040 -0.901831
v -0.143857 -0.544040 -0.799055
v -0.143857 -0.144039 -0.799055
v 0.006144 -0.544040 -0.799055
v -0.943858 -0.744041 0.600945
v -0.943858 -0.744041 0.800946
v -0.543857 -0.144040 0.800946
v -0.143857 -0.744041 0.800946
v -0.343857 -0.544040 0.800946
v -0.743858 0.255959 0.800946
v -0.143857 -0.744041 1.000946
v -0.343857 -0.544040 1.000946
v -0.343857 -0.144040 0.800946
v -0.543857 -0.144040 1.000946
v -0.343857 -0.144040 0.903724
v -0.343857 -0.144040 1.000946
v -0.143857 -0.544040 0.800946
v -0.143857 -0.144040 0.800946
v 0.006144 -0.544040 0.800946
v 0.156142 -0.144040 0.800946
v -0.143857 -0.544040 0.903724
v -0.143857 -0.544040 1.000946
v -0.143857 -0.144040 1.000946
v 0.006144 -0.544040 0.903724
v 0.006144 -0.544040 1.000946
v -0.743858 0.255959 -0.799055
v -0.743858 0.255959 -0.999055
v -0.743858 0.455960 -0.999055
v -0.543857 0.455960 -0.999055
v -0.743858 0.455960 -0.799055
v -0.543857 0.455960 -0.799055
v -0.943858 0.455959 0.800946
v -0.943858 0.255959 0.600946
v -0.743858 0.655960 -0.799055
v -0.543857 0.655960 -0.799055
v -0.343857 0.255959 -0.999055
v -0.543857 -0.144039 -0.799055
v -0.343857 0.255959 -0.799055
v -0.543857 0.255959 -0.999055
v -0.543857 0.255959 -0.901831
v -0.543857 0.255959 -0.799055
v -0.028579 0.455960 -0.025095
v 0.156142 -0.144039 -0.799055
v -0.743858 0.255959 0.600946
v -0.743858 0.455959 0.800946
v -0.743858 0.255959 1.000946
v -0.743858 0.455959 1.000946
v -0.543857 0.455959 1.000946
v -0.743858 0.655960 0.800946
v -0.543857 0.455959 0.800946
v -0.343857 0.255959 0.800946
v -0.343857 0.255959 1.000946
v -0.543857 0.255959 0.800946
v -0.543857 0.255959 0.903724
v -0.543857 0.255959 1.000946
v -0.543857 0.655960 0.800946
v 0.156142 -0.744040 -0.999055
v 0.156142 -0.744040 -0.799055
v 0.756143 -0.744040 -0.599055
v 0.356142 -0.544040 -0.799055
v 0.156142 -0.544040 -0.999055
v 0.156142 -0.544040 -0.901831
v 0.156142 -0.144039 -0.999055
v 0.156142 -0.544040 -0.799055
v 0.356142 -0.544040 -0.999055
v 0.356142 -0.144039 -0.999055
v 0.356142 -0.144039 -0.901831
v 0.556142 -0.144039 -0.999055
v 0.356142 -0.144039 -0.799055
v 0.556142 -0.144039 -0.799055
v 0.956143 -0.744040 -0.799055
v 0.956143 -0.744040 -0.599055
v 0.756143 -0.337008 0.096433
v 0.756143 0.255959 -0.799055
v 0.756143 0.255959 -0.599054
v 0.956143 0.455960 -0.799055
v 0.956143 0.255959 -0.599054
v 0.156142 -0.744041 1.000946
v 0.156142 -0.744041 0.800946
v 0.356142 -0.544040 0.800946
v 0.156142 -0.544040 0.800946
v 0.156142 -0.544040 0.903724
v 0.156142 -0.544040 1.000946
v 0.156142 -0.144040 1.000946
v 0.356142 -0.544040 1.000946
v 0.356142 -0.144040 0.800946
v 0.556142 -0.144040 0.800946
v 0.356142 -0.144040 0.903724
v 0.356142 -0.144040 1.000946
v 0.556142 -0.144040 1.000946
v 0.956143 -0.744041 0.800946
v 0.956143 -0.744041 0.600945
v 0.756143 0.255959 0.600946
v 0.356142 0.255959 -0.999055
v 0.356142 0.255959 -0.799055
v 0.556142 0.255959 -0.999055
v 0.556142 0.255959 -0.901831
v 0.556142 0.455960 -0.999055
v 0.556142 0.255959 -0.799055
v 0.556142 0.455960 -0.799055
v 0.556142 0.655960 -0.799055
v 0.556142 0.655960 0.800946
v 0.756143 0.255959 -0.999055
v 0.756143 0.455960 -0.999055
v 0.756143 0.455960 -0.799055
v 0.756143 0.455959 0.800946
v 0.956143 0.455959 0.800946
v 0.756143 0.655960 -0.799055
v 0.756143 0.655960 0.800946
v 0.556142 0.455959 0.800946
v 0.356142 0.255959 0.800946
v 0.356142 0.255959 1.000946
v 0.556142 0.255959 0.800946
v 0.556142 0.255959 0.903724
v 0.556142 0.255959 1.000946
v 0.556142 0.455959 1.000946
v 0.956143 0.255959 0.600946
v 0.756143 0.255959 0.800946
v 0.756143 0.255959 1.000946
v 0.756143 0.455959 1.000946
vt 0.7380 0.6718
vt 0.7038 0.6375
vt 0.8408 0.6375
vt 0.7723 0.7406
vt 0.7380 0.7406
vt 0.6592 0.5584
vt 0.7277 0.5326
vt 0.7277 0.5584
vt 0.3065 0.9570
vt 0.2723 0.9570
vt 0.2723 0.9403
vt 0.5565 0.8540
vt 0.5908 0.8540
vt 0.5565 0.9227
vt 0.7038 0.6718
vt 0.3750 0.3247
vt 0.3408 0.2904
vt 0.5462 0.2904
vt 0.5462 0.3247
vt 0.1866 0.8162
vt 0.2894 0.8505
vt 0.1524 0.8505
vt 0.1935 0.0395
vt 0.2962 0.0739
vt 0.2962 0.2801
vt 0.0394 0.0739
vt 0.1866 0.7474
vt 0.2209 0.7474
vt 0.8716 0.5515
vt 0.9058 0.6203
vt 0.8716 0.6203
vt 0.3408 0.9570
vt 0.3574 0.9914
vt 0.3408 0.9914
vt 0.1524 0.8162
vt 0.8408 0.8436
vt 0.8065 0.8436
vt 0.8065 0.8093
vt 0.3750 0.5309
vt 0.3408 0.5653
vt 0.8510 0.8436
vt 0.8853 0.6375
vt 0.8853 0.8436
vt 0.5908 0.9674
vt 0.5565 0.9674
vt 0.5565 0.9506
vt 0.5565 0.6271
vt 0.5908 0.5928
vt 0.5908 0.6271
vt 0.6592 0.5069
vt 0.1284 0.9296
vt 0.0942 0.9296
vt 0.1284 0.8608
vt 0.9161 0.3351
vt 0.9503 0.3351
vt 0.9503 0.3694
vt 0.2551 0.6443
vt 0.2894 0.6443
vt 0.2551 0.6787
vt 0.3271 0.3591
vt 0.2928 0.6340
vt 0.2928 0.3591
vt 0.1053 0.4921
vt 0.1935 0.3591
vt 0.1935 0.6340
vt 0.3750 0.6100
vt 0.3408 0.5756
vt 0.3750 0.5756
vt 0.2175 0.9399
vt 0.1832 0.9566
vt 0.1832 0.9399
vt 0.6010 0.9330
vt 0.6353 0.9674
vt 0.6010 0.9674
vt 0.2209 0.6787
vt 0.7380 0.0052
vt 0.7723 0.0052
vt 0.7380 0.2801
vt 0.8271 0.0052
vt 0.8613 0.2801
vt 0.8271 0.2801
vt 0.1421 0.3144
vt 0.0394 0.2801
vt 0.1935 0.3144
vt 0.4919 0.8436
vt 0.5086 0.7749
vt 0.5086 0.8436
vt 0.4029 0.8436
vt 0.4195 0.7749
vt 0.4195 0.8436
vt 0.9161 0.0395
vt 0.9503 0.0228
vt 0.9503 0.0395
vt 0.0394 0.7474
vt 0.0736 0.7474
vt 0.0394 0.8162
vt 0.9401 0.6718
vt 0.9743 0.6551
vt 0.9743 0.6718
vt 0.6010 0.8540
vt 0.6353 0.9227
vt 0.6010 0.9227
vt 0.0051 0.3144
vt 0.0051 0.2801
vt 0.9303 0.9502
vt 0.9469 0.9158
vt 0.9469 0.9502
vt 0.0051 0.8162
vt 0.0051 0.8505
vt 0.6580 0.3083
vt 0.7277 0.4278
vt 0.5565 0.4278
vt 0.4435 0.6959
vt 0.5120 0.6701
vt 0.5120 0.6959
vt 0.4298 0.9227
vt 0.4298 0.8540
vt 0.4464 0.9227
vt 0.6250 0.7405
vt 0.6592 0.7405
vt 0.6592 0.8093
vt 0.8271 0.5756
vt 0.8271 0.5069
vt 0.8437 0.5756
vt 0.9161 0.4691
vt 0.9503 0.4691
vt 0.9503 0.4858
vt 0.9572 0.8540
vt 0.9914 0.8540
vt 0.9914 0.8707
vt 0.4743 0.8540
vt 0.5086 0.8540
vt 0.4743 0.9227
vt 0.0051 0.0395
vt 0.1421 0.0395
vt 0.6935 0.8436
vt 0.5565 0.8436
vt 0.0051 0.0739
vt 0.1387 0.9742
vt 0.1387 0.9399
vt 0.1553 0.9742
vt 0.6935 0.8093
vt 0.5908 0.4725
vt 0.9337 0.2216
vt 0.9503 0.1873
vt 0.9503 0.2216
vt 0.0051 0.3591
vt 0.7522 0.9227
vt 0.7688 0.8540
vt 0.7688 0.9227
vt 0.1079 0.6443
vt 0.1421 0.6443
vt 0.1079 0.6787
vt 0.5462 0.2801
vt 0.5120 0.0395
vt 0.5462 0.0052
vt 0.8271 0.4966
vt 0.8613 0.2904
vt 0.8613 0.4966
vt 0.5565 0.2216
vt 0.8168 0.5653
vt 0.7825 0.5653
vt 0.7825 0.2904
vt 0.0051 0.9742
vt 0.0394 0.9575
vt 0.0394 0.9742
vt 0.9161 0.5137
vt 0.9503 0.5481
vt 0.9161 0.5481
vt 0.0736 0.6787
vt 0.2825 0.6340
vt 0.2483 0.6340
vt 0.2825 0.3591
vt 0.3750 0.7302
vt 0.0051 0.6340
vt 0.9401 0.7612
vt 0.9401 0.7268
vt 0.9567 0.7612
vt 0.1387 0.9296
vt 0.1387 0.8608
vt 0.1553 0.9296
vt 0.0497 0.8608
vt 0.0839 0.8608
vt 0.0497 0.9296
vt 0.5565 0.6375
vt 0.5908 0.6375
vt 0.5908 0.6718
vt 0.2620 0.9742
vt 0.2277 0.9742
vt 0.2277 0.9575
vt 0.9503 0.5584
vt 0.9503 0.5928
vt 0.9161 0.5928
vt 0.2038 0.3591
vt 0.2380 0.3591
vt 0.2038 0.6340
vt 0.8412 0.9227
vt 0.8579 0.8540
vt 0.8579 0.9227
vt 0.0394 0.9296
vt 0.0051 0.8608
vt 0.0394 0.8608
vt 0.7791 0.8540
vt 0.8134 0.9227
vt 0.7791 0.9227
vt 0.1832 0.9296
vt 0.1832 0.8608
vt 0.1999 0.9296
vt 0.3305 0.3144
vt 0.3305 0.2801
vt 0.4640 0.8436
vt 0.4474 0.7749
vt 0.4640 0.7749
vt 0.9161 0.4141
vt 0.9161 0.3974
vt 0.9503 0.4141
vt 0.8716 0.4725
vt 0.8882 0.5412
vt 0.8716 0.5412
vt 0.0942 0.9742
vt 0.0942 0.9575
vt 0.1284 0.9742
vt 0.5908 0.9227
vt 0.5086 0.9674
vt 0.4919 0.9330
vt 0.5086 0.9330
vt 0.3305 0.0395
vt 0.3305 0.0739
vt 0.3853 0.9227
vt 0.3853 0.8540
vt 0.4019 0.8540
vt 0.9127 0.9772
vt 0.9127 0.9605
vt 0.9469 0.9605
vt 0.8716 0.2560
vt 0.8716 0.1873
vt 0.8882 0.1873
vt 0.9572 0.9153
vt 0.9572 0.8986
vt 0.9914 0.8986
vt 0.9058 0.5515
vt 0.6455 0.9674
vt 0.6455 0.9330
vt 0.6622 0.9330
vt 0.5565 0.0052
vt 0.7277 0.0052
vt 0.7277 0.2113
vt 0.9161 0.3694
vt 0.9503 0.0945
vt 0.9161 0.1112
vt 0.9161 0.0945
vt 0.6798 0.9227
vt 0.6631 0.8540
vt 0.6798 0.8540
vt 0.4298 0.9674
vt 0.4298 0.9506
vt 0.4640 0.9674
vt 0.7723 0.8093
vt 0.7380 0.2904
vt 0.7723 0.2904
vt 0.7723 0.5653
vt 0.8510 0.6375
vt 0.6353 0.9330
vt 0.3271 0.6340
vt 0.9743 0.6821
vt 0.9743 0.7165
vt 0.9577 0.7165
vt 0.4435 0.6443
vt 0.8682 0.9227
vt 0.8682 0.8540
vt 0.8848 0.8540
vt 0.8134 0.8540
vt 0.0497 0.9566
vt 0.0497 0.9399
vt 0.0839 0.9399
vt 0.7723 0.2801
vt 0.8613 0.0052
vt 0.1421 0.8505
vt 0.7243 0.9506
vt 0.7243 0.9674
vt 0.6901 0.9674
vt 0.6353 0.8540
vt 0.8168 0.6014
vt 0.8168 0.6271
vt 0.7825 0.6271
vt 0.5086 0.9227
vt 0.9606 0.0052
vt 0.9773 0.0052
vt 0.9606 0.0395
vt 0.7277 0.2216
vt 0.3065 0.8608
vt 0.3065 0.8866
vt 0.2723 0.8608
vt 0.9503 0.4421
vt 0.9503 0.4588
vt 0.9161 0.4588
vt 0.0051 0.9296
vt 0.9503 0.5137
vt 0.2483 0.3591
vt 0.9503 0.2904
vt 0.9503 0.3071
vt 0.9161 0.2904
vt 0.5120 0.2457
vt 0.8271 0.2904
vt 0.9161 0.5584
vt 0.8168 0.2904
vt 0.6250 0.6718
vt 0.2380 0.6340
vt 0.7243 0.9227
vt 0.7077 0.8540
vt 0.7243 0.8540
vt 0.0942 0.8608
vt 0.6592 0.5928
vt 0.6592 0.4725
vt 0.2277 0.9296
vt 0.2277 0.8608
vt 0.2444 0.8608
vt 0.4435 0.6100
vt 0.0839 0.9296
vt 0.4435 0.7302
vt 0.9058 0.0052
vt 0.9058 0.1770
vt 0.8716 0.1770
vt 0.8716 0.0052
vt 0.7380 0.6014
vt 0.7380 0.5756
vt 0.7547 0.5756
vt 0.7547 0.6014
vt 0.4298 0.8436
vt 0.4298 0.7749
vt 0.9161 0.3797
vt 0.9503 0.3797
vt 0.9058 0.4725
vt 0.9058 0.5412
vt 0.7723 0.5756
vt 0.7723 0.6014
vt 0.0942 0.9399
vt 0.1284 0.9399
vt 0.3065 0.9227
vt 0.2723 0.9227
vt 0.7825 0.5756
vt 0.8168 0.5756
vt 0.4743 0.9674
vt 0.4743 0.9330
vt 0.5462 0.5653
vt 0.5462 0.5309
vt 0.9058 0.2904
vt 0.9058 0.4622
vt 0.8716 0.4622
vt 0.8716 0.2904
vt 0.5120 0.6443
vt 0.9303 0.8797
vt 0.9303 0.8540
vt 0.9469 0.8540
vt 0.9469 0.8797
vt 0.4195 0.8540
vt 0.4195 0.9227
vt 0.9469 0.9948
vt 0.9127 0.9948
vt 0.9058 0.1873
vt 0.9058 0.2560
vt 0.9127 0.8797
vt 0.9127 0.8540
vt 0.9914 0.9330
vt 0.9572 0.9330
vt 0.3750 0.9570
vt 0.3750 0.9914
vt 0.3065 0.9124
vt 0.2723 0.9124
vt 0.6798 0.9330
vt 0.6798 0.9674
vt 0.3853 0.9330
vt 0.4195 0.9330
vt 0.4195 0.9674
vt 0.3853 0.9674
vt 0.8613 0.5859
vt 0.8613 0.6203
vt 0.8271 0.6203
vt 0.8271 0.5859
vt 0.9503 0.1289
vt 0.9161 0.1289
vt 0.7380 0.5653
vt 0.5908 0.9330
vt 0.5565 0.9330
vt 0.6455 0.9227
vt 0.6455 0.8540
vt 0.4298 0.9330
vt 0.4640 0.9330
vt 0.9743 0.7715
vt 0.9743 0.8058
vt 0.9401 0.8058
vt 0.9401 0.7715
vt 0.7791 0.9330
vt 0.8134 0.9330
vt 0.8134 0.9674
vt 0.7791 0.9674
vt 0.8579 0.9330
vt 0.8579 0.9674
vt 0.8236 0.9674
vt 0.8236 0.9330
vt 0.9401 0.7165
vt 0.9401 0.6821
vt 0.2175 0.9742
vt 0.1832 0.9742
vt 0.9024 0.8540
vt 0.9024 0.9227
vt 0.0839 0.9742
vt 0.0497 0.9742
vt 0.9949 0.0498
vt 0.9949 0.0842
vt 0.9606 0.0842
vt 0.9606 0.0498
vt 0.7380 0.6271
vt 0.7547 0.6271
vt 0.7277 0.5069
vt 0.4743 0.7749
vt 0.4743 0.8436
vt 0.7723 0.6271
vt 0.3853 0.7749
vt 0.3853 0.8436
vt 0.9161 0.0052
vt 0.9503 0.0052
vt 0.9401 0.6375
vt 0.9743 0.6375
vt 0.6901 0.9330
vt 0.7243 0.9330
vt 0.3408 0.0395
vt 0.3408 0.0052
vt 0.9298 0.6375
vt 0.9298 0.8093
vt 0.8955 0.8093
vt 0.8955 0.6375
vt 0.9127 0.9158
vt 0.9127 0.9502
vt 0.9303 0.9055
vt 0.9469 0.9055
vt 0.4640 0.8540
vt 0.4640 0.9227
vt 0.9127 0.9055
vt 0.8613 0.5069
vt 0.8613 0.5756
vt 0.9161 0.5034
vt 0.9503 0.5034
vt 0.9572 0.8883
vt 0.9914 0.8883
vt 0.9949 0.0052
vt 0.9949 0.0395
vt 0.3408 0.2801
vt 0.3408 0.2457
vt 0.3750 0.7749
vt 0.3750 0.9467
vt 0.3408 0.9467
vt 0.3408 0.7749
vt 0.1729 0.9399
vt 0.1729 0.9742
vt 0.5565 0.4381
vt 0.5908 0.4381
vt 0.9161 0.1873
vt 0.9161 0.2216
vt 0.9161 0.4244
vt 0.9503 0.4244
vt 0.7346 0.8540
vt 0.7346 0.9227
vt 0.9161 0.0842
vt 0.9161 0.0498
vt 0.9503 0.0498
vt 0.9503 0.0842
vt 0.9161 0.2320
vt 0.9503 0.2320
vt 0.9503 0.2663
vt 0.9161 0.2663
vt 0.8168 0.2801
vt 0.7825 0.2801
vt 0.7825 0.0052
vt 0.8168 0.0052
vt 0.0051 0.9399
vt 0.0394 0.9399
vt 0.7688 0.9330
vt 0.7688 0.9674
vt 0.7346 0.9674
vt 0.7346 0.9330
vt 0.3408 0.7646
vt 0.3750 0.7646
vt 0.9743 0.7268
vt 0.9743 0.7612
vt 0.9503 0.3247
vt 0.9161 0.3247
vt 0.1729 0.8608
vt 0.1729 0.9296
vt 0.9503 0.1735
vt 0.9161 0.1735
vt 0.9161 0.1392
vt 0.9503 0.1392
vt 0.9024 0.9674
vt 0.8682 0.9674
vt 0.8682 0.9330
vt 0.9024 0.9330
vt 0.5565 0.2113
vt 0.2620 0.9399
vt 0.2277 0.9399
vt 0.9914 0.9433
vt 0.9914 0.9777
vt 0.9572 0.9777
vt 0.9572 0.9433
vt 0.1935 0.3488
vt 0.1421 0.3488
vt 0.1421 0.0052
vt 0.1935 0.0052
vt 0.6901 0.9227
vt 0.6901 0.8540
vt 0.8236 0.8540
vt 0.8236 0.9227
vt 0.2620 0.8608
vt 0.2620 0.9296
vt 0.2175 0.8608
vt 0.2175 0.9296
vn 0.0000 0.0000 -1.0000
vn 0.0000 1.0000 0.0000
vn -1.0000 0.0000 0.0000
vn 0.0000 -0.0000 1.0000
vn 0.0000 -1.0000 -0.0000
vn 1.0000 0.0000 0.0000
usemtl palette
s off
f 3/1/1 4/2/1 1/3/1
f 57/4/1 16/5/1 3/1/1
f 23/6/1 24/7/1 22/8/1
f 19/9/2 14/10/2 15/11/2
f 14/12/1 19/13/1 12/14/1
f 3/1/1 22/15/1 4/2/1
f 8/16/3 7/17/3 1/18/3 2/19/3
f 29/20/4 26/21/4 28/22/4
f 28/23/5 6/24/5 5/25/5
f 11/26/5 28/23/5 5/25/5
f 33/27/4 27/28/4 29/20/4
f 43/29/4 32/30/4 42/31/4
f 43/32/2 35/33/2 36/34/2
f 37/35/4 29/20/4 28/22/4
f 7/36/1 50/37/1 46/38/1
f 53/39/3 52/40/3 8/16/3
f 9/41/5 53/42/5 8/43/5
f 56/44/2 59/45/2 60/46/2
f 51/47/1 58/48/1 61/49/1
f 58/48/1 63/50/1 23/6/1
f 59/51/1 56/52/1 13/53/1
f 49/54/1 59/55/1 47/56/1
f 65/57/4 52/58/4 30/59/4
f 76/60/2 54/61/2 69/62/2
f 62/63/2 51/64/2 70/65/2
f 71/66/4 70/67/4 73/68/4
f 72/69/2 74/70/2 75/71/2
f 68/72/4 66/73/4 75/74/4
f 73/75/4 30/59/4 27/28/4
f 65/76/3 69/77/3 50/78/3
f 76/79/6 51/80/6 55/81/6
f 78/82/5 79/83/5 4/84/5
f 79/83/5 5/25/5 4/84/5
f 79/83/5 11/26/5 5/25/5
f 82/85/3 83/86/3 81/87/3
f 87/88/6 85/89/6 86/90/6
f 88/91/5 87/92/5 86/93/5
f 89/94/1 90/95/1 80/96/1
f 85/97/5 82/98/5 81/99/5
f 83/100/1 85/101/1 81/102/1
f 91/103/5 79/83/5 78/82/5
f 91/103/5 92/104/5 79/83/5
f 82/105/6 77/106/6 81/107/6
f 84/108/1 80/96/1 78/109/1
f 93/110/6 79/111/6 95/112/6
f 40/113/4 39/114/4 101/115/4
f 103/116/3 104/117/3 102/118/3
f 107/119/4 106/120/4 100/121/4
f 109/122/6 105/123/6 108/124/6
f 110/125/5 109/126/5 108/127/5
f 105/128/5 103/129/5 102/130/5
f 109/131/4 104/132/4 105/133/4
f 11/26/5 111/134/5 99/135/5
f 100/121/4 99/136/4 111/137/4
f 112/138/5 111/134/5 11/26/5
f 103/139/6 98/140/6 102/141/6
f 100/121/4 101/142/4 99/136/4
f 51/47/1 115/143/1 63/50/1
f 117/144/3 118/145/3 116/146/3
f 120/147/2 51/64/2 62/63/2
f 117/148/6 88/149/6 116/150/6
f 125/151/1 96/152/1 94/153/1
f 127/154/6 97/155/6 96/156/6
f 97/157/5 113/158/5 95/159/5
f 113/160/6 93/110/6 95/112/6
f 128/161/2 121/162/2 122/163/2
f 123/164/5 117/165/5 116/166/5
f 118/167/1 123/168/1 116/169/1
f 119/170/1 94/153/1 90/95/1
f 129/171/6 126/172/6 128/173/6
f 70/67/4 40/113/4 131/174/4
f 130/175/2 62/63/2 70/65/2
f 135/176/3 136/177/3 134/178/3
f 135/179/6 110/180/6 134/181/6
f 135/182/4 132/183/4 110/184/4
f 127/185/4 126/186/4 138/187/4
f 139/188/5 135/189/5 134/190/5
f 136/191/4 135/192/4 139/193/4
f 130/194/3 122/195/3 120/196/3
f 87/197/3 114/198/3 86/199/3
f 114/200/1 88/201/1 86/202/1
f 72/203/4 34/204/4 36/205/4
f 109/206/3 132/207/3 108/208/3
f 1/209/5 4/84/5 5/25/5
f 1/209/5 5/25/5 2/210/5
f 12/211/3 15/212/3 14/213/3
f 14/214/5 15/215/5 13/216/5
f 19/217/6 18/218/6 17/219/6
f 17/220/5 18/221/5 12/222/5
f 12/14/1 19/13/1 17/223/1
f 10/224/3 18/225/3 17/226/3
f 6/24/5 28/23/5 26/227/5
f 29/20/4 27/28/4 26/21/4
f 25/228/5 6/24/5 26/227/5
f 11/26/5 99/135/5 28/23/5
f 32/229/3 36/230/3 35/231/3
f 35/232/5 36/233/5 34/234/5
f 43/235/6 42/236/6 41/237/6
f 41/238/5 42/239/5 32/240/5
f 43/29/4 36/241/4 32/30/4
f 31/242/3 42/243/3 41/244/3
f 6/245/3 64/246/3 9/247/3
f 48/248/1 49/54/1 47/56/1
f 7/36/1 46/38/1 57/4/1
f 8/16/3 52/40/3 7/17/3
f 58/48/1 51/47/1 63/50/1
f 49/249/6 60/250/6 59/251/6
f 13/252/3 60/253/3 59/254/3
f 59/255/5 60/256/5 47/257/5
f 46/38/1 61/258/1 57/4/1
f 52/259/2 65/260/2 50/261/2
f 9/41/5 64/262/5 53/42/5
f 68/72/4 67/263/4 66/73/4
f 76/60/2 55/264/2 54/61/2
f 68/265/6 75/266/6 74/267/6
f 40/113/4 71/66/4 38/268/4
f 34/269/3 75/270/3 74/271/3
f 72/203/4 75/272/4 34/204/4
f 74/273/5 75/274/5 66/275/5
f 50/78/3 69/77/3 54/276/3
f 76/79/6 70/277/6 51/80/6
f 80/96/1 91/278/1 78/109/1
f 87/279/2 86/280/2 83/281/2
f 83/100/1 86/282/1 85/101/1
f 80/96/1 90/95/1 91/278/1
f 90/95/1 94/153/1 91/278/1
f 94/153/1 96/152/1 91/278/1
f 20/283/1 81/284/1 77/285/1
f 105/133/4 104/132/4 103/286/4
f 109/287/2 108/288/2 104/289/2
f 79/111/6 93/110/6 11/290/6
f 103/291/4 45/292/4 98/293/4
f 113/160/6 11/290/6 93/110/6
f 117/294/2 116/295/2 114/296/2
f 114/200/1 116/297/1 88/201/1
f 118/167/1 124/298/1 123/168/1
f 128/173/6 126/172/6 125/299/6
f 130/175/2 120/147/2 62/63/2
f 135/300/2 134/301/2 132/302/2
f 127/154/6 137/303/6 97/155/6
f 97/157/5 137/304/5 113/158/5
f 140/305/4 136/191/4 139/193/4
f 127/185/4 138/187/4 107/119/4
f 122/163/2 129/306/2 128/161/2
f 138/187/4 133/307/4 107/119/4
f 120/196/3 122/195/3 121/308/3
f 56/309/6 15/310/6 14/311/6
f 13/53/1 56/52/1 14/312/1
f 16/313/1 58/48/1 23/6/1
f 63/50/1 115/143/1 89/314/1
f 72/315/6 36/316/6 35/317/6
f 38/268/4 71/66/4 33/318/4
f 110/184/4 132/183/4 109/319/4
f 106/320/4 131/174/4 40/113/4
f 57/4/1 3/1/1 1/3/1 7/36/1
f 8/321/4 2/322/4 5/323/4 9/324/4
f 20/325/2 17/326/2 18/327/2 21/328/2
f 3/329/3 16/330/3 15/212/3 12/211/3
f 15/215/5 16/331/5 57/332/5 13/216/5
f 23/333/6 22/334/6 18/218/6 19/217/6
f 21/328/2 18/327/2 22/335/2 24/336/2
f 18/221/5 22/337/5 3/338/5 12/222/5
f 23/339/2 19/9/2 15/11/2 16/340/2
f 20/283/1 77/285/1 10/341/1 17/342/1
f 4/343/3 22/344/3 18/225/3 10/224/3
f 26/345/3 52/40/3 53/39/3 25/346/3
f 64/347/1 6/348/1 25/349/1 53/350/1
f 30/59/4 52/58/4 26/21/4 27/28/4
f 38/268/4 37/351/4 39/114/4 40/113/4
f 44/352/2 41/353/2 42/354/2 45/355/2
f 35/231/3 33/356/3 29/357/3 32/229/3
f 35/232/5 34/234/5 27/358/5 33/359/5
f 41/237/6 37/360/6 38/361/6 43/235/6
f 39/362/2 37/363/2 41/353/2 44/352/2
f 41/238/5 32/240/5 29/364/5 37/365/5
f 38/366/2 33/367/2 35/33/2 43/32/2
f 45/292/4 42/368/4 31/369/4 98/293/4
f 41/244/3 37/370/3 28/371/3 31/242/3
f 50/372/3 48/373/3 47/374/3 46/375/3
f 49/376/2 48/377/2 50/378/2 51/379/2
f 51/380/6 61/381/6 60/250/6 49/249/6
f 7/382/2 52/259/2 50/261/2
f 58/383/2 56/44/2 60/46/2 61/384/2
f 57/385/3 61/386/3 60/253/3 13/252/3
f 60/256/5 61/387/5 46/388/5 47/257/5
f 55/389/1 51/390/1 50/391/1 54/392/1
f 67/393/3 65/394/3 30/395/3 66/396/3
f 70/397/2 65/398/2 67/399/2 68/400/2
f 74/267/6 73/401/6 70/402/6 68/265/6
f 71/66/4 40/113/4 70/67/4
f 71/403/2 73/404/2 74/70/2 72/69/2
f 74/271/3 73/405/3 27/406/3 34/269/3
f 74/273/5 66/275/5 30/407/5 73/408/5
f 69/409/4 65/410/4 70/411/4 76/412/4
f 81/413/2 20/325/2 21/328/2 82/414/2
f 63/50/1 84/415/1 24/7/1 23/6/1
f 63/416/3 83/86/3 82/85/3 84/417/3
f 82/414/2 21/328/2 24/336/2 84/418/2
f 80/419/6 85/89/6 87/88/6 89/420/6
f 90/421/5 89/422/5 87/92/5 88/91/5
f 80/423/5 84/424/5 82/98/5 85/97/5
f 87/279/2 83/281/2 63/425/2 89/426/2
f 97/155/6 92/427/6 91/428/6 96/156/6
f 95/429/4 79/430/4 92/431/4 97/432/4
f 78/433/6 77/106/6 82/105/6 84/434/6
f 102/435/2 44/352/2 45/355/2 103/436/2
f 102/118/3 104/117/3 40/437/3 101/438/3
f 101/439/2 39/362/2 44/352/2 102/435/2
f 108/124/6 105/123/6 100/440/6 106/441/6
f 107/442/5 110/125/5 108/127/5 106/443/5
f 100/444/5 105/128/5 102/130/5 101/445/5
f 108/288/2 106/446/2 40/447/2 104/289/2
f 111/448/6 112/449/6 137/303/6 127/154/6
f 137/450/1 112/451/1 11/452/1 113/453/1
f 107/119/4 100/121/4 111/137/4 127/185/4
f 102/141/6 98/140/6 99/454/6 101/455/6
f 115/143/1 51/47/1 120/456/1 119/457/1
f 120/458/3 118/145/3 117/144/3 119/459/3
f 117/294/2 114/296/2 115/460/2 119/461/2
f 90/462/6 88/149/6 117/148/6 119/463/6
f 94/464/6 123/465/6 124/466/6 125/467/6
f 124/468/2 118/469/2 120/470/2 125/471/2
f 96/472/2 125/473/2 126/474/2 127/475/2
f 94/476/5 119/477/5 117/165/5 123/164/5
f 128/478/1 125/479/1 120/480/1 121/481/1
f 130/482/4 70/67/4 131/174/4 133/483/4
f 134/178/3 136/177/3 130/484/3 133/485/3
f 134/301/2 133/486/2 131/487/2 132/302/2
f 134/181/6 110/180/6 107/488/6 133/489/6
f 126/490/6 140/491/6 139/492/6 138/493/6
f 126/494/2 130/495/2 136/496/2 140/497/2
f 9/247/3 5/498/3 6/245/3
f 138/499/5 139/188/5 134/190/5 133/500/5
f 122/501/4 130/502/4 126/503/4 129/504/4
f 78/82/5 4/84/5 10/505/5 77/506/5
f 98/507/5 31/508/5 28/23/5 99/135/5
f 58/509/6 16/510/6 15/310/6 56/309/6
f 115/511/3 114/198/3 87/197/3 89/512/3
f 35/317/6 33/513/6 71/514/6 72/315/6
f 108/208/3 132/207/3 131/515/3 106/516/3
