# Blender v2.78 (sub 0) OBJ File: ''
# www.blender.org
mtllib BombCleanedSansSpinner.mtl
o Copy_bomb
v -0.349998 -0.854614 0.149318
v -0.349998 0.045387 -0.250683
v -0.349998 -0.854614 -0.150683
v 0.250002 0.045387 -0.350682
v 0.150002 -0.854614 -0.350682
v -0.149999 -0.854614 -0.350682
v -0.149999 -0.954614 -0.250684
v -0.249999 -0.954614 -0.150683
v -0.249999 -0.954614 -0.250684
v -0.249999 0.045387 -0.250683
v -0.249999 0.045387 -0.350682
v -0.249999 -0.854614 -0.350682
v -0.249999 -0.854614 -0.150683
v -0.349998 -0.854614 -0.250684
v -0.249999 -0.854614 -0.250684
v -0.249999 -0.954614 0.149318
v -0.149999 -0.954614 0.249318
v -0.249999 -0.954614 0.249318
v 0.250002 0.045387 0.349317
v -0.249999 -0.854614 0.349316
v -0.149999 -0.854614 0.349316
v -0.349998 -0.854614 0.249318
v -0.249999 0.045387 0.349317
v -0.249999 0.045387 0.249318
v -0.249999 -0.854614 0.249318
v -0.349998 0.045387 0.249318
v -0.249999 0.245386 -0.050683
v -0.049999 0.145387 -0.050683
v -0.249999 0.145387 -0.050683
v -0.049999 0.245386 -0.250683
v -0.049999 0.145387 -0.250683
v -0.249999 0.145387 -0.250683
v -0.249999 0.545387 -0.050683
v -0.249999 0.279068 -0.250683
v -0.249999 0.338096 -0.250683
v -0.049999 0.645387 -0.050683
v -0.249999 0.645387 -0.350682
v 0.250002 0.245386 -0.350682
v -0.249999 0.245386 -0.350682
v -0.044268 0.645387 -0.250683
v -0.249999 0.645387 -0.250683
v -0.249999 0.397124 -0.250683
v -0.249999 0.456152 -0.250683
v -0.349998 0.645387 0.249318
v -0.349998 0.645387 -0.250683
v -0.349998 0.245386 -0.250683
v -0.249999 0.515179 -0.250683
v -0.249999 0.574207 -0.250683
v -0.249999 0.245386 0.049318
v -0.349998 0.245386 0.249318
v -0.249999 0.245386 0.349317
v -0.249999 0.338096 0.249318
v -0.249999 0.279068 0.249318
v -0.249999 0.245386 0.249318
v -0.249999 0.145387 0.049318
v -0.049999 0.145387 0.049318
v -0.049999 0.245386 0.249318
v -0.049999 0.545387 0.049318
v -0.049999 0.145387 0.249318
v -0.049999 0.545387 0.249318
v -0.249999 0.456151 0.249318
v -0.249999 0.397124 0.249318
v -0.249999 0.645387 0.349317
v -0.249999 0.574207 0.249318
v -0.249999 0.515179 0.249318
v -0.249999 0.645387 -0.044953
v -0.249999 0.645387 0.249318
v 0.250002 0.245386 0.349317
v -0.249999 0.545387 0.049318
v 0.250002 -0.854614 -0.350682
v 0.350001 -0.854614 -0.150683
v 0.350001 -0.854614 -0.250684
v 0.350001 0.045387 -0.250683
v 0.250002 0.045387 -0.250683
v 0.350001 0.045387 0.249318
v 0.250002 -0.854614 0.249318
v 0.350001 -0.854614 0.249318
v 0.350001 -0.854614 0.149318
v 0.050002 0.545387 -0.050683
v 0.250002 0.245386 -0.050683
v 0.050002 0.145387 -0.050683
v 0.250002 0.145387 -0.050683
v 0.250002 0.145387 -0.250683
v 0.250002 0.338096 -0.250683
v 0.350001 0.245386 -0.250683
v 0.250002 0.279068 -0.250683
v 0.250002 0.245386 -0.250683
v 0.050002 0.545387 -0.250683
v 0.250002 0.545387 -0.050683
v 0.250002 0.456152 -0.250683
v 0.250002 0.397124 -0.250683
v 0.250002 0.574207 -0.250683
v 0.350001 0.645387 -0.250683
v 0.250002 0.515179 -0.250683
v 0.250002 0.645387 -0.250683
v 0.250002 0.645387 -0.350682
v 0.350001 0.645387 0.249318
v 0.250002 0.645387 -0.000682
v 0.050002 0.245386 0.249318
v 0.050002 0.145387 0.049318
v 0.050002 0.545387 0.049318
v 0.250002 0.245386 0.049318
v 0.250002 0.145387 0.049318
v 0.250002 0.145387 0.249318
v 0.250002 0.045387 0.249318
v 0.250002 0.279068 0.249318
v 0.250002 0.338096 0.249318
v 0.250002 0.245386 0.249318
v 0.050002 0.145387 0.249318
v 0.350001 0.245386 0.249318
v 0.050002 0.545387 0.249318
v 0.050002 0.645387 0.049318
v 0.250002 0.397124 0.249318
v 0.250002 0.456151 0.249318
v 0.250002 0.645387 0.349317
v 0.250002 0.515179 0.249318
v 0.250002 0.574207 0.249318
v 0.250002 0.645387 0.249318
v 0.050002 0.644826 -0.050683
v -0.049999 0.545387 -0.250683
v -0.049999 0.644826 0.049318
v -0.044268 0.645387 0.249318
v -0.049999 0.545387 -0.050683
v 0.250002 -0.954614 -0.150683
v 0.250002 -0.954614 0.149318
v 0.250002 0.545387 0.049318
v -0.249999 0.245386 -0.250683
v -0.249999 0.145387 0.249318
v 0.150002 -0.954614 -0.250684
v 0.250002 -0.854614 -0.250684
v 0.250002 -0.954614 -0.250684
v 0.250002 -0.854614 0.349316
v 0.150002 -0.854614 0.349316
v 0.250002 -0.954614 0.249318
v 0.150002 -0.954614 0.249318
v 0.050002 0.145387 -0.250683
v 0.050002 0.245386 -0.250683
v -0.349998 -0.954614 -0.150683
v -0.149999 -0.854614 -0.250684
v -0.149999 -0.954614 -0.350682
v -0.249999 -0.854614 0.149318
v -0.349998 -0.954614 0.149318
v -0.149999 -0.854614 0.249318
v -0.149999 -0.954614 0.349316
v 0.150002 -0.854614 -0.250684
v 0.150002 -0.954614 -0.350682
v 0.250002 -0.854614 -0.150683
v 0.350001 -0.954614 -0.150683
v 0.150002 -0.854614 0.249318
v 0.150002 -0.954614 0.349316
v 0.250002 -0.854614 0.149318
v 0.350001 -0.954614 0.149318
vt 0.0365 0.2642
vt 0.1489 0.0085
vt 0.1208 0.2642
vt 0.1489 0.3097
vt 0.1208 0.5653
vt 0.0365 0.5653
vt 0.3343 0.3665
vt 0.3062 0.3381
vt 0.3343 0.3381
vt 0.7725 0.3097
vt 0.8006 0.3097
vt 0.8006 0.5653
vt 0.9635 0.1903
vt 0.9916 0.1903
vt 0.9916 0.2187
vt 0.9635 0.2187
vt 0.0084 0.3097
vt 0.0084 0.5653
vt 0.2219 0.3381
vt 0.1938 0.3665
vt 0.1938 0.3381
vt 0.3062 0.2926
vt 0.1657 0.0369
vt 0.1938 0.0369
vt 0.0084 0.2642
vt 0.7275 0.3097
vt 0.7556 0.3097
vt 0.7556 0.5653
vt 0.7669 0.2642
vt 0.7388 0.0085
vt 0.7669 0.0085
vt 0.0084 0.0085
vt 0.8174 0.3949
vt 0.8736 0.4233
vt 0.8174 0.4233
vt 0.7275 0.8551
vt 0.7837 0.8267
vt 0.7837 0.8551
vt 0.2219 0.8153
vt 0.1657 0.8722
vt 0.1657 0.8153
vt 0.4073 0.3949
vt 0.4821 0.4517
vt 0.4655 0.4517
vt 0.0084 0.7528
vt 0.1208 0.6108
vt 0.1208 0.7528
vt 0.8736 0.6660
vt 0.9017 0.7244
vt 0.8736 0.7244
vt 0.4490 0.4517
vt 0.4324 0.4517
vt 0.4916 0.4687
vt 0.4916 0.6108
vt 0.3792 0.6108
vt 0.4158 0.4517
vt 0.3992 0.4517
vt 0.9185 0.3097
vt 0.8904 0.4517
vt 0.8904 0.3097
vt 0.0983 0.8267
vt 0.1264 0.7699
vt 0.1264 0.9119
vt 0.3792 0.4687
vt 0.3792 0.9006
vt 0.4073 0.8742
vt 0.4073 0.8910
vt 0.8736 0.2549
vt 0.9017 0.2813
vt 0.8736 0.2717
vt 0.4073 0.9006
vt 0.8736 0.2813
vt 0.2219 0.7699
vt 0.2219 0.7983
vt 0.1657 0.7983
vt 0.8006 0.6676
vt 0.8567 0.5824
vt 0.8567 0.6960
vt 0.1657 0.6847
vt 0.8006 0.6960
vt 0.8287 0.0938
vt 0.8567 0.1506
vt 0.8287 0.1506
vt 0.6959 0.1506
vt 0.6376 0.0938
vt 0.7125 0.1506
vt 0.4073 0.8407
vt 0.4073 0.8575
vt 0.8736 0.2214
vt 0.8736 0.2381
vt 0.3792 0.7869
vt 0.4073 0.8072
vt 0.4073 0.8239
vt 0.8736 0.1878
vt 0.9017 0.1676
vt 0.8736 0.2046
vt 0.8736 0.7999
vt 0.9017 0.7415
vt 0.9017 0.8835
vt 0.6627 0.1506
vt 0.6793 0.1506
vt 0.6295 0.1506
vt 0.6461 0.1506
vt 0.4073 0.7869
vt 0.8736 0.1676
vt 0.6208 0.6108
vt 0.5084 0.6108
vt 0.5084 0.4687
vt 0.2219 0.6847
vt 0.1489 0.5653
vt 0.4354 0.0369
vt 0.4635 0.0369
vt 0.4635 0.2926
vt 0.3230 0.5256
vt 0.2949 0.7812
vt 0.2949 0.5256
vt 0.8118 0.2642
vt 0.7837 0.0085
vt 0.8118 0.0085
vt 0.3230 0.2926
vt 0.3511 0.0369
vt 0.6264 0.1676
vt 0.6826 0.2528
vt 0.6264 0.2812
vt 0.6826 0.2812
vt 0.4803 0.7131
vt 0.5084 0.7699
vt 0.4803 0.7699
vt 0.4972 0.8133
vt 0.4691 0.7869
vt 0.4972 0.7965
vt 0.4972 0.7869
vt 0.2520 0.6676
vt 0.1938 0.6108
vt 0.2686 0.6676
vt 0.6826 0.7244
vt 0.7107 0.6676
vt 0.7107 0.7244
vt 0.5927 0.3949
vt 0.5345 0.4517
vt 0.5179 0.4517
vt 0.4972 0.8468
vt 0.4972 0.8300
vt 0.4972 0.8803
vt 0.4691 0.9006
vt 0.4972 0.8636
vt 0.2189 0.6676
vt 0.2355 0.6676
vt 0.1857 0.6676
vt 0.2023 0.6676
vt 0.6826 0.1676
vt 0.8736 0.5824
vt 0.9017 0.5824
vt 0.4972 0.9006
vt 0.5676 0.4517
vt 0.5511 0.4517
vt 0.6008 0.4517
vt 0.5842 0.4517
vt 0.5927 0.1506
vt 0.4803 0.0085
vt 0.5927 0.0085
vt 0.6826 0.7415
vt 0.7107 0.7415
vt 0.7107 0.8125
vt 0.5534 0.1960
vt 0.6096 0.1676
vt 0.6096 0.2812
vt 0.8736 0.4687
vt 0.8174 0.4403
vt 0.8736 0.4403
vt 0.4803 0.6278
vt 0.5084 0.6278
vt 0.4803 0.6847
vt 0.8567 0.7131
vt 0.8287 0.8551
vt 0.8287 0.7131
vt 0.8287 0.1676
vt 0.8567 0.1772
vt 0.8567 0.1940
vt 0.8567 0.1676
vt 0.8287 0.0085
vt 0.8567 0.0085
vt 0.8287 0.0653
vt 0.8904 0.4687
vt 0.9466 0.5256
vt 0.8904 0.5256
vt 0.6826 0.5824
vt 0.7107 0.5824
vt 0.7107 0.6392
vt 0.5534 0.2812
vt 0.8567 0.2107
vt 0.8567 0.2275
vt 0.8287 0.2813
vt 0.8567 0.2443
vt 0.8567 0.2610
vt 0.8567 0.2813
vt 0.6826 0.8835
vt 0.7107 0.8835
vt 0.1657 0.5840
vt 0.1938 0.5824
vt 0.2388 0.6847
vt 0.2669 0.7683
vt 0.2388 0.8267
vt 0.6096 0.0921
vt 0.6376 0.0653
vt 0.6657 0.8381
vt 0.6376 0.8381
vt 0.6657 0.5824
vt 0.3792 0.3933
vt 0.4073 0.3665
vt 0.9466 0.0653
vt 0.9185 0.0653
vt 0.9466 0.0369
vt 0.3062 0.4801
vt 0.2219 0.4801
vt 0.4803 0.1506
vt 0.5927 0.3665
vt 0.6208 0.3807
vt 0.7725 0.5653
vt 0.6376 0.5824
vt 0.7275 0.5653
vt 0.7388 0.2642
vt 0.1657 0.2926
vt 0.3792 0.7699
vt 0.4073 0.7131
vt 0.4073 0.7699
vt 0.5702 0.8910
vt 0.5702 0.8742
vt 0.5983 0.9006
vt 0.3230 0.7983
vt 0.2949 0.8246
vt 0.2949 0.8079
vt 0.5702 0.9006
vt 0.2949 0.7983
vt 0.7556 0.7244
vt 0.7556 0.6676
vt 0.7837 0.7244
vt 0.7275 0.7415
vt 0.8736 0.3097
vt 0.8736 0.1506
vt 0.9017 0.0938
vt 0.9017 0.1506
vt 0.2520 0.5256
vt 0.2686 0.5256
vt 0.0983 0.9119
vt 0.0983 0.8551
vt 0.2219 0.8722
vt 0.7837 0.7415
vt 0.5702 0.8575
vt 0.5702 0.8407
vt 0.2949 0.8582
vt 0.2949 0.8414
vt 0.5702 0.8239
vt 0.2949 0.8749
vt 0.2189 0.5256
vt 0.2355 0.5256
vt 0.1857 0.5256
vt 0.2023 0.5256
vt 0.5702 0.8072
vt 0.5702 0.7869
vt 0.5983 0.7869
vt 0.3230 0.9119
vt 0.2949 0.9119
vt 0.2949 0.8917
vt 0.8736 0.7415
vt 0.8174 0.3097
vt 0.3792 0.6278
vt 0.4073 0.6278
vt 0.4073 0.6847
vt 0.5534 0.6847
vt 0.5534 0.6278
vt 0.5815 0.6278
vt 0.7275 0.9290
vt 0.7837 0.8722
vt 0.7837 0.9290
vt 0.0983 0.7699
vt 0.4655 0.3097
vt 0.4821 0.3097
vt 0.7275 0.8722
vt 0.8006 0.5824
vt 0.2669 0.8267
vt 0.4324 0.3097
vt 0.4490 0.3097
vt 0.3992 0.3097
vt 0.4158 0.3097
vt 0.8736 0.8835
vt 0.3343 0.4517
vt 0.3230 0.7812
vt 0.3343 0.4801
vt 0.3062 0.0369
vt 0.2781 0.0369
vt 0.1938 0.4801
vt 0.1938 0.4517
vt 0.3230 0.0369
vt 0.7837 0.2642
vt 0.7556 0.6392
vt 0.7556 0.5824
vt 0.7837 0.5824
vt 0.4803 0.2812
vt 0.4803 0.1676
vt 0.5365 0.1960
vt 0.2219 0.8892
vt 0.2219 0.9460
vt 0.1657 0.8892
vt 0.5365 0.1676
vt 0.1657 0.9460
vt 0.5253 0.8133
vt 0.5253 0.7965
vt 0.5534 0.7869
vt 0.5253 0.7869
vt 0.8736 0.0085
vt 0.9017 0.0085
vt 0.9017 0.0653
vt 0.5253 0.8468
vt 0.5253 0.8300
vt 0.5253 0.8636
vt 0.5253 0.9006
vt 0.5253 0.8803
vt 0.5534 0.9006
vt 0.5365 0.2812
vt 0.5534 0.7699
vt 0.5534 0.7131
vt 0.5815 0.7699
vt 0.8174 0.5540
vt 0.5534 0.1676
vt 0.4242 0.9006
vt 0.4522 0.8742
vt 0.4522 0.8910
vt 0.4522 0.9006
vt 0.9466 0.4687
vt 0.6959 0.0085
vt 0.7125 0.0085
vt 0.5179 0.3097
vt 0.5345 0.3097
vt 0.4522 0.8407
vt 0.4522 0.8575
vt 0.4242 0.7869
vt 0.4522 0.8072
vt 0.4522 0.8239
vt 0.6627 0.0085
vt 0.6793 0.0085
vt 0.6295 0.0085
vt 0.6461 0.0085
vt 0.2669 0.6847
vt 0.4522 0.7869
vt 0.5510 0.3097
vt 0.5676 0.3097
vt 0.5842 0.3097
vt 0.6008 0.3097
vt 0.8736 0.5540
vt 0.0084 0.6108
vt 0.8006 0.9290
vt 0.8006 0.9006
vt 0.8287 0.9290
vt 0.9185 0.2244
vt 0.9185 0.1960
vt 0.9466 0.2244
vt 0.6208 0.4687
vt 0.9185 0.4517
vt 0.8567 0.8551
vt 0.2669 0.8437
vt 0.2388 0.8722
vt 0.2388 0.8437
vt 0.9185 0.2415
vt 0.9466 0.2415
vt 0.9466 0.2699
vt 0.9185 0.2699
vt 0.9916 0.1449
vt 0.9916 0.1733
vt 0.9635 0.1733
vt 0.9635 0.1449
vt 0.4691 0.9631
vt 0.4972 0.9631
vt 0.4972 0.9915
vt 0.4691 0.9915
vt 0.1657 0.9631
vt 0.1938 0.9631
vt 0.1938 0.9915
vt 0.1657 0.9915
vt 0.9635 0.3551
vt 0.9635 0.3835
vt 0.9354 0.3835
vt 0.9354 0.3551
vt 0.9635 0.4687
vt 0.9916 0.4687
vt 0.9916 0.4972
vt 0.9635 0.4972
vt 0.1489 0.2642
vt 0.2949 0.9290
vt 0.3230 0.9290
vt 0.3230 0.9574
vt 0.2949 0.9574
vt 0.9635 0.1278
vt 0.9635 0.0994
vt 0.9916 0.0994
vt 0.9916 0.1278
vt 0.2388 0.9631
vt 0.2669 0.9631
vt 0.2669 0.9915
vt 0.2388 0.9915
vt 0.6826 0.9006
vt 0.7107 0.9006
vt 0.7107 0.9290
vt 0.6826 0.9290
vt 0.9354 0.4290
vt 0.9354 0.4006
vt 0.9635 0.4006
vt 0.9635 0.4290
vt 0.2781 0.5256
vt 0.2781 0.5824
vt 0.4916 0.3949
vt 0.4916 0.4517
vt 0.3792 0.4517
vt 0.1657 0.5256
vt 0.7219 0.0938
vt 0.7219 0.1506
vt 0.4916 0.3097
vt 0.4916 0.3665
vt 0.3792 0.3097
vt 0.6096 0.1506
vt 0.9635 0.0540
vt 0.9916 0.0540
vt 0.9916 0.0824
vt 0.9635 0.0824
vt 0.5253 0.9631
vt 0.5534 0.9631
vt 0.5534 0.9915
vt 0.5253 0.9915
vt 0.9354 0.3097
vt 0.9635 0.3097
vt 0.9635 0.3381
vt 0.9354 0.3381
vt 0.4242 0.9915
vt 0.4242 0.9631
vt 0.4522 0.9631
vt 0.4522 0.9915
vt 0.5253 0.9460
vt 0.5253 0.9176
vt 0.5534 0.9176
vt 0.5534 0.9460
vt 0.9466 0.9006
vt 0.9466 0.9290
vt 0.9185 0.9290
vt 0.9185 0.9006
vt 0.6657 0.3097
vt 0.6657 0.5653
vt 0.6376 0.5653
vt 0.6376 0.3097
vt 0.3792 0.9631
vt 0.4073 0.9631
vt 0.4073 0.9915
vt 0.3792 0.9915
vt 0.6826 0.9460
vt 0.7107 0.9460
vt 0.7107 0.9744
vt 0.6826 0.9744
vt 0.6208 0.9574
vt 0.5927 0.9574
vt 0.5927 0.9290
vt 0.6208 0.9290
vt 0.9635 0.0085
vt 0.9916 0.0085
vt 0.9916 0.0369
vt 0.9635 0.0369
vt 0.9185 0.8324
vt 0.9466 0.8324
vt 0.9466 0.8608
vt 0.9185 0.8608
vt 0.9185 0.9744
vt 0.9185 0.9460
vt 0.9466 0.9460
vt 0.9466 0.9744
vt 0.6826 0.3097
vt 0.7107 0.3097
vt 0.7107 0.5653
vt 0.6826 0.5653
vt 0.2781 0.6108
vt 0.2781 0.6676
vt 0.5084 0.3949
vt 0.5084 0.4517
vt 0.6208 0.4517
vt 0.1657 0.6676
vt 0.7219 0.0085
vt 0.7219 0.0653
vt 0.5084 0.3665
vt 0.5084 0.3097
vt 0.6208 0.3097
vt 0.6096 0.0085
vt 0.3624 0.3665
vt 0.3624 0.4517
vt 0.1208 0.5937
vt 0.0365 0.5937
vt 0.1657 0.4517
vt 0.1657 0.3665
vt 0.1938 0.0085
vt 0.2781 0.0085
vt 0.0815 0.7699
vt 0.0815 0.9119
vt 0.0534 0.9119
vt 0.0534 0.7699
vt 0.7275 0.6392
vt 0.7275 0.6676
vt 0.6657 0.9119
vt 0.6376 0.9119
vt 0.6376 0.8551
vt 0.6657 0.8551
vt 0.8006 0.8873
vt 0.8287 0.8722
vt 0.0084 0.9119
vt 0.0084 0.7699
vt 0.0365 0.7699
vt 0.0365 0.9119
vt 0.5253 0.6847
vt 0.5253 0.7131
vt 0.9466 0.6392
vt 0.9185 0.6392
vt 0.9185 0.5824
vt 0.9466 0.5824
vt 0.9185 0.1827
vt 0.9466 0.1676
vt 0.2219 0.3097
vt 0.3062 0.3097
vt 0.1208 0.2926
vt 0.0365 0.2926
vt 0.4354 0.6847
vt 0.4354 0.7131
vt 0.9466 0.0824
vt 0.9466 0.1392
vt 0.9185 0.1392
vt 0.9185 0.0824
vt 0.9185 0.0085
vt 0.2219 0.5085
vt 0.3062 0.5085
vt 0.3511 0.0085
vt 0.4354 0.0085
vt 0.4522 0.7131
vt 0.4522 0.6847
vt 0.9185 0.7131
vt 0.9185 0.6562
vt 0.9466 0.6562
vt 0.9466 0.7131
vt 0.2669 0.9006
vt 0.8455 0.9460
vt 0.8455 0.9744
vt 0.8174 0.9744
vt 0.8174 0.9460
vn -1.0000 -0.0000 0.0000
vn 0.0000 0.0000 -1.0000
vn -0.0000 -1.0000 -0.0000
vn 0.0000 -0.0000 1.0000
vn 0.0000 1.0000 0.0000
vn 1.0000 0.0000 0.0000
vn -0.5767 0.5787 -0.5767
vn 0.5767 0.5787 0.5767
vn 0.5780 0.5760 -0.5780
vn -0.5780 0.5760 0.5780
usemtl palette
s 1
f 1/1/1 2/2/1 3/3/1
f 4/4/2 5/5/2 6/6/2
f 7/7/3 8/8/3 9/9/3
f 10/10/1 11/11/1 12/12/1
f 13/13/3 3/14/3 14/15/3 15/16/3
f 11/17/2 4/4/2 12/18/2
f 16/19/3 17/20/3 18/21/3
f 19/22/4 20/23/4 21/24/4
f 22/25/1 2/2/1 1/1/1
f 23/26/1 24/27/1 25/28/1
f 24/29/4 22/30/4 25/31/4
f 22/25/1 26/32/1 2/2/1
f 27/33/2 28/34/2 29/35/2
f 28/36/1 30/37/1 31/38/1
f 28/39/5 32/40/5 29/41/5
f 33/42/6 34/43/6 35/44/6
f 37/45/2 38/46/2 39/47/2
f 40/48/5 37/49/5 41/50/5
f 33/42/6 42/51/6 43/52/6
f 44/53/1 45/54/1 46/55/1
f 33/42/6 47/56/6 48/57/6
f 33/42/6 43/52/6 47/56/6
f 33/42/6 35/44/6 42/51/6
f 24/58/5 2/59/5 26/60/5
f 49/61/3 50/62/3 46/63/3
f 50/64/1 44/53/1 46/55/1
f 51/65/1 52/66/1 53/67/1
f 52/68/4 50/69/4 53/70/4
f 51/65/1 53/67/1 54/71/1
f 53/70/4 50/69/4 54/72/4
f 49/73/4 55/74/4 56/75/4
f 57/76/1 58/77/1 56/78/1
f 58/79/4 49/73/4 56/75/4
f 59/80/1 57/76/1 56/78/1
f 57/81/3 51/82/3 54/83/3
f 52/84/2 60/85/2 53/86/2
f 51/65/1 61/87/1 62/88/1
f 61/89/4 50/69/4 62/90/4
f 63/91/1 64/92/1 65/93/1
f 64/94/4 44/95/4 65/96/4
f 66/97/5 45/98/5 44/99/5
f 61/100/2 60/85/2 62/101/2
f 64/102/2 60/85/2 65/103/2
f 65/103/2 60/85/2 61/100/2
f 63/91/1 67/104/1 64/92/1
f 67/105/4 44/95/4 64/94/4
f 51/65/1 62/88/1 52/66/1
f 62/90/4 50/69/4 52/68/4
f 63/106/4 51/107/4 68/108/4
f 58/79/4 69/109/4 49/73/4
f 62/101/2 60/85/2 52/84/2
f 4/4/2 70/110/2 5/5/2
f 71/111/6 72/112/6 73/113/6
f 74/114/6 70/115/6 4/116/6
f 75/117/4 76/118/4 77/119/4
f 75/120/6 78/121/6 71/111/6
f 75/120/6 71/111/6 73/113/6
f 79/122/2 80/123/2 81/124/2
f 80/123/2 82/125/2 81/124/2
f 82/126/6 74/127/6 83/128/6
f 84/129/2 85/130/2 86/131/2
f 86/131/2 85/130/2 87/132/2
f 84/133/4 88/134/4 86/135/4
f 85/136/3 80/137/3 87/138/3
f 89/139/1 84/140/1 86/141/1
f 90/142/2 85/130/2 91/143/2
f 92/144/2 93/145/2 94/146/2
f 90/147/4 88/134/4 91/148/4
f 92/149/4 88/134/4 94/150/4
f 94/150/4 88/134/4 90/147/4
f 79/122/2 89/151/2 80/123/2
f 95/152/5 96/153/5 40/48/5
f 95/154/2 93/145/2 92/144/2
f 89/139/1 90/155/1 91/156/1
f 89/139/1 92/157/1 94/158/1
f 89/139/1 94/158/1 90/155/1
f 97/159/6 85/160/6 93/161/6
f 93/162/5 95/163/5 98/164/5
f 91/143/2 85/130/2 84/129/2
f 89/139/1 91/156/1 84/140/1
f 91/148/4 88/134/4 84/133/4
f 99/165/6 100/166/6 101/167/6
f 102/168/4 100/169/4 103/170/4
f 104/171/6 105/172/6 103/173/6
f 75/174/5 74/175/5 105/176/5
f 68/177/6 106/178/6 107/179/6
f 68/177/6 108/180/6 106/178/6
f 108/181/3 68/182/3 99/183/3
f 104/184/5 100/185/5 109/186/5
f 110/187/3 108/188/3 102/189/3
f 111/190/6 99/165/6 101/167/6
f 68/177/6 113/191/6 114/192/6
f 115/193/6 116/194/6 117/195/6
f 115/193/6 117/195/6 118/196/6
f 97/197/5 98/164/5 118/198/5
f 68/177/6 107/179/6 113/191/6
f 88/134/4 40/199/4 120/200/4
f 115/201/5 122/202/5 63/203/5
f 122/204/2 111/205/2 60/85/2
f 2/206/2 10/207/2 14/208/2
f 66/209/6 69/210/6 33/42/6
f 123/211/1 58/212/1 36/213/7
f 124/214/3 125/215/3 7/7/3
f 103/173/6 74/127/6 82/126/6
f 110/216/6 85/160/6 97/159/6
f 126/217/1 98/218/1 89/139/1
f 12/18/2 4/4/2 6/6/2
f 15/219/1 10/10/1 12/12/1
f 14/208/2 10/207/2 15/220/2
f 20/221/1 23/26/1 25/28/1
f 24/29/4 26/222/4 22/30/4
f 19/22/4 23/223/4 20/23/4
f 10/224/1 29/225/1 32/226/1
f 34/227/1 35/228/1 39/229/1
f 46/230/2 35/231/2 34/232/2
f 127/233/1 34/227/1 39/229/1
f 46/230/2 34/232/2 127/234/2
f 32/235/2 31/236/2 10/237/2
f 28/36/1 123/238/1 30/37/1
f 27/33/2 123/239/2 28/34/2
f 39/240/3 30/241/3 127/242/3
f 120/200/4 35/243/4 34/244/4
f 127/245/3 27/246/3 46/63/3
f 28/39/5 31/247/5 32/40/5
f 30/37/1 123/238/1 120/248/1
f 42/249/1 43/250/1 39/229/1
f 46/230/2 43/251/2 42/252/2
f 43/250/1 47/253/1 39/229/1
f 46/230/2 47/254/2 43/251/2
f 120/200/4 43/255/4 42/256/4
f 120/200/4 48/257/4 47/258/4
f 120/200/4 47/258/4 43/255/4
f 48/259/1 41/260/1 37/261/1
f 45/262/2 41/263/2 48/264/2
f 66/97/5 41/265/5 45/98/5
f 35/228/1 42/249/1 39/229/1
f 46/230/2 42/252/2 35/231/2
f 120/200/4 42/256/4 35/243/4
f 33/266/2 123/239/2 27/33/2
f 24/267/1 128/268/1 55/269/1
f 59/270/4 128/271/4 24/272/4
f 128/273/5 56/274/5 55/275/5
f 49/61/3 54/276/3 50/62/3
f 52/277/6 53/278/6 69/210/6
f 59/279/5 56/274/5 128/273/5
f 57/76/1 60/280/1 58/77/1
f 63/203/5 122/202/5 67/281/5
f 61/282/6 62/283/6 69/210/6
f 64/284/6 65/285/6 69/210/6
f 65/285/6 61/282/6 69/210/6
f 67/286/5 66/97/5 44/99/5
f 62/283/6 52/277/6 69/210/6
f 129/287/3 124/214/3 7/7/3
f 74/114/6 130/288/6 70/115/6
f 129/287/3 131/289/3 124/214/3
f 132/290/4 19/22/4 133/291/4
f 125/215/3 134/292/3 135/293/3
f 75/120/6 77/294/6 78/121/6
f 75/117/4 105/295/4 76/118/4
f 136/296/2 83/297/2 74/298/2
f 79/299/6 81/300/6 137/301/6
f 82/302/5 83/303/5 81/304/5
f 137/301/6 81/300/6 136/305/6
f 81/304/5 83/303/5 136/306/5
f 84/307/6 86/308/6 38/309/6
f 86/308/6 87/310/6 38/309/6
f 38/311/3 87/312/3 137/313/3
f 90/314/6 91/315/6 38/309/6
f 94/316/6 90/314/6 38/309/6
f 95/317/6 92/318/6 96/319/6
f 91/315/6 84/307/6 38/309/6
f 79/299/6 137/301/6 88/320/6
f 104/321/4 109/322/4 105/323/4
f 102/168/4 101/324/4 100/169/4
f 99/165/6 109/325/6 100/166/6
f 103/173/6 105/172/6 74/127/6
f 110/326/4 107/327/4 106/328/4
f 110/326/4 106/328/4 108/329/4
f 104/184/5 103/330/5 100/185/5
f 111/205/2 107/331/2 106/332/2
f 106/333/1 107/334/1 126/217/1
f 110/326/4 114/335/4 113/336/4
f 97/337/4 117/338/4 116/339/4
f 97/197/5 93/162/5 98/164/5
f 111/205/2 114/340/2 113/341/2
f 111/205/2 117/342/2 116/343/2
f 111/205/2 116/343/2 114/340/2
f 115/201/5 118/344/5 122/202/5
f 97/337/4 118/345/4 117/338/4
f 113/346/1 114/347/1 126/217/1
f 116/348/1 117/349/1 126/217/1
f 114/347/1 116/348/1 126/217/1
f 110/326/4 113/336/4 107/327/4
f 107/334/1 113/346/1 126/217/1
f 126/350/4 101/324/4 102/168/4
f 111/205/2 113/341/2 107/331/2
f 125/215/3 135/293/3 17/20/3
f 133/291/4 19/22/4 21/24/4
f 40/48/5 96/153/5 37/49/5
f 37/45/2 96/351/2 38/46/2
f 123/352/2 36/353/7 79/354/2
f 101/355/4 112/356/8 58/357/4
f 115/358/4 63/106/4 68/108/4
f 24/58/5 10/359/5 2/59/5
f 46/63/3 27/246/3 49/61/3
f 75/174/5 73/360/5 74/175/5
f 79/361/6 112/362/8 101/363/6
f 7/7/3 125/215/3 17/20/3
f 13/364/1 15/365/1 9/366/1 8/367/1
f 13/368/2 8/369/2 138/370/2 3/371/2
f 139/372/3 15/373/3 12/374/3 6/375/3
f 139/376/1 6/377/1 140/378/1 7/379/1
f 139/380/2 7/381/2 9/382/2 15/383/2
f 25/384/3 22/385/3 1/386/3 141/387/3
f 14/388/1 3/3/1 2/2/1
f 25/389/1 141/390/1 16/391/1 18/392/1
f 1/393/4 142/394/4 16/395/4 141/396/4
f 21/397/3 20/398/3 25/399/3 143/400/3
f 21/401/1 143/402/1 17/403/1 144/404/1
f 25/405/4 18/406/4 17/407/4 143/408/4
f 34/244/4 127/409/4 30/410/4 120/200/4
f 27/411/6 127/412/6 34/43/6 33/42/6
f 47/253/1 48/259/1 37/261/1 39/229/1
f 45/262/2 48/264/2 47/254/2 46/230/2
f 66/209/6 33/42/6 48/57/6 41/413/6
f 40/199/4 41/414/4 48/257/4 120/200/4
f 53/86/2 60/85/2 57/415/2 54/416/2
f 53/278/6 54/417/6 49/418/6 69/210/6
f 63/91/1 65/93/1 61/87/1 51/65/1
f 44/95/4 50/69/4 61/89/4 65/96/4
f 67/419/6 64/284/6 69/210/6 66/209/6
f 122/204/2 60/85/2 64/102/2 67/420/2
f 130/421/3 145/422/3 5/423/3 70/424/3
f 129/425/6 146/426/6 5/427/6 145/428/6
f 130/429/2 131/430/2 129/431/2 145/432/2
f 71/433/3 147/434/3 130/435/3 72/436/3
f 124/437/6 131/438/6 130/439/6 147/440/6
f 71/441/2 148/442/2 124/443/2 147/444/2
f 73/445/2 72/446/2 130/447/2 74/448/2
f 132/449/3 133/450/3 149/451/3 76/452/3
f 150/453/6 135/454/6 149/455/6 133/456/6
f 149/457/4 135/458/4 134/459/4 76/460/4
f 77/461/3 76/462/3 151/463/3 78/464/3
f 134/465/6 125/466/6 151/467/6 76/468/6
f 151/469/4 125/470/4 152/471/4 78/472/4
f 132/473/6 76/474/6 105/475/6 19/476/6
f 86/135/4 88/134/4 137/477/4 87/478/4
f 80/479/1 89/139/1 86/141/1 87/480/1
f 94/316/6 38/309/6 96/319/6 92/318/6
f 93/145/2 85/130/2 90/142/2 94/146/2
f 89/139/1 98/218/1 95/481/1 92/157/1
f 95/482/4 40/199/4 88/134/4 92/149/4
f 106/332/2 108/483/2 99/484/2 111/205/2
f 106/333/1 126/217/1 102/485/1 108/486/1
f 115/193/6 68/177/6 114/192/6 116/194/6
f 97/337/4 116/339/4 114/335/4 110/326/4
f 118/487/1 98/218/1 126/217/1 117/349/1
f 118/488/2 117/342/2 111/205/2 122/204/2
f 129/287/3 7/7/3 140/489/3 146/490/3
f 5/5/2 146/491/2 140/492/2 6/6/2
f 150/493/3 144/494/3 17/20/3 135/293/3
f 21/24/4 144/495/4 150/496/4 133/291/4
f 4/497/5 11/498/5 10/499/5 74/500/5
f 136/296/2 74/298/2 10/237/2 31/236/2
f 38/311/3 137/313/3 30/241/3 39/240/3
f 137/501/2 136/296/2 31/236/2 30/502/2
f 88/503/5 120/504/5 123/505/5 79/506/5
f 36/507/7 119/508/9 79/354/2
f 105/509/5 24/510/5 23/511/5 19/512/5
f 59/270/4 24/272/4 105/323/4 109/322/4
f 68/182/3 51/82/3 57/81/3 99/183/3
f 57/513/4 59/270/4 109/322/4 99/514/4
f 101/515/5 58/516/5 60/517/5 111/518/5
f 112/519/8 121/520/10 58/357/4
f 16/19/3 142/521/3 138/522/3 8/8/3
f 1/1/1 3/3/1 138/523/1 142/524/1
f 7/7/3 17/20/3 16/19/3 8/8/3
f 55/269/1 29/225/1 10/224/1 24/267/1
f 49/525/1 27/526/1 29/225/1 55/269/1
f 123/527/5 33/528/5 69/529/5 58/530/5
f 36/213/7 58/212/1 121/531/10
f 152/532/3 125/215/3 124/214/3 148/533/3
f 152/534/6 148/535/6 71/111/6 78/121/6
f 103/173/6 82/126/6 80/536/6 102/537/6
f 110/187/3 102/189/3 80/137/3 85/136/3
f 89/538/5 79/539/5 101/540/5 126/541/5
f 119/542/9 112/362/8 79/361/6
f 119/543/9 36/544/7 121/545/10 112/546/8
