# Blender v2.78 (sub 0) OBJ File: 'Temp.blend'
# www.blender.org
mtllib ClutterFern.mtl
o Copy.001_GroundClutter.002
v -0.049198 0.000746 0.078378
v -0.049198 0.000746 0.178379
v -0.249198 0.300745 0.078378
v -0.249198 0.300745 0.178379
v -0.249198 0.400746 -0.021620
v -0.249198 0.400746 0.078378
v -0.249198 0.600746 0.078378
v -0.249198 0.400746 0.178380
v -0.149197 0.200746 0.078378
v -0.149197 0.300745 0.078378
v -0.049198 0.200746 0.078378
v -0.149197 0.200746 0.178379
v -0.149197 0.300745 0.178379
v -0.049198 0.200746 0.178379
v -0.164821 0.400746 0.078378
v -0.149197 0.600746 0.078378
v 0.046117 0.400746 -0.021620
v -0.071071 0.400746 0.078378
v 0.150802 0.600746 -0.021620
v 0.046117 0.400746 0.178380
v 0.050803 0.000746 0.078378
v 0.050803 0.000746 0.178379
v 0.050803 0.200746 0.078378
v 0.150802 0.200746 0.078378
v 0.150802 0.300745 0.078378
v 0.050803 0.200746 0.178379
v 0.150802 0.200746 0.178379
v 0.150802 0.300745 0.178379
v 0.022679 0.400746 0.078378
v 0.116429 0.400746 0.078378
v 0.150802 0.600746 0.078378
v 0.250803 0.300745 0.078378
v 0.250803 0.300745 0.178379
v 0.250803 0.400746 -0.021620
v 0.250803 0.400746 0.078378
v 0.250803 0.600746 0.078378
v 0.250803 0.400746 0.178380
v -0.149197 0.700747 -0.121622
v -0.149197 0.800746 -0.221620
v -0.149197 0.800746 -0.121622
v -0.049198 0.800746 -0.221620
v -0.049198 0.800746 -0.121622
v -0.149197 0.900747 -0.221620
v -0.149197 0.900747 -0.121622
v -0.049198 0.900747 -0.221620
v -0.049198 0.900747 -0.121622
v -0.049198 1.000746 -0.221620
v -0.049198 1.000746 -0.121622
v 0.150802 0.700747 -0.121622
v 0.050803 0.800746 -0.221620
v 0.050803 0.800746 -0.121622
v 0.150802 0.800746 -0.221620
v 0.150802 0.800746 -0.121622
v 0.050803 0.900747 -0.221620
v 0.050803 0.900747 -0.121622
v 0.050803 1.000746 -0.221620
v 0.050803 1.000746 -0.121622
v 0.150802 0.900747 -0.221620
v 0.150802 0.900747 -0.121622
v -0.249198 0.600746 -0.021620
v -0.149197 0.600746 -0.021620
v -0.149197 0.700747 -0.021620
v -0.149197 0.700747 0.078378
v -0.149197 0.800746 -0.021620
v -0.071071 0.700747 -0.021620
v -0.049198 0.800746 -0.021620
v -0.049198 0.900747 -0.021620
v 0.022679 0.700747 -0.021620
v 0.150802 0.700747 0.078378
v 0.050803 0.800746 -0.021620
v 0.150802 0.700747 -0.021620
v 0.150802 0.800746 -0.021620
v 0.250803 0.600746 -0.021620
v 0.050803 0.900747 -0.021620
vt 0.4139 0.0417
vt 0.4801 0.0367
vt 0.4801 0.0667
vt 0.1424 0.3188
vt 0.1093 0.3814
vt 0.0762 0.3494
vt 0.1424 0.4135
vt 0.1093 0.4135
vt 0.2285 0.3494
vt 0.2616 0.3814
vt 0.2285 0.3814
vt 0.1093 0.2853
vt 0.0762 0.3173
vt 0.0762 0.2853
vt 0.3477 0.2853
vt 0.4139 0.2532
vt 0.4139 0.3188
vt 0.4801 0.0968
vt 0.0099 0.7092
vt 0.0430 0.7092
vt 0.0430 0.7733
vt 0.3477 0.3814
vt 0.4139 0.4135
vt 0.7781 0.0096
vt 0.7450 0.0737
vt 0.7450 0.0096
vt 0.6060 0.3864
vt 0.5728 0.4135
vt 0.5728 0.3188
vt 0.6060 0.3564
vt 0.0099 0.7733
vt 0.2285 0.2853
vt 0.2616 0.2853
vt 0.2285 0.3173
vt 0.0762 0.3814
vt 0.4801 0.0096
vt 0.4139 0.0096
vt 0.6060 0.4135
vt 0.2947 0.3103
vt 0.2947 0.2802
vt 0.2171 0.9006
vt 0.2171 0.9327
vt 0.1840 0.9327
vt 0.1840 0.9006
vt 0.8709 0.5096
vt 0.8709 0.5417
vt 0.8377 0.5417
vt 0.8377 0.5096
vt 0.5530 0.3864
vt 0.5199 0.4135
vt 0.5199 0.3188
vt 0.5530 0.3564
vt 0.8311 0.0609
vt 0.8311 0.0929
vt 0.7980 0.0929
vt 0.7980 0.0609
vt 0.3231 0.7981
vt 0.3231 0.8301
vt 0.2900 0.8301
vt 0.2900 0.7981
vt 0.2616 0.2532
vt 0.2947 0.2532
vt 0.5530 0.4135
vt 0.4801 0.1268
vt 0.4139 0.1378
vt 0.6060 0.2963
vt 0.6060 0.3263
vt 0.5728 0.2532
vt 0.6060 0.2532
vt 0.7781 0.0737
vt 0.4801 0.1699
vt 0.4139 0.1699
vt 0.2947 0.3704
vt 0.2947 0.3403
vt 0.0099 0.8951
vt 0.0430 0.8951
vt 0.0430 0.9272
vt 0.0099 0.9272
vt 0.9238 0.9071
vt 0.9238 0.9391
vt 0.8907 0.9391
vt 0.8907 0.9071
vt 0.2171 0.7981
vt 0.2171 0.8301
vt 0.1840 0.8301
vt 0.1840 0.7981
vt 0.5530 0.2963
vt 0.5530 0.3263
vt 0.1291 0.7926
vt 0.1291 0.8246
vt 0.0960 0.8246
vt 0.0960 0.7926
vt 0.5199 0.2532
vt 0.5530 0.2532
vt 0.2947 0.4135
vt 0.2616 0.4135
vt 0.1093 0.2532
vt 0.1424 0.2532
vt 0.8179 0.2532
vt 0.8179 0.2853
vt 0.7848 0.2853
vt 0.7848 0.2532
vt 0.1291 0.6580
vt 0.1291 0.7221
vt 0.0960 0.7221
vt 0.0960 0.6580
vt 0.7252 0.0096
vt 0.7252 0.0737
vt 0.6921 0.0737
vt 0.6921 0.0096
vt 0.1623 0.3494
vt 0.1623 0.3173
vt 0.0099 0.3494
vt 0.0099 0.3173
vt 0.9768 0.8558
vt 0.9768 0.8878
vt 0.9437 0.8878
vt 0.9437 0.8558
vt 0.9238 0.9583
vt 0.9238 0.9904
vt 0.8907 0.9904
vt 0.8907 0.9583
vt 0.3562 0.5288
vt 0.3562 0.4968
vt 0.3893 0.5288
vt 0.7848 0.9904
vt 0.7848 0.9583
vt 0.8179 0.9583
vt 0.8179 0.9904
vt 0.6060 0.9199
vt 0.6060 0.9519
vt 0.5728 0.9519
vt 0.5728 0.9199
vt 0.2900 0.9519
vt 0.3231 0.9519
vt 0.3231 0.9840
vt 0.2900 0.9840
vt 0.3562 0.4647
vt 0.3562 0.4327
vt 0.3893 0.4327
vt 0.6788 0.9519
vt 0.6788 0.9199
vt 0.7119 0.9199
vt 0.7119 0.9519
vt 0.5530 0.8494
vt 0.5530 0.8814
vt 0.5199 0.8814
vt 0.5199 0.8494
vt 0.8907 0.2853
vt 0.8907 0.2532
vt 0.9238 0.2532
vt 0.9238 0.2853
vt 0.8709 0.2212
vt 0.8377 0.2212
vt 0.8377 0.1891
vt 0.8709 0.1891
vt 0.8377 0.6506
vt 0.8709 0.6506
vt 0.8709 0.6827
vt 0.8377 0.6827
vt 0.7649 0.7019
vt 0.7649 0.7340
vt 0.7318 0.7340
vt 0.7318 0.7019
vt 0.5000 0.9006
vt 0.5000 0.9327
vt 0.4669 0.9327
vt 0.4669 0.9006
vt 0.5000 0.8814
vt 0.4669 0.8814
vt 0.4669 0.8494
vt 0.5000 0.8494
vt 0.8907 0.4583
vt 0.9238 0.4583
vt 0.9238 0.4904
vt 0.8907 0.4904
vt 0.8709 0.8558
vt 0.8709 0.8878
vt 0.8377 0.8878
vt 0.8377 0.8558
vt 0.8709 0.7532
vt 0.8709 0.7853
vt 0.8377 0.7853
vt 0.8377 0.7532
vt 0.9371 0.0417
vt 0.9040 0.0417
vt 0.9040 0.0096
vt 0.9371 0.0096
vt 0.5728 0.7147
vt 0.6060 0.7147
vt 0.6060 0.7468
vt 0.5728 0.7468
vt 0.3231 0.4968
vt 0.3231 0.4647
vt 0.2701 0.5288
vt 0.2370 0.5288
vt 0.2370 0.5038
vt 0.2701 0.4968
vt 0.2701 0.5481
vt 0.2370 0.5731
vt 0.2370 0.5481
vt 0.8377 0.2853
vt 0.8377 0.2532
vt 0.8709 0.2532
vt 0.8709 0.2853
vt 0.6589 0.8686
vt 0.6589 0.9006
vt 0.6258 0.9006
vt 0.6258 0.8686
vt 0.2701 0.4647
vt 0.2370 0.4738
vt 0.2370 0.4327
vt 0.2701 0.4327
vt 0.3146 0.3814
vt 0.3146 0.3564
vt 0.2701 0.6442
vt 0.2370 0.6442
vt 0.2370 0.6032
vt 0.8377 0.4391
vt 0.8377 0.4071
vt 0.8709 0.4071
vt 0.8709 0.4391
vt 0.1291 0.8439
vt 0.1291 0.8759
vt 0.0960 0.8759
vt 0.0960 0.8439
vt 0.3146 0.3263
vt 0.3146 0.2853
vt 0.3808 0.1378
vt 0.3808 0.0417
vt 0.3032 0.4647
vt 0.3032 0.4968
vt 0.2701 0.9006
vt 0.2701 0.9327
vt 0.2370 0.9327
vt 0.2370 0.9006
vt 0.7848 0.9391
vt 0.7848 0.9071
vt 0.8179 0.9071
vt 0.8179 0.9391
vt 0.6258 0.2340
vt 0.6589 0.2089
vt 0.6589 0.2340
vt 0.5530 0.9006
vt 0.5530 0.9327
vt 0.5199 0.9327
vt 0.5199 0.9006
vt 0.9238 0.7853
vt 0.8907 0.7853
vt 0.8907 0.7532
vt 0.9238 0.7532
vt 0.6258 0.1378
vt 0.6589 0.1378
vt 0.6589 0.1789
vt 0.4139 0.1891
vt 0.4139 0.2212
vt 0.3808 0.2212
vt 0.3808 0.1891
vt 0.5199 0.7468
vt 0.5530 0.7468
vt 0.5530 0.7788
vt 0.5199 0.7788
vt 0.4669 0.7788
vt 0.4669 0.7468
vt 0.5000 0.7468
vt 0.5000 0.7788
vt 0.3477 0.4135
vt 0.3477 0.2532
vn 0.0000 -0.0000 1.0000
vn 0.0000 0.0000 -1.0000
vn -1.0000 -0.0000 0.0000
vn 1.0000 -0.0000 0.0000
vn 0.0000 -1.0000 -0.0000
vn 0.0000 1.0000 0.0000
usemtl palette
s off
f 16/1/1 15/2/1 18/3/1
f 20/4/1 13/5/1 14/6/1
f 8/7/1 4/8/1 13/5/1
f 23/9/2 25/10/2 24/11/2
f 28/12/1 26/13/1 27/14/1
f 19/15/2 34/16/2 17/17/2
f 20/4/1 26/13/1 28/12/1
f 16/1/1 18/3/1 29/18/1
f 20/4/1 14/6/1 26/13/1
f 7/19/3 60/20/3 5/21/3
f 61/22/2 19/15/2 5/23/2
f 36/24/4 34/25/4 73/26/4
f 15/27/5 5/28/5 17/29/5 18/30/5
f 6/31/3 7/19/3 5/21/3
f 9/32/2 10/33/2 11/34/2
f 14/6/1 13/5/1 12/35/1
f 6/36/1 15/2/1 16/1/1 7/37/1
f 5/23/2 19/15/2 17/17/2
f 5/28/5 15/27/5 6/38/5
f 18/39/2 11/34/2 10/33/2 15/40/2
f 10/41/3 9/42/3 12/43/3 13/44/3
f 20/4/1 8/7/1 13/5/1
f 12/45/5 9/46/5 11/47/5 14/48/5
f 15/49/6 8/50/6 20/51/6 18/52/6
f 6/53/3 3/54/3 4/55/3 8/56/3
f 4/57/5 3/58/5 10/59/5 13/60/5
f 15/40/2 10/33/2 3/61/2 6/62/2
f 8/50/6 15/49/6 6/63/6
f 29/18/1 30/64/1 31/65/1 16/1/1
f 17/29/5 30/66/5 29/67/5
f 30/66/5 17/29/5 34/68/5 35/69/5
f 36/24/4 35/70/4 34/25/4
f 30/64/1 35/71/1 36/72/1 31/65/1
f 30/73/2 25/10/2 23/9/2 29/74/2
f 24/75/4 25/76/4 28/77/4 27/78/4
f 26/79/5 23/80/5 24/81/5 27/82/5
f 32/83/4 35/84/4 37/85/4 33/86/4
f 20/51/6 30/87/6 29/88/6
f 28/89/5 25/90/5 32/91/5 33/92/5
f 30/87/6 20/51/6 37/93/6 35/94/6
f 35/95/2 32/96/2 25/10/2 30/73/2
f 28/12/1 33/97/1 37/98/1 20/4/1
f 2/99/5 1/100/5 21/101/5 22/102/5
f 23/9/2 11/34/2 18/39/2 29/74/2
f 17/29/5 29/67/5 18/30/5
f 20/51/6 29/88/6 18/52/6
f 11/103/3 1/104/3 2/105/3 14/106/3
f 21/107/4 23/108/4 26/109/4 22/110/4
f 21/111/2 1/112/2 11/34/2 23/9/2
f 2/113/1 22/114/1 26/13/1 14/6/1
f 40/115/5 39/116/5 41/117/5 42/118/5
f 47/119/3 45/120/3 46/121/3 48/122/3
f 40/123/2 42/124/2 38/125/2
f 43/126/6 44/127/6 46/128/6 45/129/6
f 51/130/5 50/131/5 52/132/5 53/133/5
f 54/134/4 56/135/4 57/136/4 55/137/4
f 51/138/2 53/139/2 49/140/2
f 54/141/6 55/142/6 59/143/6 58/144/6
f 49/140/2 38/125/2 42/124/2 51/138/2
f 46/145/5 45/146/5 54/147/5 55/148/5
f 47/149/6 48/150/6 57/151/6 56/152/6
f 54/153/2 45/154/2 47/155/2 56/156/2
f 46/157/1 55/158/1 57/159/1 48/160/1
f 43/161/3 39/162/3 40/163/3 44/164/3
f 41/165/4 45/166/4 46/167/4 42/168/4
f 41/169/2 39/170/2 43/171/2 45/172/2
f 40/173/1 42/174/1 46/175/1 44/176/1
f 54/177/3 50/178/3 51/179/3 55/180/3
f 52/181/4 58/182/4 59/183/4 53/184/4
f 52/185/2 50/186/2 54/187/2 58/188/2
f 51/189/1 53/190/1 59/191/1 55/192/1
f 51/138/2 42/124/2 46/193/2 55/194/2
f 64/195/1 62/196/1 65/197/1 66/198/1
f 63/199/6 65/200/6 62/201/6
f 60/202/6 7/203/6 16/204/6 61/205/6
f 62/206/3 61/207/3 16/208/3 63/209/3
f 70/210/1 68/211/1 71/212/1 72/213/1
f 62/214/2 65/215/2 61/22/2
f 69/216/6 71/217/6 68/218/6
f 19/219/6 31/220/6 36/221/6 73/222/6
f 19/223/4 71/224/4 69/225/4 31/226/4
f 65/200/6 63/199/6 69/216/6 68/218/6
f 19/15/2 68/227/2 71/228/2
f 66/198/1 65/197/1 68/211/1 70/210/1
f 19/15/2 61/22/2 65/215/2 68/227/2
f 16/1/1 31/65/1 69/229/1 63/230/1
f 66/198/1 70/210/1 74/231/1 67/232/1
f 40/233/3 38/234/3 62/235/3 64/236/3
f 40/237/6 64/238/6 66/239/6 42/240/6
f 38/241/5 65/242/5 62/243/5
f 49/244/4 53/245/4 72/246/4 71/247/4
f 53/248/6 51/249/6 70/250/6 72/251/6
f 49/252/5 71/253/5 68/254/5
f 46/255/3 42/256/3 66/257/3 67/258/3
f 70/259/4 51/260/4 55/261/4 74/262/4
f 65/242/5 38/241/5 49/252/5 68/254/5
f 46/263/6 67/264/6 74/265/6 55/266/6
f 60/267/2 61/22/2 5/23/2
f 19/15/2 73/268/2 34/16/2
