# Blender v2.78 (sub 0) OBJ File: 'Temp.blend'
# www.blender.org
mtllib ClutterGrass.mtl
o Copy_GroundClutter
v -0.295587 0.000830 -0.126470
v -0.295587 0.000830 -0.026471
v -0.095588 0.000830 -0.126470
v -0.095588 0.000830 -0.026471
v -0.195589 0.100829 -0.126470
v -0.195589 0.100829 -0.026471
v -0.395589 0.400830 -0.126469
v -0.395589 0.400830 -0.026471
v -0.395589 0.500831 -0.126469
v -0.395589 0.500831 -0.026471
v -0.295587 0.219581 -0.126469
v -0.295587 0.219581 -0.026471
v -0.195589 0.400830 -0.126469
v -0.195589 0.400830 -0.026471
v -0.295587 0.400830 -0.126469
v -0.295587 0.400830 -0.026471
v -0.295587 0.500831 -0.126469
v -0.295587 0.500831 -0.026471
v 0.004411 0.100829 -0.226471
v -0.095588 0.100829 -0.126470
v -0.095588 0.100829 -0.026471
v 0.004411 0.000830 -0.126470
v 0.004411 0.000830 -0.026471
v 0.004411 0.100829 -0.126470
v 0.004411 0.100829 -0.026471
v 0.104412 0.100829 -0.226471
v 0.104412 0.000830 -0.126470
v 0.104412 0.000830 -0.026471
v 0.104412 0.100829 -0.126470
v 0.104412 0.100829 -0.026471
v 0.304412 0.000830 -0.026471
v 0.204411 0.100829 -0.026471
v 0.004411 0.300828 -0.226471
v 0.004411 0.300828 -0.126469
v 0.104412 0.300828 -0.226471
v 0.104412 0.300828 -0.126469
v 0.204411 0.300828 -0.026471
v 0.304412 0.172706 -0.026471
v 0.304412 0.300828 -0.026471
v 0.404411 0.300828 -0.026471
v 0.304412 0.500831 -0.026471
v 0.404411 0.500831 -0.026471
v -0.095588 0.000830 0.073530
v -0.095588 0.000830 0.173529
v 0.004411 0.000830 0.073530
v 0.004411 0.000830 0.173529
v 0.104412 0.000830 0.073530
v 0.104412 0.100828 0.073530
v 0.204411 0.100828 0.073530
v -0.095588 0.300828 0.073530
v -0.095588 0.172706 0.173529
v -0.095588 0.300828 0.173529
v 0.004411 0.300828 0.073530
v 0.004411 0.172706 0.173529
v 0.004411 0.300828 0.173529
v -0.095588 0.300828 0.273530
v 0.004411 0.300828 0.273530
v -0.095588 0.400830 0.173529
v 0.004411 0.400830 0.173529
v -0.095588 0.400830 0.273530
v 0.004411 0.400830 0.273530
v 0.204411 0.300828 0.073530
v 0.304412 0.000830 0.073530
v 0.304412 0.172706 0.073530
v 0.304412 0.300828 0.073530
v 0.404411 0.300828 0.073530
v 0.304412 0.500831 0.073530
v 0.404411 0.500831 0.073530
vt 0.4669 0.4006
vt 0.5000 0.4587
vt 0.4669 0.4968
vt 0.5000 0.3814
vt 0.4669 0.3814
vt 0.5000 0.3233
vt 0.4669 0.2853
vt 0.5000 0.2532
vt 0.5000 0.5288
vt 0.6788 0.1378
vt 0.7119 0.1378
vt 0.7119 0.2019
vt 0.6258 0.6635
vt 0.6589 0.5994
vt 0.6589 0.6635
vt 0.7318 0.1378
vt 0.7649 0.2019
vt 0.7318 0.2019
vt 0.5331 0.0417
vt 0.5000 0.0647
vt 0.5000 0.0096
vt 0.6060 0.6955
vt 0.5728 0.6955
vt 0.6060 0.6314
vt 0.5662 0.1250
vt 0.5331 0.1570
vt 0.5000 0.1250
vt 0.5662 0.1801
vt 0.6391 0.0096
vt 0.6722 0.0737
vt 0.6391 0.0737
vt 0.7649 0.4006
vt 0.7318 0.4006
vt 0.7318 0.3365
vt 0.7649 0.3365
vt 0.9238 0.1378
vt 0.9238 0.1699
vt 0.8907 0.1699
vt 0.8907 0.1378
vt 0.4338 0.2532
vt 0.4338 0.5288
vt 0.6589 0.4840
vt 0.6589 0.5801
vt 0.6258 0.5801
vt 0.6258 0.4840
vt 0.2171 0.8494
vt 0.2171 0.8814
vt 0.1840 0.8814
vt 0.1840 0.8494
vt 0.4423 0.9840
vt 0.4092 0.9840
vt 0.4092 0.9519
vt 0.4423 0.9519
vt 0.5728 0.8686
vt 0.6060 0.8686
vt 0.6060 0.9006
vt 0.5728 0.9006
vt 0.8907 0.8878
vt 0.8907 0.8558
vt 0.9238 0.8558
vt 0.9238 0.8878
vt 0.7848 0.6827
vt 0.7848 0.6506
vt 0.8179 0.6506
vt 0.8179 0.6827
vt 0.2370 0.7981
vt 0.2701 0.7981
vt 0.2701 0.8301
vt 0.2370 0.8301
vt 0.5530 0.4327
vt 0.5530 0.4908
vt 0.5199 0.4908
vt 0.5199 0.4327
vt 0.5530 0.5609
vt 0.5199 0.5609
vt 0.5000 0.4006
vt 0.0430 0.9464
vt 0.0430 0.9785
vt 0.0099 0.9785
vt 0.0099 0.9464
vt 0.9768 0.5096
vt 0.9768 0.5417
vt 0.9437 0.5417
vt 0.9437 0.5096
vt 0.9768 0.4583
vt 0.9768 0.4904
vt 0.9437 0.4904
vt 0.9437 0.4583
vt 0.5662 0.0096
vt 0.5662 0.0417
vt 0.8907 0.8045
vt 0.9238 0.8045
vt 0.9238 0.8365
vt 0.8907 0.8365
vt 0.9238 0.2212
vt 0.8907 0.2212
vt 0.8907 0.1891
vt 0.9238 0.1891
vt 0.6589 0.8494
vt 0.6258 0.8494
vt 0.6258 0.8173
vt 0.6589 0.8173
vt 0.8510 0.0096
vt 0.8841 0.0096
vt 0.8841 0.0417
vt 0.8510 0.0417
vt 0.4423 0.7468
vt 0.4423 0.7788
vt 0.4092 0.7788
vt 0.4092 0.7468
vt 0.5530 0.7276
vt 0.5199 0.7276
vt 0.5199 0.6635
vt 0.5530 0.6635
vt 0.2171 0.7788
vt 0.1840 0.7788
vt 0.1840 0.7468
vt 0.2171 0.7468
vt 0.5331 0.1058
vt 0.5000 0.1058
vt 0.7649 0.1378
vt 0.0430 0.6900
vt 0.0099 0.6900
vt 0.0099 0.6259
vt 0.0430 0.6259
vt 0.6788 0.2019
vt 0.6258 0.5994
vt 0.8709 0.9583
vt 0.8709 0.9904
vt 0.8377 0.9904
vt 0.8377 0.9583
vt 0.2701 0.9519
vt 0.2701 0.9840
vt 0.2370 0.9840
vt 0.2370 0.9519
vt 0.5000 0.1570
vt 0.4621 0.5891
vt 0.4621 0.5481
vt 0.4953 0.5481
vt 0.2900 0.6442
vt 0.2900 0.6032
vt 0.3231 0.6442
vt 0.3429 0.6032
vt 0.3761 0.6032
vt 0.3761 0.6442
vt 0.3429 0.6442
vt 0.6788 0.9006
vt 0.6788 0.8686
vt 0.7119 0.8686
vt 0.7119 0.9006
vt 0.3231 0.9006
vt 0.3231 0.9327
vt 0.2900 0.9327
vt 0.2900 0.9006
vt 0.9238 0.3045
vt 0.9238 0.3365
vt 0.8907 0.3365
vt 0.8907 0.3045
vt 0.8709 0.9071
vt 0.8709 0.9391
vt 0.8377 0.9391
vt 0.8377 0.9071
vt 0.0430 0.7926
vt 0.0430 0.8246
vt 0.0099 0.8246
vt 0.0099 0.7926
vt 0.7119 0.7660
vt 0.7119 0.7981
vt 0.6788 0.7981
vt 0.6788 0.7660
vt 0.5662 0.2212
vt 0.5331 0.2212
vt 0.5728 0.6314
vt 0.4953 0.6442
vt 0.4621 0.6442
vt 0.3231 0.5481
vt 0.2900 0.5481
vt 0.4423 0.6442
vt 0.4092 0.6442
vt 0.4092 0.5481
vt 0.4423 0.5481
vt 0.3429 0.5481
vt 0.3761 0.5481
vt 0.8709 0.1378
vt 0.8709 0.1699
vt 0.8377 0.1699
vt 0.8377 0.1378
vt 0.0430 0.8439
vt 0.0430 0.8759
vt 0.0099 0.8759
vt 0.0099 0.8439
vt 0.3761 0.6635
vt 0.3761 0.7276
vt 0.3429 0.7276
vt 0.3429 0.6635
vt 0.6589 0.4237
vt 0.6589 0.4647
vt 0.6258 0.4647
vt 0.6258 0.4237
vt 0.2701 0.8494
vt 0.2701 0.8814
vt 0.2370 0.8814
vt 0.2370 0.8494
vt 0.5530 0.5801
vt 0.5530 0.6442
vt 0.5199 0.6442
vt 0.5199 0.5801
vt 0.8377 0.7340
vt 0.8377 0.7019
vt 0.8709 0.7019
vt 0.8709 0.7340
vt 0.6060 0.5481
vt 0.6060 0.6122
vt 0.5728 0.6122
vt 0.5728 0.5481
vt 0.6589 0.3686
vt 0.6258 0.3686
vt 0.7848 0.7340
vt 0.7848 0.7019
vt 0.8179 0.7019
vt 0.8179 0.7340
vt 0.6722 0.0096
vt 0.9238 0.5994
vt 0.9238 0.6314
vt 0.8907 0.6314
vt 0.8907 0.5994
vt 0.4338 0.2853
vt 0.4338 0.4968
vn 0.0000 -0.0000 1.0000
vn 0.0000 0.0000 -1.0000
vn -1.0000 0.0000 0.0000
vn 1.0000 -0.0000 0.0000
vn 0.0000 -1.0000 -0.0000
vn 0.0000 1.0000 0.0000
usemtl palette
s off
f 14/1/1 12/2/1 6/3/1
f 15/4/2 13/5/2 11/6/2
f 11/6/2 5/7/2 1/8/2
f 6/3/1 12/2/1 2/9/1
f 34/10/3 33/11/3 19/12/3
f 36/13/4 26/14/4 35/15/4
f 41/16/2 40/17/2 39/18/2
f 32/19/2 38/20/2 31/21/2
f 68/22/1 67/23/1 66/24/1
f 63/25/1 49/26/1 47/27/1
f 64/28/1 49/26/1 63/25/1
f 31/29/5 47/30/5 28/31/5
f 2/32/5 1/33/5 3/34/5 4/35/5
f 9/36/3 7/37/3 8/38/3 10/39/3
f 1/8/2 5/7/2 3/40/2
f 4/41/1 6/3/1 2/9/1
f 5/42/4 13/43/4 14/44/4 6/45/4
f 15/46/4 17/47/4 18/48/4 16/49/4
f 11/6/2 13/5/2 5/7/2
f 15/50/6 16/51/6 14/52/6 13/53/6
f 8/54/5 7/55/5 15/56/5 16/57/5
f 9/58/6 10/59/6 18/60/6 17/61/6
f 15/62/2 7/63/2 9/64/2 17/65/2
f 8/66/1 16/67/1 18/68/1 10/69/1
f 15/70/3 11/71/3 12/72/3 16/73/3
f 11/71/3 1/74/3 2/75/3 12/72/3
f 14/1/1 16/76/1 12/2/1
f 3/77/4 20/78/4 21/79/4 4/80/4
f 24/81/3 22/82/3 23/83/3 25/84/3
f 27/85/4 29/86/4 30/87/4 28/88/4
f 31/21/2 28/89/2 30/90/2 32/19/2
f 23/91/5 22/92/5 27/93/5 28/94/5
f 24/95/6 25/96/6 30/97/6 29/98/6
f 27/99/2 22/100/2 24/101/2 29/102/2
f 23/103/1 28/104/1 30/105/1 25/106/1
f 24/107/5 19/108/5 26/109/5 29/110/5
f 26/111/2 19/112/2 33/113/2 35/114/2
f 33/115/6 34/116/6 36/117/6 35/118/6
f 38/20/2 32/19/2 37/119/2 39/120/2
f 41/16/2 42/121/2 40/17/2
f 24/122/1 29/123/1 36/124/1 34/125/1
f 24/126/3 34/10/3 19/12/3
f 36/13/4 29/127/4 26/14/4
f 44/128/5 43/129/5 45/130/5 46/131/5
f 50/132/6 52/133/6 55/134/6 53/135/6
f 47/27/1 49/26/1 48/136/1
f 51/137/3 52/138/3 50/139/3
f 55/140/4 54/141/4 53/142/4
f 51/143/1 54/144/1 55/145/1 52/146/1
f 55/147/2 52/148/2 58/149/2 59/150/2
f 56/151/1 57/152/1 61/153/1 60/154/1
f 56/155/5 52/156/5 55/157/5 57/158/5
f 58/159/6 60/160/6 61/161/6 59/162/6
f 58/163/3 52/164/3 56/165/3 60/166/3
f 55/167/4 59/168/4 61/169/4 57/170/4
f 49/26/1 64/28/1 65/171/1 62/172/1
f 66/24/1 67/23/1 65/173/1
f 50/139/3 43/174/3 44/175/3 51/137/3
f 45/176/4 53/142/4 54/141/4 46/177/4
f 45/178/2 43/179/2 50/180/2 53/181/2
f 44/182/1 46/183/1 54/144/1 51/143/1
f 30/184/3 28/185/3 47/186/3 48/187/3
f 30/188/6 48/189/6 49/190/6 32/191/6
f 37/192/3 32/193/3 49/194/3 62/195/3
f 38/196/4 39/197/4 65/198/4 64/199/4
f 65/200/5 39/201/5 40/202/5 66/203/5
f 40/204/4 42/205/4 68/206/4 66/207/4
f 41/208/6 67/209/6 68/210/6 42/211/6
f 41/212/3 39/213/3 65/214/3 67/215/3
f 31/216/4 38/196/4 64/199/4 63/217/4
f 37/218/6 62/219/6 65/220/6 39/221/6
f 31/29/5 63/222/5 47/30/5
f 20/223/6 5/224/6 6/225/6 21/226/6
f 3/40/2 5/7/2 20/227/2
f 21/228/1 6/3/1 4/41/1
