# Blender v2.78 (sub 0) OBJ File: 'Temp.blend'
# www.blender.org
mtllib ClutterStone.mtl
o Copy.002_GroundClutter.003
v -0.341667 0.000595 -0.158332
v -0.341667 0.000595 -0.058334
v -0.341667 0.100594 -0.158332
v -0.341667 0.100594 -0.058334
v -0.141667 0.000595 -0.258334
v -0.141667 0.100594 -0.258334
v -0.141667 0.000596 -0.158332
v -0.241666 0.000595 -0.058334
v -0.141667 0.100594 -0.158332
v -0.241666 0.100594 -0.058334
v -0.141667 0.000595 0.141666
v -0.141667 0.100594 -0.058334
v -0.141667 0.200595 -0.058334
v 0.058333 0.000595 -0.258334
v 0.058333 0.100594 -0.258334
v 0.058333 0.000596 -0.158332
v 0.058333 0.100594 -0.158332
v 0.058333 0.100594 -0.058334
v 0.158334 0.000595 -0.058334
v 0.158334 0.000595 -0.158332
v 0.158334 0.100594 -0.158332
v 0.158334 0.100594 -0.058334
v 0.358334 0.000595 -0.058334
v 0.358334 0.100594 -0.058334
v 0.058333 0.200595 -0.058334
v -0.241666 0.000595 0.141666
v -0.241666 0.100594 0.141666
v -0.141667 0.100594 0.041668
v -0.141667 0.100594 0.141666
v -0.141667 0.000595 0.241667
v -0.141667 0.100594 0.241668
v -0.141667 0.200595 0.041668
v -0.041666 0.100594 0.041668
v -0.041666 0.100594 0.141666
v 0.158334 0.000595 0.141666
v 0.058333 0.100594 0.141666
v 0.158334 0.000595 0.241667
v 0.158334 0.100594 0.241668
v 0.258332 0.100594 0.041668
v 0.158334 0.100594 0.141666
v 0.258332 0.000596 0.041668
v 0.258332 0.000595 0.141666
v 0.258332 0.100594 0.141666
v -0.041666 0.200595 0.041668
v -0.041666 0.200595 0.141666
v 0.058333 0.200595 0.141666
v 0.358334 0.000595 0.041668
v 0.358334 0.100594 0.041668
vt 0.3278 0.0737
vt 0.2285 0.0737
vt 0.2947 0.0417
vt 0.1093 0.1699
vt 0.1424 0.1699
vt 0.1093 0.2019
vt 0.3278 0.1699
vt 0.2947 0.1699
vt 0.3278 0.1378
vt 0.2285 0.0417
vt 0.0430 0.0417
vt 0.0762 0.0417
vt 0.0430 0.0737
vt 0.0099 0.0737
vt 0.0430 0.1058
vt 0.0099 0.1699
vt 0.0430 0.1378
vt 0.0430 0.1699
vt 0.1093 0.0096
vt 0.1093 0.0737
vt 0.2947 0.2340
vt 0.2616 0.2340
vt 0.2616 0.2019
vt 0.0762 0.0096
vt 0.2947 0.0096
vt 0.3278 0.0096
vt 0.1424 0.2340
vt 0.1093 0.2340
vt 0.6788 0.6635
vt 0.6788 0.5994
vt 0.7119 0.5994
vt 0.7119 0.6635
vt 0.8841 0.0609
vt 0.8841 0.0929
vt 0.8510 0.0929
vt 0.8510 0.0609
vt 0.3761 0.8494
vt 0.3761 0.8814
vt 0.3429 0.8814
vt 0.3429 0.8494
vt 0.9570 0.0096
vt 0.9901 0.0096
vt 0.9901 0.0417
vt 0.9570 0.0417
vt 0.6788 0.6827
vt 0.7119 0.6827
vt 0.7119 0.7468
vt 0.6788 0.7468
vt 0.1424 0.1058
vt 0.1093 0.1058
vt 0.1424 0.0737
vt 0.3761 0.9006
vt 0.3761 0.9327
vt 0.3429 0.9327
vt 0.3429 0.9006
vt 0.8377 0.4583
vt 0.8709 0.4583
vt 0.8709 0.4904
vt 0.8377 0.4904
vt 0.7318 0.4840
vt 0.7318 0.4199
vt 0.7649 0.4199
vt 0.7649 0.4840
vt 0.3609 0.0737
vt 0.3609 0.1378
vt 0.1755 0.1058
vt 0.1755 0.1699
vt 0.2701 0.6635
vt 0.2701 0.7276
vt 0.2370 0.7276
vt 0.2370 0.6635
vt 0.7649 0.6635
vt 0.7318 0.6635
vt 0.7318 0.5994
vt 0.7649 0.5994
vt 0.0762 0.1699
vt 0.0430 0.2019
vt 0.9437 0.4391
vt 0.9437 0.4071
vt 0.9768 0.4071
vt 0.9768 0.4391
vt 0.8907 0.7019
vt 0.9238 0.7019
vt 0.9238 0.7340
vt 0.8907 0.7340
vt 0.5728 0.5288
vt 0.5728 0.4327
vt 0.6060 0.4327
vt 0.6060 0.5288
vt 0.2285 0.1699
vt 0.5530 0.9519
vt 0.5530 0.9840
vt 0.5199 0.9840
vt 0.5199 0.9519
vt 0.2285 0.2019
vt 0.1840 0.9840
vt 0.1840 0.9519
vt 0.2171 0.9519
vt 0.2171 0.9840
vt 0.1954 0.0737
vt 0.1954 0.1699
vt 0.9238 0.6506
vt 0.9238 0.6827
vt 0.8907 0.6827
vt 0.8907 0.6506
vt 0.0430 0.5746
vt 0.0430 0.5426
vt 0.0762 0.5426
vt 0.0762 0.6067
vt 0.0762 0.1378
vt 0.9768 0.1891
vt 0.9768 0.2212
vt 0.9437 0.2212
vt 0.9437 0.1891
vt 0.6788 0.3686
vt 0.7119 0.3686
vt 0.7119 0.4327
vt 0.6788 0.4327
vt 0.9768 0.8365
vt 0.9437 0.8365
vt 0.9437 0.8045
vt 0.9768 0.8045
vt 0.8311 0.0417
vt 0.7980 0.0417
vt 0.7980 0.0096
vt 0.8311 0.0096
vt 0.8179 0.1378
vt 0.8179 0.1699
vt 0.7848 0.1699
vt 0.7848 0.1378
vt 0.0099 0.6067
vt 0.0099 0.5746
vt 0.9768 0.3558
vt 0.9768 0.3878
vt 0.9437 0.3878
vt 0.9437 0.3558
vt 0.8179 0.8045
vt 0.8179 0.8365
vt 0.7848 0.8365
vt 0.7848 0.8045
vt 0.4092 0.8814
vt 0.4092 0.8494
vt 0.4423 0.8494
vt 0.4423 0.8814
vn 0.0000 -1.0000 -0.0000
vn 0.0000 1.0000 0.0000
vn 0.0000 0.0000 -1.0000
vn 0.0000 -0.0000 1.0000
vn -1.0000 -0.0000 0.0000
vn 1.0000 0.0000 0.0000
usemtl palette
s off
f 7/1/1 11/2/1 8/3/1
f 12/4/2 9/5/2 10/6/2
f 20/7/1 19/8/1 16/9/1
f 16/9/1 11/2/1 7/1/1
f 8/3/1 11/2/1 26/10/1
f 43/11/2 39/12/2 40/13/2
f 38/14/2 40/13/2 36/15/2
f 31/16/2 34/17/2 29/18/2
f 39/12/2 24/19/2 22/20/2
f 23/21/1 47/22/1 41/23/1
f 48/24/2 24/19/2 39/12/2
f 8/3/1 2/25/1 1/26/1 7/1/1
f 3/27/2 4/28/2 10/6/2 9/5/2
f 7/29/3 1/30/3 3/31/3 9/32/3
f 4/33/4 2/34/4 8/35/4 10/36/4
f 6/37/5 5/38/5 7/39/5 9/40/5
f 19/41/6 20/42/6 21/43/6 22/44/6
f 16/9/1 19/8/1 11/2/1
f 24/45/3 23/46/3 19/47/3 22/48/3
f 17/49/2 18/50/2 22/20/2 21/51/2
f 21/52/3 20/53/3 16/54/3 17/55/3
f 16/56/6 14/57/6 15/58/6 17/59/6
f 14/60/3 5/61/3 6/62/3 15/63/3
f 17/49/2 9/5/2 12/4/2 18/50/2
f 7/1/1 5/64/1 14/65/1 16/9/1
f 15/66/2 6/67/2 9/5/2 17/49/2
f 18/68/3 12/69/3 13/70/3 25/71/3
f 10/72/5 8/73/5 26/74/5 27/75/5
f 28/76/2 10/6/2 27/77/2 29/18/2
f 27/78/4 26/79/4 11/80/4 29/81/4
f 31/82/5 29/83/5 11/84/5 30/85/5
f 30/86/4 37/87/4 38/88/4 31/89/4
f 19/8/1 35/90/1 11/2/1
f 41/91/6 39/92/6 43/93/6 42/94/6
f 42/95/1 35/90/1 19/8/1 41/23/1
f 35/96/4 42/97/4 43/98/4 40/99/4
f 18/50/2 36/15/2 40/13/2 39/12/2
f 30/100/1 11/2/1 35/90/1 37/101/1
f 36/15/2 34/17/2 31/16/2 38/14/2
f 35/102/6 40/103/6 38/104/6 37/105/6
f 44/106/2 45/107/2 46/108/2 25/109/2
f 28/76/2 29/18/2 34/17/2 33/110/2
f 44/111/5 33/112/5 34/113/5 45/114/5
f 18/115/6 25/116/6 46/117/6 36/118/6
f 34/119/4 36/120/4 46/121/4 45/122/4
f 28/123/4 33/124/4 44/125/4 32/126/4
f 13/127/5 12/128/5 28/129/5 32/130/5
f 10/6/2 28/76/2 12/4/2
f 23/21/1 41/23/1 19/8/1
f 18/50/2 39/12/2 22/20/2
f 13/131/2 32/132/2 44/106/2 25/109/2
f 3/133/5 1/134/5 2/135/5 4/136/5
f 23/137/6 24/138/6 48/139/6 47/140/6
f 41/141/4 47/142/4 48/143/4 39/144/4
