# Blender v2.78 (sub 0) OBJ File: ''
# www.blender.org
mtllib DuckTargetCleaned.mtl
o Copy_DuckTargets
v -0.451164 -0.467441 -0.131007
v -0.451164 -0.467442 0.068993
v -0.551163 -0.267441 -0.131007
v -0.551163 -0.267441 0.068993
v -0.651164 -0.167442 -0.131007
v -0.651164 -0.167442 0.068993
v -0.651164 0.032558 0.068993
v -0.551163 -0.167442 0.068993
v -0.451164 -0.267441 0.068993
v -0.551163 -0.167442 -0.131007
v -0.451164 -0.267441 -0.131007
v -0.151163 -0.767442 -0.131007
v -0.151163 -0.767442 -0.031008
v -0.151163 -0.467441 -0.131007
v -0.151163 -0.467442 -0.031008
v 0.048837 -0.767442 -0.131007
v 0.048837 -0.767442 -0.031008
v 0.048837 -0.467442 -0.031008
v -0.451164 -0.267441 0.168992
v -0.351163 -0.367442 0.068993
v -0.351163 -0.367442 0.168992
v -0.351163 -0.267441 0.068993
v -0.351163 -0.267441 0.168992
v -0.451164 -0.167442 0.068993
v -0.451164 -0.167442 0.168992
v -0.351163 -0.167442 0.068993
v -0.351163 -0.167442 0.168992
v -0.351163 -0.067441 0.068993
v -0.351163 -0.067441 0.168992
v 0.448836 -0.467442 0.068993
v 0.148837 -0.367442 0.068993
v 0.148837 -0.367442 0.168992
v 0.148837 -0.267441 0.168992
v -0.251164 -0.067441 0.068993
v -0.251164 -0.067441 0.168992
v -0.651164 0.032558 -0.131007
v -0.251164 0.032558 -0.131007
v -0.151163 0.132557 -0.131007
v -0.251164 0.132557 -0.131007
v -0.251164 0.132557 0.068993
v -0.151163 0.132557 0.068993
v -0.151163 0.532558 0.068993
v -0.051163 0.532558 -0.131007
v -0.151163 0.532558 -0.131007
v -0.051163 0.532558 0.068993
v -0.051163 0.632559 -0.131007
v -0.051163 0.632559 0.068993
v -0.251164 0.032558 0.068993
v -0.251164 0.032558 0.168992
v 0.048837 -0.467441 -0.131007
v 0.448836 -0.467441 -0.131007
v 0.448836 0.132557 -0.131007
v 0.148837 -0.267441 0.068993
v 0.248836 -0.267441 0.068993
v 0.248836 -0.267441 0.168992
v 0.248836 0.032558 0.068993
v 0.248836 0.032558 0.168992
v 0.448836 0.132557 0.068993
v 0.348837 0.532558 -0.131007
v 0.348837 0.632559 -0.131007
v 0.348837 0.532558 0.068993
v 0.348837 0.632559 0.068993
v 0.648836 0.132557 -0.131007
v 0.648836 0.132557 0.068993
v 0.648836 0.232558 -0.131007
v 0.648836 0.232558 0.068993
v 0.748837 0.232558 -0.131007
v 0.748837 0.232558 0.068993
v 0.448836 0.432558 0.068993
v 0.448836 0.432558 -0.131007
v 0.748837 0.432558 0.068993
v 0.448836 0.532558 -0.131007
v 0.448836 0.532558 0.068993
v 0.748837 0.432558 -0.131007
vt 0.7468 0.6515
vt 0.7071 0.6515
vt 0.6674 0.5366
vt 0.2926 0.4990
vt 0.3487 0.4448
vt 0.3768 0.5802
vt 0.8738 0.8659
vt 0.9135 0.7510
vt 0.9135 0.8659
vt 0.8849 0.2260
vt 0.9246 0.2260
vt 0.9246 0.3409
vt 0.7468 0.5366
vt 0.0961 0.5261
vt 0.1522 0.5261
vt 0.0913 0.6415
vt 0.0516 0.6798
vt 0.0516 0.6415
vt 0.5245 0.6132
vt 0.5642 0.5749
vt 0.6039 0.7664
vt 0.6242 0.3970
vt 0.8332 0.5136
vt 0.4987 0.3925
vt 0.0400 0.2011
vt 0.2926 0.1740
vt 0.1242 0.3365
vt 0.1242 0.3907
vt 0.0961 0.3636
vt 0.1548 0.6032
vt 0.2342 0.6032
vt 0.2342 0.7564
vt 0.0119 0.2282
vt 0.3612 0.6032
vt 0.4406 0.6032
vt 0.3612 0.7564
vt 0.1310 0.6032
vt 0.0516 0.7181
vt 0.4848 0.6132
vt 0.0913 0.6032
vt 0.7468 0.8813
vt 0.6674 0.8813
vt 0.7468 0.7281
vt 0.7706 0.5366
vt 0.8500 0.5366
vt 0.8500 0.7664
vt 0.4848 0.8047
vt 0.6039 0.8047
vt 0.3374 0.6032
vt 0.3374 0.7564
vt 0.2580 0.7564
vt 0.1522 0.0927
vt 0.2084 0.0927
vt 0.3206 0.0927
vt 0.8239 0.1011
vt 0.8053 0.2580
vt 0.6427 0.2401
vt 0.6242 0.0698
vt 0.5823 0.1774
vt 0.4848 0.9042
vt 0.4848 0.8276
vt 0.5642 0.8276
vt 0.0119 0.4990
vt 0.0680 0.5532
vt 0.9373 0.6361
vt 0.9770 0.6361
vt 0.9770 0.7127
vt 0.9373 0.7127
vt 0.7706 0.7664
vt 0.2580 0.6032
vt 0.5642 0.9042
vt 0.8500 0.7893
vt 0.8500 0.8659
vt 0.7706 0.8659
vt 0.7706 0.7893
vt 0.9881 0.4864
vt 0.9484 0.4864
vt 0.9484 0.4098
vt 0.9881 0.4098
vt 0.1548 0.9556
vt 0.1548 0.8790
vt 0.1945 0.8790
vt 0.1945 0.9556
vt 0.4009 0.9556
vt 0.3612 0.9556
vt 0.3612 0.8790
vt 0.4009 0.8790
vt 0.1242 0.5532
vt 0.8738 0.7510
vt 0.2580 0.8943
vt 0.2580 0.7794
vt 0.3374 0.7794
vt 0.3374 0.8943
vt 0.8849 0.3409
vt 0.9135 0.8889
vt 0.9135 0.9272
vt 0.8738 0.9272
vt 0.8738 0.8889
vt 0.4329 0.5261
vt 0.2084 0.5802
vt 0.2977 0.9173
vt 0.2977 0.9556
vt 0.2580 0.9556
vt 0.2580 0.9173
vt 0.8611 0.4418
vt 0.8100 0.4643
vt 0.8239 0.4284
vt 0.1151 0.9173
vt 0.1151 0.9556
vt 0.0754 0.9556
vt 0.0754 0.9173
vt 0.0516 0.9556
vt 0.0119 0.9556
vt 0.0119 0.9173
vt 0.0516 0.9173
vt 0.9770 0.9349
vt 0.9770 0.9732
vt 0.9373 0.9732
vt 0.9373 0.9349
vt 0.6039 0.5366
vt 0.6039 0.5749
vt 0.5642 0.5366
vt 0.0119 0.7181
vt 0.0119 0.6798
vt 0.9135 0.7281
vt 0.8738 0.7281
vt 0.8738 0.5366
vt 0.9135 0.5366
vt 0.6436 0.5749
vt 0.6436 0.7664
vt 0.5245 0.9655
vt 0.4848 0.9655
vt 0.4848 0.9272
vt 0.5245 0.9272
vt 0.9373 0.6132
vt 0.9373 0.5366
vt 0.9770 0.5366
vt 0.9770 0.6132
vt 0.5245 0.5749
vt 0.4406 0.7564
vt 0.1548 0.7564
vt 0.9484 0.2107
vt 0.9881 0.2107
vt 0.9881 0.2873
vt 0.9484 0.2873
vt 0.9373 0.8353
vt 0.9770 0.8353
vt 0.9770 0.9119
vt 0.9373 0.9119
vt 0.9484 0.3868
vt 0.9484 0.3102
vt 0.9881 0.3102
vt 0.9881 0.3868
vt 0.9135 0.9502
vt 0.9135 0.9885
vt 0.8738 0.9885
vt 0.8738 0.9502
vt 0.1310 0.7564
vt 0.6674 0.9042
vt 0.7071 0.9042
vt 0.7071 0.9425
vt 0.6674 0.9425
vt 0.8286 0.3074
vt 0.8425 0.2715
vt 0.8611 0.1146
vt 0.7071 0.7281
vt 0.4610 0.3365
vt 0.9246 0.3639
vt 0.9246 0.4788
vt 0.8849 0.4788
vt 0.8849 0.3639
vt 0.5880 0.9272
vt 0.5880 0.9655
vt 0.5483 0.9655
vt 0.5483 0.9272
vt 0.6009 0.3477
vt 0.6381 0.3612
vt 0.9373 0.8123
vt 0.9373 0.7357
vt 0.9770 0.7357
vt 0.9770 0.8123
vt 0.0119 0.1740
vt 0.1242 0.0657
vt 0.1548 0.7794
vt 0.2342 0.7794
vt 0.2342 0.8560
vt 0.1548 0.8560
vt 0.5880 0.8276
vt 0.6277 0.8276
vt 0.6277 0.9042
vt 0.5880 0.9042
vt 0.3487 0.1198
vt 0.9881 0.0115
vt 0.9881 0.0881
vt 0.9484 0.0881
vt 0.9484 0.0115
vt 0.9484 0.1877
vt 0.9484 0.1111
vt 0.9881 0.1111
vt 0.9881 0.1877
vt 0.0119 0.8943
vt 0.0119 0.7794
vt 0.0913 0.8943
vt 0.0913 0.7794
vt 0.2926 0.0115
vt 0.8103 0.9655
vt 0.7706 0.9655
vt 0.7706 0.8889
vt 0.8103 0.8889
vt 0.4406 0.7794
vt 0.4406 0.8560
vt 0.3612 0.8560
vt 0.3612 0.7794
vt 0.1803 0.0657
vt 0.8849 0.0115
vt 0.9246 0.0115
vt 0.9246 0.2030
vt 0.8849 0.2030
vt 0.3487 0.0657
vt 0.6753 0.0474
vt 0.6892 0.0115
vt 0.8379 0.0653
vt 0.5080 0.1505
vt 0.5220 0.1146
vt 0.5127 0.0294
vt 0.6381 0.0339
vt 0.4848 0.1011
vt 0.0516 0.7564
vn -0.0000 -1.0000 0.0000
vn 0.0000 0.0000 -1.0000
vn -1.0000 0.0000 0.0000
vn 1.0000 0.0000 0.0000
vn 0.0000 -0.0000 1.0000
vn 0.0000 1.0000 0.0000
usemtl palette
s off
f 14/1/1 15/2/1 2/3/1
f 14/4/2 50/5/2 12/6/2
f 13/7/3 14/8/3 12/9/3
f 17/10/4 16/11/4 50/12/4
f 14/1/1 2/3/1 1/13/1
f 10/14/2 14/4/2 11/15/2
f 28/16/5 24/17/5 26/18/5
f 35/19/5 27/20/5 33/21/5
f 31/22/5 2/23/5 30/24/5
f 43/25/2 52/26/2 38/27/2
f 38/27/2 50/5/2 37/28/2
f 39/29/2 38/27/2 37/28/2
f 42/30/3 44/31/3 38/32/3
f 44/33/2 43/25/2 38/27/2
f 48/34/6 37/35/6 7/36/6
f 48/37/5 8/38/5 28/16/5
f 49/39/5 35/19/5 33/21/5
f 48/37/5 28/16/5 34/40/5
f 51/41/1 30/42/1 50/43/1
f 30/44/4 51/45/4 52/46/4
f 57/47/5 33/21/5 55/48/5
f 60/49/6 46/50/6 47/51/6
f 59/52/2 70/53/2 52/26/2
f 70/53/2 65/54/2 52/26/2
f 45/55/5 41/56/5 56/57/5
f 69/58/5 56/57/5 58/59/5
f 7/60/3 36/61/3 5/62/3
f 36/63/2 10/14/2 5/64/2
f 37/28/2 50/5/2 10/14/2
f 8/65/1 6/66/1 5/67/1 10/68/1
f 58/69/4 30/44/4 52/46/4
f 62/70/6 60/49/6 47/51/6
f 6/71/3 7/60/3 5/62/3
f 9/72/3 11/73/3 1/74/3 2/75/3
f 9/76/1 4/77/1 3/78/1 11/79/1
f 8/80/3 10/81/3 3/82/3 4/83/3
f 13/84/1 12/85/1 16/86/1 17/87/1
f 3/88/2 10/14/2 11/15/2
f 14/8/3 13/7/3 15/89/3
f 15/90/5 13/91/5 17/92/5 18/93/5
f 18/94/4 17/10/4 50/12/4
f 22/95/3 20/96/3 21/97/3 23/98/3
f 12/6/2 50/5/2 16/99/2
f 10/14/2 50/5/2 14/4/2
f 11/15/2 14/4/2 1/100/2
f 19/101/1 9/102/1 22/103/1 23/104/1
f 9/105/5 2/23/5 20/106/5 22/107/5
f 28/108/3 26/109/3 27/110/3 29/111/3
f 24/112/6 25/113/6 27/114/6 26/115/6
f 24/116/3 9/117/3 19/118/3 25/119/3
f 19/120/5 23/121/5 27/20/5 25/122/5
f 4/123/5 9/124/5 24/17/5 8/38/5
f 21/125/1 20/126/1 31/127/1 32/128/1
f 21/129/5 32/130/5 33/21/5 23/121/5
f 28/131/6 29/132/6 35/133/6 34/134/6
f 33/21/5 27/20/5 23/121/5
f 39/135/6 40/136/6 41/137/6 38/138/6
f 35/19/5 29/139/5 27/20/5
f 31/22/5 20/106/5 2/23/5
f 7/36/6 37/35/6 36/140/6
f 36/63/2 37/28/2 10/14/2
f 41/141/3 42/30/3 38/32/3
f 39/142/3 37/143/3 48/144/3 40/145/3
f 38/27/2 52/26/2 50/5/2
f 46/146/3 43/147/3 45/148/3 47/149/3
f 44/150/6 42/151/6 45/152/6 43/153/6
f 48/154/3 34/155/3 35/156/3 49/157/3
f 48/37/5 7/158/5 8/38/5
f 31/159/4 53/160/4 33/161/4 32/162/4
f 48/163/5 41/56/5 40/164/5
f 45/55/5 42/165/5 41/56/5
f 50/43/1 30/42/1 18/166/1
f 50/5/2 52/26/2 51/167/2
f 54/168/4 56/169/4 57/170/4 55/171/4
f 33/172/1 53/173/1 54/174/1 55/175/1
f 31/22/5 30/24/5 54/176/5 53/177/5
f 61/178/4 59/179/4 60/180/4 62/181/4
f 58/59/5 54/176/5 30/24/5
f 58/59/5 56/57/5 54/176/5
f 59/52/2 43/25/2 46/182/2 60/183/2
f 43/25/2 59/52/2 52/26/2
f 58/184/1 52/185/1 63/186/1 64/187/1
f 63/188/4 65/189/4 66/190/4 64/191/4
f 52/26/2 65/54/2 63/192/2
f 66/193/1 65/194/1 67/195/1 68/196/1
f 69/197/4 70/198/4 72/199/4 73/200/4
f 69/201/6 71/202/6 70/203/6
f 71/202/6 74/204/6 70/203/6
f 70/53/2 74/205/2 65/54/2
f 72/206/6 59/207/6 61/208/6 73/209/6
f 67/210/4 74/211/4 71/212/4 68/213/4
f 70/53/2 59/52/2 72/214/2
f 48/215/6 49/216/6 57/217/6 56/218/6
f 65/54/2 74/205/2 67/219/2
f 45/55/5 61/220/5 62/221/5 47/222/5
f 57/47/5 49/39/5 33/21/5
f 56/57/5 41/56/5 48/163/5
f 69/58/5 61/220/5 56/57/5
f 61/220/5 45/55/5 56/57/5
f 30/42/1 2/3/1 15/2/1 18/166/1
f 64/223/5 66/224/5 58/59/5
f 71/225/5 69/58/5 66/224/5
f 73/226/5 61/220/5 69/58/5
f 66/224/5 69/58/5 58/59/5
f 68/227/5 71/225/5 66/224/5
f 8/38/5 7/158/5 6/228/5
f 28/16/5 8/38/5 24/17/5
