# Blender v2.78 (sub 0) OBJ File: ''
# www.blender.org
mtllib grenade.mtl
o grenade
v -0.200000 -0.192310 0.099999
v -0.200000 -0.292309 -0.100001
v -0.200000 -0.292310 0.099999
v -0.200000 -0.192310 -0.100001
v -0.200000 0.407690 0.099999
v -0.200000 -0.092309 -0.100001
v -0.200000 -0.092309 0.099999
v -0.200000 0.407691 -0.100001
v -0.100000 -0.192310 0.199999
v -0.100000 -0.292310 0.099999
v -0.100000 -0.292310 0.199999
v -0.100000 -0.192310 0.099999
v -0.100000 -0.192310 -0.100001
v -0.100000 -0.292309 -0.200001
v -0.100000 -0.292309 -0.100001
v -0.100000 -0.192310 -0.200001
v -0.100000 -0.092309 0.099999
v -0.100000 -0.092309 -0.100001
v -0.100000 0.407690 0.199999
v -0.100000 -0.092310 0.199999
v -0.100000 0.407690 0.099999
v -0.100000 0.407691 -0.100001
v -0.100000 -0.092309 -0.200001
v -0.100000 0.407691 -0.200001
v -0.100000 0.507690 0.099999
v -0.100000 0.507690 -0.100001
v 0.100000 -0.292310 0.199999
v 0.100000 -0.292310 0.099999
v 0.100000 -0.192310 0.199999
v 0.100000 -0.192310 0.099999
v 0.100000 -0.292309 -0.100001
v 0.100000 -0.292309 -0.200001
v 0.100000 -0.192310 -0.100001
v 0.100000 -0.192310 -0.200001
v 0.100000 -0.092309 0.099999
v 0.100000 -0.092309 -0.100001
v 0.100000 -0.092310 0.199999
v 0.100000 0.407690 0.199999
v 0.100000 0.407690 0.099999
v 0.100000 -0.092309 -0.200001
v 0.100000 0.407691 -0.100001
v 0.100000 0.407691 -0.200001
v 0.100000 0.507690 0.099999
v 0.100000 0.507690 -0.100001
v 0.200000 -0.292310 0.099999
v 0.200000 -0.292309 -0.100001
v 0.200000 -0.192310 0.099999
v 0.200000 -0.192310 -0.100001
v 0.200000 -0.092309 0.099999
v 0.200000 -0.092309 -0.100001
v 0.200000 0.407690 0.099999
v 0.200000 0.407691 -0.100001
v 0.100000 -0.292310 0.199999
v -0.100000 -0.192310 0.199999
v -0.100000 -0.292310 0.199999
v 0.100000 -0.192310 0.199999
v 0.100000 -0.092310 0.199999
v -0.100000 0.407690 0.199999
v -0.100000 -0.092310 0.199999
v 0.100000 0.407690 0.199999
v -0.100000 -0.292310 0.099999
v -0.200000 -0.192310 0.099999
v -0.200000 -0.292310 0.099999
v -0.100000 -0.192310 0.099999
v -0.100000 -0.092309 0.099999
v -0.200000 0.407690 0.099999
v -0.200000 -0.092309 0.099999
v -0.100000 0.407690 0.099999
v 0.100000 -0.192310 0.099999
v 0.100000 -0.092309 0.099999
v 0.100000 0.407690 0.099999
v -0.100000 0.507690 0.099999
v 0.100000 0.507690 0.099999
v 0.200000 -0.292310 0.099999
v 0.100000 -0.292310 0.099999
v 0.200000 -0.192310 0.099999
v 0.200000 -0.092309 0.099999
v 0.200000 0.407690 0.099999
v -0.200000 -0.292309 -0.100001
v -0.200000 -0.192310 -0.100001
v -0.100000 -0.292309 -0.100001
v -0.100000 -0.192310 -0.100001
v -0.200000 -0.092309 -0.100001
v -0.200000 0.407691 -0.100001
v -0.100000 -0.092309 -0.100001
v -0.100000 0.407691 -0.100001
v 0.100000 -0.192310 -0.100001
v 0.100000 -0.092309 -0.100001
v -0.100000 0.507690 -0.100001
v 0.100000 0.407691 -0.100001
v 0.100000 0.507690 -0.100001
v 0.100000 -0.292309 -0.100001
v 0.200000 -0.292309 -0.100001
v 0.200000 -0.192310 -0.100001
v 0.200000 -0.092309 -0.100001
v 0.200000 0.407691 -0.100001
v -0.100000 -0.292309 -0.200001
v -0.100000 -0.192310 -0.200001
v 0.100000 -0.292309 -0.200001
v 0.100000 -0.192310 -0.200001
v -0.100000 -0.092309 -0.200001
v -0.100000 0.407691 -0.200001
v 0.100000 -0.092309 -0.200001
v 0.100000 0.407691 -0.200001
v -0.100000 -0.292310 0.099999
v 0.100000 -0.292310 0.199999
v -0.100000 -0.292310 0.199999
v 0.100000 -0.292310 0.099999
v -0.200000 -0.292309 -0.100001
v -0.200000 -0.292310 0.099999
v 0.200000 -0.292310 0.099999
v -0.100000 -0.292309 -0.100001
v 0.100000 -0.292309 -0.100001
v 0.200000 -0.292309 -0.100001
v -0.100000 -0.292309 -0.200001
v 0.100000 -0.292309 -0.200001
v -0.100000 -0.092309 0.099999
v 0.100000 -0.092310 0.199999
v -0.100000 -0.092310 0.199999
v 0.100000 -0.092309 0.099999
v -0.200000 -0.092309 -0.100001
v -0.200000 -0.092309 0.099999
v -0.100000 -0.092309 -0.100001
v 0.100000 -0.092309 -0.100001
v 0.200000 -0.092309 0.099999
v 0.200000 -0.092309 -0.100001
v -0.100000 -0.092309 -0.200001
v 0.100000 -0.092309 -0.200001
v -0.100000 -0.192310 0.199999
v 0.100000 -0.192310 0.199999
v -0.100000 -0.192310 0.099999
v 0.100000 -0.192310 0.099999
v -0.200000 -0.192310 0.099999
v -0.200000 -0.192310 -0.100001
v -0.100000 -0.192310 -0.100001
v 0.200000 -0.192310 0.099999
v 0.100000 -0.192310 -0.100001
v 0.200000 -0.192310 -0.100001
v -0.100000 -0.192310 -0.200001
v 0.100000 -0.192310 -0.200001
v -0.100000 0.407690 0.199999
v 0.100000 0.407690 0.199999
v -0.100000 0.407690 0.099999
v 0.100000 0.407690 0.099999
v -0.200000 0.407690 0.099999
v -0.200000 0.407691 -0.100001
v -0.100000 0.407691 -0.100001
v 0.200000 0.407690 0.099999
v 0.100000 0.407691 -0.100001
v 0.200000 0.407691 -0.100001
v -0.100000 0.407691 -0.200001
v 0.100000 0.407691 -0.200001
v -0.100000 0.507690 0.099999
v 0.100000 0.507690 0.099999
v -0.100000 0.507690 -0.100001
v 0.100000 0.507690 -0.100001
vt 0.9902 0.5000
vt 0.9902 0.5000
vt 0.9902 0.5000
vt 0.9902 0.5000
vt 0.9902 0.5000
vt 0.9902 0.5000
vt 0.9902 0.5000
vt 0.9902 0.5000
vt 0.9902 0.5000
vt 0.9902 0.5000
vt 0.9902 0.5000
vt 0.9902 0.5000
vt 0.9902 0.5000
vt 0.9902 0.5000
vt 0.9902 0.5000
vt 0.9902 0.5000
vt 0.0215 0.5000
vt 0.0215 0.5000
vt 0.0215 0.5000
vt 0.0215 0.5000
vt 0.9902 0.5000
vt 0.9902 0.5000
vt 0.9902 0.5000
vt 0.9902 0.5000
vt 0.9902 0.5000
vt 0.9902 0.5000
vt 0.9902 0.5000
vt 0.9902 0.5000
vt 0.9902 0.5000
vt 0.9902 0.5000
vt 0.9902 0.5000
vt 0.9902 0.5000
vt 0.9902 0.5000
vt 0.9902 0.5000
vt 0.9902 0.5000
vt 0.9902 0.5000
vt 0.9902 0.5000
vt 0.9902 0.5000
vt 0.0215 0.5000
vt 0.0215 0.5000
vt 0.0215 0.5000
vt 0.0215 0.5000
vt 0.9902 0.5000
vt 0.9902 0.5000
vt 0.9902 0.5000
vt 0.9902 0.5000
vt 0.9902 0.5000
vt 0.9902 0.5000
vt 0.9902 0.5000
vt 0.9902 0.5000
vt 0.9902 0.5000
vt 0.9902 0.5000
vt 0.9902 0.5000
vt 0.9902 0.5000
vt 0.9902 0.5000
vt 0.9902 0.5000
vt 0.9902 0.5000
vt 0.9902 0.5000
vt 0.9902 0.5000
vt 0.9902 0.5000
vt 0.9902 0.5000
vt 0.9902 0.5000
vt 0.9902 0.5000
vt 0.9902 0.5000
vt 0.9902 0.5000
vt 0.9902 0.5000
vt 0.9902 0.5000
vt 0.9902 0.5000
vt 0.9902 0.5000
vt 0.9902 0.5000
vt 0.9902 0.5000
vt 0.9902 0.5000
vt 0.9902 0.5000
vt 0.9902 0.5000
vt 0.9902 0.5000
vt 0.9902 0.5000
vt 0.0215 0.5000
vt 0.0215 0.5000
vt 0.0215 0.5000
vt 0.0215 0.5000
vt 0.9902 0.5000
vt 0.9902 0.5000
vt 0.9902 0.5000
vt 0.9902 0.5000
vt 0.9902 0.5000
vt 0.9902 0.5000
vt 0.9902 0.5000
vt 0.9902 0.5000
vt 0.9902 0.5000
vt 0.9902 0.5000
vt 0.9902 0.5000
vt 0.9902 0.5000
vt 0.9902 0.5000
vt 0.9902 0.5000
vt 0.9902 0.5000
vt 0.9902 0.5000
vt 0.9902 0.5000
vt 0.9902 0.5000
vt 0.0215 0.5000
vt 0.0215 0.5000
vt 0.0215 0.5000
vt 0.0215 0.5000
vt 0.9902 0.5000
vt 0.9902 0.5000
vt 0.9902 0.5000
vt 0.9902 0.5000
vt 0.9902 0.5000
vt 0.9902 0.5000
vt 0.9902 0.5000
vt 0.9902 0.5000
vt 0.9902 0.5000
vt 0.9902 0.5000
vt 0.9902 0.5000
vt 0.9902 0.5000
vt 0.9902 0.5000
vt 0.9902 0.5000
vt 0.9902 0.5000
vt 0.9902 0.5000
vt 0.9902 0.5000
vt 0.9902 0.5000
vt 0.9902 0.5000
vt 0.9902 0.5000
vt 0.9902 0.5000
vt 0.9902 0.5000
vt 0.9902 0.5000
vt 0.9902 0.5000
vt 0.9902 0.5000
vt 0.9902 0.5000
vt 0.9902 0.5000
vt 0.9902 0.5000
vt 0.9902 0.5000
vt 0.9902 0.5000
vt 0.9902 0.5000
vt 0.9902 0.5000
vt 0.9902 0.5000
vt 0.9902 0.5000
vt 0.9902 0.5000
vt 0.9902 0.5000
vt 0.9902 0.5000
vt 0.9902 0.5000
vt 0.9902 0.5000
vt 0.9902 0.5000
vt 0.9902 0.5000
vt 0.9902 0.5000
vt 0.9902 0.5000
vt 0.9902 0.5000
vt 0.9902 0.5000
vt 0.9902 0.5000
vt 0.9902 0.5000
vt 0.9902 0.5000
vt 0.9902 0.5000
vt 0.9902 0.5000
vt 0.9902 0.5000
vt 0.9902 0.5000
vt 0.9902 0.5000
vt 0.9902 0.5000
vt 0.9902 0.5000
vt 0.9902 0.5000
vt 0.9902 0.5000
vt 0.9902 0.5000
vt 0.9902 0.5000
vt 0.9902 0.5000
vt 0.9902 0.5000
vt 0.9902 0.5000
vt 0.9902 0.5000
vt 0.9902 0.5000
vt 0.9902 0.5000
vt 0.9902 0.5000
vt 0.9902 0.5000
vt 0.9902 0.5000
vt 0.9902 0.5000
vt 0.9902 0.5000
vn -1.0000 0.0000 0.0000
vn 1.0000 0.0000 0.0000
vn 0.0000 -0.0000 1.0000
vn 0.0000 0.0000 -1.0000
vn 0.0000 -1.0000 -0.0000
vn 0.0000 1.0000 0.0000
usemtl palette
s 1
f 1/1/1 2/2/1 3/3/1
f 4/4/1 2/2/1 1/1/1
f 5/5/1 6/6/1 7/7/1
f 8/8/1 6/6/1 5/5/1
f 9/9/1 10/10/1 11/11/1
f 12/12/1 10/10/1 9/9/1
f 13/13/1 14/14/1 15/15/1
f 16/16/1 14/14/1 13/13/1
f 17/17/1 13/18/1 12/19/1
f 18/20/1 13/18/1 17/17/1
f 19/21/1 17/22/1 20/23/1
f 21/24/1 17/22/1 19/21/1
f 22/25/1 23/26/1 18/27/1
f 24/28/1 23/26/1 22/25/1
f 25/29/1 22/25/1 21/24/1
f 26/30/1 22/25/1 25/29/1
f 27/31/2 28/32/2 29/33/2
f 29/33/2 28/32/2 30/34/2
f 31/35/2 32/36/2 33/37/2
f 33/37/2 32/36/2 34/38/2
f 30/39/2 33/40/2 35/41/2
f 35/41/2 33/40/2 36/42/2
f 37/43/2 35/44/2 38/45/2
f 38/45/2 35/44/2 39/46/2
f 36/47/2 40/48/2 41/49/2
f 41/49/2 40/48/2 42/50/2
f 39/46/2 41/49/2 43/51/2
f 43/51/2 41/49/2 44/52/2
f 45/53/2 46/54/2 47/55/2
f 47/55/2 46/54/2 48/56/2
f 49/57/2 50/58/2 51/59/2
f 51/59/2 50/58/2 52/60/2
f 53/61/3 54/62/3 55/63/3
f 56/64/3 54/62/3 53/61/3
f 57/65/3 58/66/3 59/67/3
f 60/68/3 58/66/3 57/65/3
f 61/69/3 62/70/3 63/71/3
f 64/72/3 62/70/3 61/69/3
f 65/73/3 66/74/3 67/75/3
f 68/76/3 66/74/3 65/73/3
f 69/77/3 65/78/3 64/79/3
f 70/80/3 65/78/3 69/77/3
f 71/81/3 72/82/3 68/76/3
f 73/83/3 72/82/3 71/81/3
f 74/84/3 69/85/3 75/86/3
f 76/87/3 69/85/3 74/84/3
f 77/88/3 71/81/3 70/89/3
f 78/90/3 71/81/3 77/88/3
f 79/91/4 80/92/4 81/93/4
f 81/93/4 80/92/4 82/94/4
f 83/95/4 84/96/4 85/97/4
f 85/97/4 84/96/4 86/98/4
f 82/99/4 85/100/4 87/101/4
f 87/101/4 85/100/4 88/102/4
f 86/98/4 89/103/4 90/104/4
f 90/104/4 89/103/4 91/105/4
f 92/106/4 87/107/4 93/108/4
f 93/108/4 87/107/4 94/109/4
f 88/110/4 90/104/4 95/111/4
f 95/111/4 90/104/4 96/112/4
f 97/113/4 98/114/4 99/115/4
f 99/115/4 98/114/4 100/116/4
f 101/117/4 102/118/4 103/119/4
f 103/119/4 102/118/4 104/120/4
f 105/121/5 106/122/5 107/123/5
f 108/124/5 106/122/5 105/121/5
f 109/125/5 105/121/5 110/126/5
f 109/125/5 111/127/5 108/124/5
f 109/125/5 108/124/5 105/121/5
f 112/128/5 111/127/5 109/125/5
f 113/129/5 111/127/5 112/128/5
f 114/130/5 111/127/5 113/129/5
f 115/131/5 113/129/5 112/128/5
f 116/132/5 113/129/5 115/131/5
f 117/133/5 118/134/5 119/135/5
f 120/136/5 118/134/5 117/133/5
f 121/137/5 117/133/5 122/138/5
f 123/139/5 117/133/5 121/137/5
f 124/140/5 125/141/5 120/136/5
f 126/142/5 125/141/5 124/140/5
f 127/143/5 124/140/5 123/139/5
f 128/144/5 124/140/5 127/143/5
f 129/145/6 130/146/6 131/147/6
f 131/147/6 130/146/6 132/148/6
f 133/149/6 131/147/6 134/150/6
f 134/150/6 131/147/6 135/151/6
f 132/148/6 136/152/6 137/153/6
f 137/153/6 136/152/6 138/154/6
f 135/151/6 137/153/6 139/155/6
f 139/155/6 137/153/6 140/156/6
f 141/157/6 142/158/6 143/159/6
f 143/159/6 142/158/6 144/160/6
f 145/161/6 143/159/6 146/162/6
f 146/162/6 143/159/6 147/163/6
f 144/160/6 148/164/6 149/165/6
f 149/165/6 148/164/6 150/166/6
f 147/163/6 149/165/6 151/167/6
f 151/167/6 149/165/6 152/168/6
f 153/169/6 154/170/6 155/171/6
f 155/171/6 154/170/6 156/172/6
