# Blender v2.78 (sub 0) OBJ File: ''
# www.blender.org
mtllib PowerupInfinite.mtl
o Copy_Powerups
v 0.142327 -0.412486 -0.147347
v -0.157672 -0.412486 -0.247345
v -0.157672 -0.412486 -0.147347
v -0.257671 -0.412486 -0.147347
v -0.257671 -0.412486 0.152652
v 0.142327 -0.512488 -0.247345
v 0.142327 -0.512488 -0.147347
v -0.157672 -0.512488 -0.247345
v 0.142327 -0.512488 0.152652
v -0.157672 -0.512488 0.152652
v -0.157672 -0.512488 -0.147347
v 0.142327 -0.512488 0.252654
v 0.018024 0.024408 -0.147346
v 0.142327 -0.160054 -0.147346
v 0.142327 -0.071512 0.056824
v 0.142327 -0.056756 -0.061232
v -0.257671 -0.512488 0.152652
v -0.257671 -0.512488 -0.147347
v 0.142327 -0.412486 -0.247345
v 0.242329 -0.412486 0.152652
v 0.242329 -0.512488 0.152652
v 0.242329 -0.412486 -0.147347
v -0.157672 -0.412486 0.252654
v -0.157672 -0.512488 0.252654
v 0.142327 -0.412486 0.252654
v 0.142327 -0.412486 0.152652
v -0.157672 0.287514 -0.147345
v -0.157672 0.013340 0.152653
v -0.157672 0.287514 -0.047343
v 0.042328 0.287514 0.152654
v -0.157672 0.287514 0.052655
v -0.057674 0.287514 0.152654
v 0.042328 0.287514 -0.147345
v 0.142327 0.287514 -0.147345
v 0.042328 0.287514 -0.047343
v 0.142327 0.287514 0.052655
v 0.142327 0.149842 -0.002204
v 0.142327 0.287514 -0.047343
v 0.142327 0.287514 0.152654
v -0.157672 -0.412486 0.152652
v 0.242329 -0.512488 -0.147347
v -0.057674 0.287514 -0.047343
v -0.057674 0.287514 -0.147345
v -0.057674 0.387513 -0.147345
v -0.057674 0.387513 -0.047343
v -0.157672 0.287514 0.152654
v -0.057674 0.287514 0.052655
v -0.157672 0.387513 -0.047343
v -0.157672 0.387513 0.052655
v -0.057674 0.387513 0.052655
v -0.057674 0.387513 0.152654
v 0.042328 0.387513 -0.047343
v 0.042328 0.387513 -0.147345
v 0.042328 0.387513 0.152654
v 0.042328 0.387513 0.052655
v 0.042328 0.287514 0.052655
v 0.142327 0.387513 0.052655
v 0.142327 0.387513 -0.047343
v -0.057674 0.487515 -0.047343
v -0.057674 0.487515 0.052655
v 0.042328 0.487515 0.052655
v 0.042328 0.487515 -0.047343
vt 0.0061 0.7469
vt 0.0266 0.8086
vt 0.0061 0.8086
vt 0.7316 0.8621
vt 0.7111 0.8621
vt 0.7111 0.8004
vt 0.3709 0.4012
vt 0.3504 0.4012
vt 0.3709 0.3395
vt 0.2889 0.4012
vt 0.2889 0.3395
vt 0.3504 0.3395
vt 0.2684 0.4012
vt 0.2635 0.5089
vt 0.2889 0.5468
vt 0.2889 0.5988
vt 0.6241 0.6278
vt 0.6660 0.5576
vt 0.6483 0.6308
vt 0.0594 0.7881
vt 0.0389 0.7263
vt 0.0594 0.7263
vt 0.7643 0.6399
vt 0.7439 0.6399
vt 0.7439 0.5782
vt 0.7766 0.4547
vt 0.7971 0.4547
vt 0.7766 0.5165
vt 0.7439 0.6523
vt 0.7643 0.6523
vt 0.7643 0.7140
vt 0.7398 0.1420
vt 0.7193 0.1420
vt 0.7398 0.0802
vt 0.2275 0.4547
vt 0.2275 0.5988
vt 0.4570 0.4576
vt 0.4980 0.4012
vt 0.5184 0.5453
vt 0.6250 0.4012
vt 0.6660 0.4576
vt 0.6045 0.5453
vt 0.4775 0.4012
vt 0.6455 0.4012
vt 0.2684 0.4547
vt 0.2889 0.4547
vt 0.4037 0.8951
vt 0.4037 0.9156
vt 0.3832 0.9156
vt 0.6250 0.7016
vt 0.6362 0.6733
vt 0.6455 0.7016
vt 0.6045 0.7016
vt 0.2889 0.3189
vt 0.3504 0.3189
vt 0.2684 0.3395
vt 0.7316 0.8004
vt 0.4570 0.5453
vt 0.6660 0.5453
vt 0.3504 0.4218
vt 0.2889 0.4218
vt 0.6988 0.7469
vt 0.6988 0.8086
vt 0.6783 0.8086
vt 0.6783 0.7469
vt 0.0266 0.7469
vt 0.6660 0.6096
vt 0.6045 0.5576
vt 0.4037 0.9486
vt 0.3832 0.9486
vt 0.3832 0.9280
vt 0.4037 0.9280
vt 0.6004 0.9280
vt 0.6004 0.9486
vt 0.5799 0.9486
vt 0.5799 0.9280
vt 0.4816 0.9280
vt 0.5020 0.9280
vt 0.5020 0.9486
vt 0.4816 0.9486
vt 0.0389 0.7881
vt 0.9283 0.8992
vt 0.9283 0.9198
vt 0.9078 0.9198
vt 0.9078 0.8992
vt 0.7643 0.5782
vt 0.1742 0.8663
vt 0.1742 0.8868
vt 0.1537 0.8868
vt 0.1537 0.8663
vt 0.7971 0.5165
vt 0.6127 0.8827
vt 0.6127 0.8621
vt 0.6332 0.8621
vt 0.6332 0.8827
vt 0.8955 0.2901
vt 0.8955 0.3107
vt 0.8750 0.3107
vt 0.8750 0.2901
vt 0.7439 0.7140
vt 0.7193 0.0802
vt 0.8299 0.5288
vt 0.8299 0.5494
vt 0.8094 0.5494
vt 0.8094 0.5288
vt 0.8094 0.9074
vt 0.8094 0.8868
vt 0.8299 0.8868
vt 0.8299 0.9074
vt 0.5184 0.4012
vt 0.2480 0.4547
vt 0.1742 0.9321
vt 0.1742 0.9527
vt 0.1537 0.9527
vt 0.1537 0.9321
vt 0.1045 0.9609
vt 0.1045 0.9403
vt 0.1250 0.9403
vt 0.1250 0.9609
vt 0.9611 0.3107
vt 0.9406 0.3107
vt 0.9406 0.2901
vt 0.9611 0.2901
vt 0.4980 0.3807
vt 0.4775 0.3807
vt 0.0594 0.9938
vt 0.0389 0.9938
vt 0.0389 0.9733
vt 0.0594 0.9733
vt 0.9406 0.7058
vt 0.9406 0.6852
vt 0.9611 0.6852
vt 0.9611 0.7058
vt 0.9611 0.3313
vt 0.9611 0.3519
vt 0.9406 0.3519
vt 0.9406 0.3313
vt 0.4570 0.4012
vt 0.6660 0.4012
vt 0.6660 0.7016
vt 0.8627 0.5288
vt 0.8627 0.5494
vt 0.8422 0.5494
vt 0.8422 0.5288
vt 0.6045 0.4012
vt 0.4365 0.9280
vt 0.4365 0.9486
vt 0.4160 0.9486
vt 0.4160 0.9280
vt 0.2684 0.4342
vt 0.2480 0.4342
vt 0.4365 0.9156
vt 0.4160 0.9156
vt 0.4160 0.8951
vt 0.4365 0.8951
vt 0.9611 0.4012
vt 0.9406 0.4012
vt 0.9406 0.3807
vt 0.9611 0.3807
vt 0.9734 0.5000
vt 0.9734 0.4794
vt 0.9939 0.4794
vt 0.9939 0.5000
vt 0.6455 0.7222
vt 0.6250 0.7222
vt 0.9283 0.9321
vt 0.9283 0.9527
vt 0.9078 0.9527
vt 0.9078 0.9321
vt 0.6250 0.3807
vt 0.6455 0.3807
vt 0.9611 0.7840
vt 0.9611 0.8045
vt 0.9406 0.8045
vt 0.9406 0.7840
vt 0.9406 0.6317
vt 0.9406 0.6111
vt 0.9611 0.6111
vt 0.9611 0.6317
vt 0.3832 0.8951
vt 0.0061 0.9609
vt 0.0061 0.9403
vt 0.0266 0.9403
vt 0.0266 0.9609
vt 0.9283 0.2160
vt 0.9283 0.2366
vt 0.9078 0.2366
vt 0.9078 0.2160
vt 0.0266 0.9074
vt 0.0266 0.9280
vt 0.0061 0.9280
vt 0.0061 0.9074
vt 0.8709 0.1461
vt 0.8709 0.1667
vt 0.8504 0.1667
vt 0.8504 0.1461
vt 0.8504 0.1008
vt 0.8504 0.0802
vt 0.8709 0.0802
vt 0.8709 0.1008
vn 0.0000 1.0000 0.0000
vn 0.0000 -1.0000 0.0000
vn -0.0000 0.0000 -1.0000
vn 1.0000 -0.0000 0.0000
vn -1.0000 0.0000 0.0000
vn 0.0000 -0.0000 1.0000
usemtl palette
s 1
f 1/1/1 2/2/1 3/3/1
f 3/4/1 4/5/1 5/6/1
f 6/7/2 7/8/2 8/9/2
f 9/10/2 10/11/2 11/12/2
f 9/10/2 12/13/2 10/11/2
f 13/14/3 14/15/3 1/16/3
f 15/17/4 1/18/4 16/19/4
f 17/20/5 4/21/5 18/22/5
f 19/23/3 6/24/3 8/25/3
f 20/26/4 21/27/4 22/28/4
f 23/29/6 24/30/6 12/31/6
f 25/32/1 26/33/1 23/34/1
f 27/35/3 13/14/3 3/36/3
f 28/37/5 29/38/5 3/39/5
f 30/40/6 28/41/6 26/42/6
f 28/37/5 31/43/5 29/38/5
f 32/44/6 28/41/6 30/40/6
f 33/45/3 34/46/3 13/14/3
f 34/47/1 33/48/1 35/49/1
f 36/50/4 37/51/4 38/52/4
f 39/53/4 37/51/4 36/50/4
f 17/54/2 18/55/2 11/12/2 10/11/2
f 10/11/2 12/13/2 24/56/2
f 40/57/1 3/4/1 5/6/1
f 3/36/3 13/14/3 1/16/3
f 40/58/5 28/37/5 3/39/5
f 26/42/6 28/41/6 40/59/6
f 9/10/2 7/8/2 41/60/2 21/61/2
f 8/9/2 7/8/2 11/12/2
f 7/8/2 9/10/2 11/12/2
f 1/62/1 26/63/1 20/64/1 22/65/1
f 1/1/1 19/66/1 2/2/1
f 16/19/4 1/18/4 14/67/4
f 15/17/4 26/68/4 1/18/4
f 11/69/3 18/70/3 4/71/3 3/72/3
f 2/73/5 8/74/5 11/75/5 3/76/5
f 17/77/6 10/78/6 40/79/6 5/80/6
f 17/20/5 5/81/5 4/21/5
f 6/82/4 19/83/4 1/84/4 7/85/4
f 2/86/3 19/23/3 8/25/3
f 41/87/3 7/88/3 1/89/3 22/90/3
f 22/28/4 21/27/4 41/91/4
f 9/92/6 21/93/6 20/94/6 26/95/6
f 40/96/5 10/97/5 24/98/5 23/99/5
f 25/100/6 23/29/6 12/31/6
f 23/34/1 26/33/1 40/101/1
f 9/102/4 26/103/4 25/104/4 12/105/4
f 27/106/1 29/107/1 42/108/1 43/109/1
f 3/39/5 29/38/5 27/110/5
f 27/35/3 43/111/3 13/14/3
f 44/112/5 43/113/5 42/114/5 45/115/5
f 31/116/1 46/117/1 32/118/1 47/119/1
f 48/120/1 49/121/1 50/122/1 45/123/1
f 48/124/5 29/38/5 31/43/5 49/125/5
f 42/126/3 29/127/3 48/128/3 45/129/3
f 49/130/6 31/131/6 47/132/6 50/133/6
f 50/134/5 47/135/5 32/136/5 51/137/5
f 28/37/5 46/138/5 31/43/5
f 32/44/6 46/139/6 28/41/6
f 14/67/4 34/140/4 37/51/4 16/19/4
f 43/111/3 33/45/3 13/14/3
f 15/17/4 37/51/4 39/53/4 26/68/4
f 13/14/3 34/46/3 14/15/3
f 37/51/4 15/17/4 16/19/4
f 44/141/1 45/142/1 52/143/1 53/144/1
f 39/145/6 30/40/6 26/42/6
f 33/146/4 53/147/4 52/148/4 35/149/4
f 53/150/3 33/45/3 43/111/3 44/151/3
f 50/152/1 51/153/1 54/154/1 55/155/1
f 56/156/1 30/157/1 39/158/1 36/159/1
f 52/160/1 55/161/1 57/162/1 58/163/1
f 38/52/4 58/164/4 57/165/4 36/50/4
f 56/166/4 55/167/4 54/168/4 30/169/4
f 32/44/6 30/40/6 54/170/6 51/171/6
f 38/172/3 35/173/3 52/174/3 58/175/3
f 56/176/6 36/177/6 57/178/6 55/179/6
f 38/52/4 37/51/4 34/140/4
f 38/180/1 34/47/1 35/49/1
f 59/181/1 60/182/1 61/183/1 62/184/1
f 59/185/5 45/186/5 50/187/5 60/188/5
f 52/189/4 62/190/4 61/191/4 55/192/4
f 52/193/3 45/194/3 59/195/3 62/196/3
f 50/197/6 55/198/6 61/199/6 60/200/6
