# Blender v2.78 (sub 0) OBJ File: ''
# www.blender.org
mtllib PowerupRapidFireText.mtl
o Copy_Powerups.002
v 0.196363 -0.079903 -0.655620
v 0.296362 -0.379906 -0.655620
v 0.196363 -0.379906 -0.655620
v 0.196363 -0.379906 -0.555621
v 0.196363 -0.079903 -0.555622
v 0.096365 0.020095 -0.655620
v 0.096365 -0.079903 -0.655620
v 0.196363 0.120097 -0.655620
v -0.003637 -0.079903 -0.655620
v 0.096365 -0.179905 -0.655620
v -0.003637 -0.179905 -0.655620
v -0.103636 -0.179905 -0.655620
v -0.003637 -0.179905 -0.625414
v -0.103636 -0.179905 -0.555621
v -0.103636 -0.279904 -0.555621
v -0.003637 -0.279904 -0.555621
v -0.003637 -0.279904 -0.655620
v -0.103636 -0.279904 -0.655620
v 0.196363 0.120097 -0.555622
v -0.103636 0.020095 -0.555622
v 0.096365 0.020095 -0.555622
v -0.103636 0.020095 -0.655620
v -0.103636 0.120097 -0.655620
v -0.103636 0.120097 -0.625415
v 0.096365 -0.079903 -0.625414
v -0.203638 -0.279904 -0.555621
v -0.103636 -0.379906 -0.555621
v -0.203638 -0.279904 -0.655620
v -0.103636 -0.279904 -0.625414
v -0.203638 0.120097 -0.655620
v -0.103636 -0.379906 -0.655620
v -0.203638 -0.379906 -0.655620
v 0.196363 0.420096 -0.655620
v 0.296362 0.520095 -0.655621
v 0.296362 0.020488 -0.625414
v 0.296362 0.520095 -0.555622
v 0.296362 -0.379906 -0.555621
v -0.103636 0.520095 -0.555622
v -0.103636 0.420096 -0.555622
v 0.196363 0.420096 -0.555622
v -0.103636 0.520095 -0.655620
v -0.103636 0.420096 -0.655620
v -0.203638 0.120097 -0.555622
v -0.203638 0.420096 -0.555622
v -0.203638 0.420096 -0.655620
v -0.103636 0.275045 -0.655620
v -0.103636 0.289802 -0.555622
v -0.103636 0.420096 -0.625415
v -0.103636 0.120097 -0.555622
v 0.096365 -0.079903 -0.555622
v -0.003637 -0.179905 -0.555621
v -0.003637 -0.079903 -0.555622
v 0.096365 -0.179905 -0.555621
v -0.203638 -0.379906 -0.555621
v -0.103636 0.289802 -0.625415
v -0.196363 -0.079903 0.655623
v -0.296362 -0.379906 0.655623
v -0.196363 -0.379906 0.655623
v -0.196363 -0.379906 0.555624
v -0.196363 -0.079903 0.555625
v -0.096365 0.020095 0.655623
v -0.096365 -0.079903 0.655623
v -0.196363 0.120097 0.655623
v 0.003637 -0.079903 0.655623
v -0.096365 -0.179905 0.655623
v 0.003637 -0.179905 0.655623
v 0.103636 -0.179905 0.655623
v 0.003637 -0.179905 0.625417
v 0.103636 -0.179905 0.555624
v 0.103636 -0.279904 0.555624
v 0.003637 -0.279904 0.555624
v 0.003637 -0.279904 0.655623
v 0.103636 -0.279904 0.655623
v -0.196363 0.120097 0.555625
v 0.103636 0.020095 0.555625
v -0.096365 0.020095 0.555625
v 0.103636 0.020095 0.655623
v 0.103636 0.120097 0.655623
v 0.103636 0.120097 0.625418
v -0.096365 -0.079903 0.625417
v 0.203638 -0.279904 0.555624
v 0.103636 -0.379906 0.555624
v 0.203638 -0.279904 0.655623
v 0.103636 -0.279904 0.625417
v 0.203638 0.120097 0.655623
v 0.103636 -0.379906 0.655623
v 0.203638 -0.379906 0.655623
v -0.196363 0.420096 0.655623
v -0.296362 0.520095 0.655623
v -0.296362 0.020488 0.625417
v -0.296362 0.520095 0.555625
v -0.296362 -0.379906 0.555624
v 0.103636 0.520095 0.555625
v 0.103636 0.420096 0.555625
v -0.196363 0.420096 0.555625
v 0.103636 0.520095 0.655623
v 0.103636 0.420096 0.655623
v 0.203638 0.120097 0.555625
v 0.203638 0.420096 0.555625
v 0.203638 0.420096 0.655623
v 0.103636 0.275045 0.655623
v 0.103636 0.289802 0.555625
v 0.103636 0.420096 0.625418
v 0.103636 0.120097 0.555625
v -0.096365 -0.079903 0.555625
v 0.003637 -0.179905 0.555624
v 0.003637 -0.079903 0.555625
v -0.096365 -0.179905 0.555624
v 0.203638 -0.379906 0.555624
v 0.103636 0.289802 0.625418
vt 0.3504 0.1296
vt 0.3709 0.1914
vt 0.3504 0.1914
vt 0.7111 0.7881
vt 0.7316 0.7263
vt 0.7316 0.7881
vt 0.3299 0.1091
vt 0.3299 0.1296
vt 0.3504 0.0885
vt 0.2479 0.8745
vt 0.2275 0.8539
vt 0.2479 0.8539
vt 0.7643 0.9733
vt 0.7439 0.9795
vt 0.7439 0.9733
vt 0.9406 0.4136
vt 0.9611 0.4136
vt 0.9611 0.4342
vt 0.9406 0.8663
vt 0.9611 0.8868
vt 0.9406 0.8868
vt 0.2561 0.1091
vt 0.1947 0.0885
vt 0.2357 0.0885
vt 0.2889 0.1091
vt 0.7971 0.9074
vt 0.7971 0.9280
vt 0.7909 0.9074
vt 0.5799 0.8086
vt 0.6004 0.8498
vt 0.5799 0.8498
vt 0.4693 0.9280
vt 0.4488 0.9342
vt 0.4488 0.9280
vt 0.3832 0.8621
vt 0.4037 0.8621
vt 0.3832 0.8827
vt 0.1742 0.8992
vt 0.1537 0.9054
vt 0.1537 0.8992
vt 0.4816 0.8951
vt 0.5021 0.8951
vt 0.5021 0.9013
vt 0.3135 0.8745
vt 0.2930 0.8539
vt 0.3135 0.8539
vt 0.3504 0.0267
vt 0.3709 0.0062
vt 0.6845 0.4835
vt 0.6988 0.3807
vt 0.6988 0.5658
vt 0.1947 0.1914
vt 0.1947 0.1708
vt 0.2561 0.1708
vt 0.2889 0.0062
vt 0.2889 0.0267
vt 0.3463 0.6934
vt 0.3258 0.6934
vt 0.3463 0.6111
vt 0.0389 0.8004
vt 0.0594 0.8004
vt 0.0594 0.8621
vt 0.6004 0.7963
vt 0.5799 0.7664
vt 0.6004 0.7346
vt 0.6127 0.7346
vt 0.6332 0.7346
vt 0.6127 0.7614
vt 0.2070 0.8992
vt 0.1865 0.9054
vt 0.1865 0.8992
vt 0.6332 0.7963
vt 0.6127 0.7963
vt 0.9283 0.9650
vt 0.9283 0.9856
vt 0.9078 0.9856
vt 0.9078 0.9650
vt 0.2766 0.0062
vt 0.2561 0.0679
vt 0.2561 0.0062
vt 0.7111 0.7263
vt 0.6783 0.5658
vt 0.6783 0.3807
vt 0.3832 0.9815
vt 0.3832 0.9609
vt 0.4037 0.9609
vt 0.3975 0.9815
vt 0.2357 0.0679
vt 0.4037 0.9815
vt 0.9406 0.1893
vt 0.9406 0.1831
vt 0.9611 0.1831
vt 0.9611 0.2037
vt 0.9406 0.2037
vt 0.8955 0.5288
vt 0.8955 0.5494
vt 0.8750 0.5494
vt 0.8812 0.5288
vt 0.7766 0.3519
vt 0.7971 0.3313
vt 0.7971 0.3519
vt 0.8750 0.5288
vt 0.8094 0.9260
vt 0.8094 0.9198
vt 0.8299 0.9198
vt 0.9078 0.4671
vt 0.9078 0.4465
vt 0.9140 0.4465
vt 0.9406 0.6585
vt 0.9406 0.6523
vt 0.9611 0.6523
vt 0.5799 0.9815
vt 0.5799 0.9609
vt 0.5861 0.9609
vt 0.9406 0.7716
vt 0.9406 0.7510
vt 0.9468 0.7510
vt 0.8299 0.9403
vt 0.8094 0.9403
vt 0.9283 0.4465
vt 0.9283 0.4671
vt 0.9611 0.6728
vt 0.9406 0.6728
vt 0.6004 0.9609
vt 0.6004 0.9815
vt 0.9611 0.7510
vt 0.9611 0.7716
vt 0.7439 0.9938
vt 0.7643 0.9938
vt 0.7766 0.9280
vt 0.7766 0.9074
vt 0.9406 0.4342
vt 0.9611 0.8663
vt 0.1947 0.1091
vt 0.8094 0.1831
vt 0.8156 0.1831
vt 0.8094 0.2449
vt 0.2889 0.0885
vt 0.8299 0.2449
vt 0.8299 0.1831
vt 0.4488 0.9486
vt 0.4693 0.9486
vt 0.6004 0.8086
vt 0.8955 0.7798
vt 0.8955 0.8004
vt 0.8750 0.8004
vt 0.8812 0.7798
vt 0.8750 0.7798
vt 0.7766 0.3313
vt 0.2275 0.8745
vt 0.3709 0.9280
vt 0.3709 0.9486
vt 0.3504 0.9486
vt 0.3504 0.9280
vt 0.8955 0.8992
vt 0.8955 0.9198
vt 0.8750 0.9198
vt 0.8750 0.8992
vt 0.1537 0.9198
vt 0.1742 0.9198
vt 0.2930 0.8745
vt 0.5021 0.9156
vt 0.4816 0.9156
vt 0.4037 0.8827
vt 0.2766 0.1914
vt 0.8381 0.0802
vt 0.8381 0.1420
vt 0.8176 0.1420
vt 0.8176 0.0802
vt 0.8238 0.0062
vt 0.8238 0.0330
vt 0.8176 0.0360
vt 0.8176 0.0062
vt 0.3258 0.6111
vt 0.8381 0.0062
vt 0.8381 0.0330
vt 0.2255 0.8210
vt 0.2193 0.8210
vt 0.2193 0.7593
vt 0.4160 0.9815
vt 0.4160 0.9609
vt 0.4222 0.9609
vt 0.2398 0.7593
vt 0.2398 0.8210
vt 0.4365 0.9609
vt 0.4365 0.9815
vt 0.0389 0.8621
vt 0.1865 0.9198
vt 0.2070 0.9198
vt 0.5799 0.7963
vt 0.8238 0.0679
vt 0.8176 0.0679
vt 0.8381 0.0679
vt 0.5799 0.7346
vt 0.3504 0.1296
vt 0.3709 0.1914
vt 0.3504 0.1914
vt 0.7111 0.7881
vt 0.7316 0.7263
vt 0.7316 0.7881
vt 0.3299 0.1091
vt 0.3299 0.1296
vt 0.3504 0.0885
vt 0.2479 0.8745
vt 0.2275 0.8539
vt 0.2479 0.8539
vt 0.7643 0.9733
vt 0.7439 0.9795
vt 0.7439 0.9733
vt 0.9406 0.4136
vt 0.9611 0.4136
vt 0.9611 0.4342
vt 0.9406 0.8663
vt 0.9611 0.8868
vt 0.9406 0.8868
vt 0.2561 0.1091
vt 0.1947 0.0885
vt 0.2357 0.0885
vt 0.2889 0.1091
vt 0.7971 0.9074
vt 0.7971 0.9280
vt 0.7909 0.9074
vt 0.5799 0.8086
vt 0.6004 0.8498
vt 0.5799 0.8498
vt 0.4693 0.9280
vt 0.4488 0.9342
vt 0.4488 0.9280
vt 0.3832 0.8621
vt 0.4037 0.8621
vt 0.3832 0.8827
vt 0.1742 0.8992
vt 0.1537 0.9054
vt 0.1537 0.8992
vt 0.4816 0.8951
vt 0.5021 0.8951
vt 0.5021 0.9013
vt 0.3135 0.8745
vt 0.2930 0.8539
vt 0.3135 0.8539
vt 0.3504 0.0267
vt 0.3709 0.0062
vt 0.6845 0.4835
vt 0.6988 0.3807
vt 0.6988 0.5658
vt 0.1947 0.1914
vt 0.1947 0.1708
vt 0.2561 0.1708
vt 0.2889 0.0062
vt 0.2889 0.0267
vt 0.3463 0.6934
vt 0.3258 0.6934
vt 0.3463 0.6111
vt 0.0389 0.8004
vt 0.0594 0.8004
vt 0.0594 0.8621
vt 0.6004 0.7963
vt 0.5799 0.7664
vt 0.6004 0.7346
vt 0.6127 0.7346
vt 0.6332 0.7346
vt 0.6127 0.7614
vt 0.2070 0.8992
vt 0.1865 0.9054
vt 0.1865 0.8992
vt 0.6332 0.7963
vt 0.6127 0.7963
vt 0.9283 0.9650
vt 0.9283 0.9856
vt 0.9078 0.9856
vt 0.9078 0.9650
vt 0.2766 0.0062
vt 0.2561 0.0679
vt 0.2561 0.0062
vt 0.7111 0.7263
vt 0.6783 0.5658
vt 0.6783 0.3807
vt 0.3832 0.9815
vt 0.3832 0.9609
vt 0.4037 0.9609
vt 0.3975 0.9815
vt 0.2357 0.0679
vt 0.4037 0.9815
vt 0.9406 0.1893
vt 0.9406 0.1831
vt 0.9611 0.1831
vt 0.9611 0.2037
vt 0.9406 0.2037
vt 0.8955 0.5288
vt 0.8955 0.5494
vt 0.8750 0.5494
vt 0.8812 0.5288
vt 0.7766 0.3519
vt 0.7971 0.3313
vt 0.7971 0.3519
vt 0.8750 0.5288
vt 0.8094 0.9260
vt 0.8094 0.9198
vt 0.8299 0.9198
vt 0.9078 0.4671
vt 0.9078 0.4465
vt 0.9140 0.4465
vt 0.9406 0.6585
vt 0.9406 0.6523
vt 0.9611 0.6523
vt 0.5799 0.9815
vt 0.5799 0.9609
vt 0.5861 0.9609
vt 0.9406 0.7716
vt 0.9406 0.7510
vt 0.9468 0.7510
vt 0.8299 0.9403
vt 0.8094 0.9403
vt 0.9283 0.4465
vt 0.9283 0.4671
vt 0.9611 0.6728
vt 0.9406 0.6728
vt 0.6004 0.9609
vt 0.6004 0.9815
vt 0.9611 0.7510
vt 0.9611 0.7716
vt 0.7439 0.9938
vt 0.7643 0.9938
vt 0.7766 0.9280
vt 0.7766 0.9074
vt 0.9406 0.4342
vt 0.9611 0.8663
vt 0.1947 0.1091
vt 0.8094 0.1831
vt 0.8156 0.1831
vt 0.8094 0.2449
vt 0.2889 0.0885
vt 0.8299 0.2449
vt 0.8299 0.1831
vt 0.4488 0.9486
vt 0.4693 0.9486
vt 0.6004 0.8086
vt 0.8955 0.7798
vt 0.8955 0.8004
vt 0.8750 0.8004
vt 0.8812 0.7798
vt 0.8750 0.7798
vt 0.7766 0.3313
vt 0.2275 0.8745
vt 0.3709 0.9280
vt 0.3709 0.9486
vt 0.3504 0.9486
vt 0.3504 0.9280
vt 0.8955 0.8992
vt 0.8955 0.9198
vt 0.8750 0.9198
vt 0.8750 0.8992
vt 0.1537 0.9198
vt 0.1742 0.9198
vt 0.2930 0.8745
vt 0.5021 0.9156
vt 0.4816 0.9156
vt 0.4037 0.8827
vt 0.2766 0.1914
vt 0.8381 0.0802
vt 0.8381 0.1420
vt 0.8176 0.1420
vt 0.8176 0.0802
vt 0.8238 0.0062
vt 0.8238 0.0330
vt 0.8176 0.0360
vt 0.8176 0.0062
vt 0.3258 0.6111
vt 0.8381 0.0062
vt 0.8381 0.0330
vt 0.2255 0.8210
vt 0.2193 0.8210
vt 0.2193 0.7593
vt 0.4160 0.9815
vt 0.4160 0.9609
vt 0.4222 0.9609
vt 0.2398 0.7593
vt 0.2398 0.8210
vt 0.4365 0.9609
vt 0.4365 0.9815
vt 0.0389 0.8621
vt 0.1865 0.9198
vt 0.2070 0.9198
vt 0.5799 0.7963
vt 0.8238 0.0679
vt 0.8176 0.0679
vt 0.8381 0.0679
vt 0.5799 0.7346
vn -0.0000 -0.0000 -1.0000
vn -1.0000 0.0000 0.0000
vn -0.0000 1.0000 -0.0000
vn 0.0000 -0.0000 1.0000
vn 0.0000 -1.0000 0.0000
vn 1.0000 0.0000 -0.0000
usemtl palette
s 1
f 1/1/1 2/2/1 3/3/1
f 1/4/2 4/5/2 5/6/2
f 6/7/1 1/1/1 7/8/1
f 8/9/1 1/1/1 6/7/1
f 9/10/1 10/11/1 11/12/1
f 12/13/3 13/14/3 11/15/3
f 14/16/4 15/17/4 16/18/4
f 12/19/1 17/20/1 18/21/1
f 19/22/4 20/23/4 21/24/4
f 8/9/1 6/7/1 22/25/1
f 23/26/2 22/27/2 24/28/2
f 20/29/5 6/30/5 21/31/5
f 9/32/3 25/33/3 7/34/3
f 15/35/4 26/36/4 27/37/4
f 28/38/3 29/39/3 18/40/3
f 30/41/5 23/42/5 24/43/5
f 28/44/1 31/45/1 32/46/1
f 33/47/1 34/48/1 8/9/1
f 35/49/6 36/50/6 37/51/6
f 38/52/4 39/53/4 40/54/4
f 41/55/1 33/47/1 42/56/1
f 41/57/3 38/58/3 34/59/3
f 30/60/2 43/61/2 44/62/2
f 45/63/1 46/64/1 30/65/1
f 39/66/4 44/67/4 47/68/4
f 45/69/3 48/70/3 42/71/3
f 47/68/4 43/72/4 49/73/4
f 2/74/5 37/75/5 4/76/5 3/77/5
f 34/48/1 2/2/1 1/1/1 8/9/1
f 37/78/4 5/79/4 4/80/4
f 1/4/2 3/81/2 4/5/2
f 2/82/6 34/83/6 35/49/6
f 50/84/2 21/85/2 6/86/2 25/87/2
f 5/79/4 21/24/4 50/88/4
f 6/86/2 7/89/2 25/87/2
f 25/90/5 7/91/5 1/92/5
f 37/78/4 19/22/4 5/79/4
f 5/79/4 19/22/4 21/24/4
f 1/92/5 5/93/5 50/94/5 25/90/5
f 51/95/2 52/96/2 9/97/2 13/98/2
f 53/99/4 52/100/4 51/101/4
f 9/97/2 11/102/2 13/98/2
f 13/103/5 11/104/5 10/105/5
f 31/106/6 18/107/6 29/108/6
f 29/109/5 18/110/5 17/111/5
f 17/112/6 11/113/6 13/114/6
f 12/115/2 18/116/2 29/117/2
f 10/105/5 53/118/5 51/119/5 13/103/5
f 15/120/6 27/121/6 31/106/6 29/108/6
f 17/111/5 16/122/5 15/123/5 29/109/5
f 51/124/6 16/125/6 17/112/6 13/114/6
f 15/126/2 14/127/2 12/115/2 29/117/2
f 51/128/3 13/14/3 12/13/3 14/129/3
f 20/130/2 49/131/2 24/28/2 22/27/2
f 51/132/4 14/16/4 16/18/4
f 12/19/1 11/133/1 17/20/1
f 19/22/4 49/134/4 20/23/4
f 23/135/3 24/136/3 8/137/3
f 23/138/1 8/9/1 22/25/1
f 19/139/3 8/137/3 24/136/3 49/140/3
f 50/141/3 25/33/3 9/32/3 52/142/3
f 20/29/5 22/143/5 6/30/5
f 50/144/6 53/145/6 10/146/6 25/147/6
f 10/146/6 7/148/6 25/147/6
f 50/149/4 52/100/4 53/99/4
f 9/10/1 7/150/1 10/11/1
f 2/82/6 35/49/6 37/51/6
f 54/151/2 26/152/2 28/153/2 32/154/2
f 31/155/5 27/156/5 54/157/5 32/158/5
f 15/159/3 29/39/3 28/38/3 26/160/3
f 28/44/1 18/161/1 31/45/1
f 24/43/5 49/162/5 43/163/5 30/41/5
f 27/37/4 26/36/4 54/164/4
f 19/22/4 37/78/4 36/165/4 40/54/4
f 19/166/2 40/167/2 33/168/2 8/169/2
f 48/170/6 55/171/6 46/172/6 42/173/6
f 35/49/6 34/83/6 36/50/6
f 41/55/1 34/48/1 33/47/1
f 34/59/3 38/58/3 36/174/3
f 40/54/4 36/165/4 38/52/4
f 39/175/6 47/176/6 55/171/6 48/170/6
f 48/177/5 42/178/5 33/179/5
f 41/180/2 42/181/2 48/182/2
f 33/179/5 40/183/5 39/184/5 48/177/5
f 39/185/2 38/186/2 41/180/2 48/182/2
f 45/187/2 30/60/2 44/62/2
f 39/188/3 48/70/3 45/69/3 44/189/3
f 47/68/4 44/67/4 43/72/4
f 45/63/1 42/190/1 46/64/1
f 55/171/6 24/191/6 23/192/6 46/172/6
f 47/176/6 49/193/6 24/191/6 55/171/6
f 30/65/1 46/64/1 23/194/1
f 56/195/4 57/196/4 58/197/4
f 56/198/6 59/199/6 60/200/6
f 61/201/4 56/195/4 62/202/4
f 63/203/4 56/195/4 61/201/4
f 64/204/4 65/205/4 66/206/4
f 67/207/3 68/208/3 66/209/3
f 69/210/1 70/211/1 71/212/1
f 67/213/4 72/214/4 73/215/4
f 74/216/1 75/217/1 76/218/1
f 63/203/4 61/201/4 77/219/4
f 78/220/6 77/221/6 79/222/6
f 75/223/5 61/224/5 76/225/5
f 64/226/3 80/227/3 62/228/3
f 70/229/1 81/230/1 82/231/1
f 83/232/3 84/233/3 73/234/3
f 85/235/5 78/236/5 79/237/5
f 83/238/4 86/239/4 87/240/4
f 88/241/4 89/242/4 63/203/4
f 90/243/2 91/244/2 92/245/2
f 93/246/1 94/247/1 95/248/1
f 96/249/4 88/241/4 97/250/4
f 96/251/3 93/252/3 89/253/3
f 85/254/6 98/255/6 99/256/6
f 100/257/4 101/258/4 85/259/4
f 94/260/1 99/261/1 102/262/1
f 100/263/3 103/264/3 97/265/3
f 102/262/1 98/266/1 104/267/1
f 57/268/5 92/269/5 59/270/5 58/271/5
f 89/242/4 57/196/4 56/195/4 63/203/4
f 92/272/1 60/273/1 59/274/1
f 56/198/6 58/275/6 59/199/6
f 57/276/2 89/277/2 90/243/2
f 105/278/6 76/279/6 61/280/6 80/281/6
f 60/273/1 76/218/1 105/282/1
f 61/280/6 62/283/6 80/281/6
f 80/284/5 62/285/5 56/286/5
f 92/272/1 74/216/1 60/273/1
f 60/273/1 74/216/1 76/218/1
f 56/286/5 60/287/5 105/288/5 80/284/5
f 106/289/6 107/290/6 64/291/6 68/292/6
f 108/293/1 107/294/1 106/295/1
f 64/291/6 66/296/6 68/292/6
f 68/297/5 66/298/5 65/299/5
f 86/300/2 73/301/2 84/302/2
f 84/303/5 73/304/5 72/305/5
f 72/306/2 66/307/2 68/308/2
f 67/309/6 73/310/6 84/311/6
f 65/299/5 108/312/5 106/313/5 68/297/5
f 70/314/2 82/315/2 86/300/2 84/302/2
f 72/305/5 71/316/5 70/317/5 84/303/5
f 106/318/2 71/319/2 72/306/2 68/308/2
f 70/320/6 69/321/6 67/309/6 84/311/6
f 106/322/3 68/208/3 67/207/3 69/323/3
f 75/324/6 104/325/6 79/222/6 77/221/6
f 106/326/1 69/210/1 71/212/1
f 67/213/4 66/327/4 72/214/4
f 74/216/1 104/328/1 75/217/1
f 78/329/3 79/330/3 63/331/3
f 78/332/4 63/203/4 77/219/4
f 74/333/3 63/331/3 79/330/3 104/334/3
f 105/335/3 80/227/3 64/226/3 107/336/3
f 75/223/5 77/337/5 61/224/5
f 105/338/2 108/339/2 65/340/2 80/341/2
f 65/340/2 62/342/2 80/341/2
f 105/343/1 107/294/1 108/293/1
f 64/204/4 62/344/4 65/205/4
f 57/276/2 90/243/2 92/245/2
f 109/345/6 81/346/6 83/347/6 87/348/6
f 86/349/5 82/350/5 109/351/5 87/352/5
f 70/353/3 84/233/3 83/232/3 81/354/3
f 83/238/4 73/355/4 86/239/4
f 79/237/5 104/356/5 98/357/5 85/235/5
f 82/231/1 81/230/1 109/358/1
f 74/216/1 92/272/1 91/359/1 95/248/1
f 74/360/6 95/361/6 88/362/6 63/363/6
f 103/364/2 110/365/2 101/366/2 97/367/2
f 90/243/2 89/277/2 91/244/2
f 96/249/4 89/242/4 88/241/4
f 89/253/3 93/252/3 91/368/3
f 95/248/1 91/359/1 93/246/1
f 94/369/2 102/370/2 110/365/2 103/364/2
f 103/371/5 97/372/5 88/373/5
f 96/374/6 97/375/6 103/376/6
f 88/373/5 95/377/5 94/378/5 103/371/5
f 94/379/6 93/380/6 96/374/6 103/376/6
f 100/381/6 85/254/6 99/256/6
f 94/382/3 103/264/3 100/263/3 99/383/3
f 102/262/1 99/261/1 98/266/1
f 100/257/4 97/384/4 101/258/4
f 110/365/2 79/385/2 78/386/2 101/366/2
f 102/370/2 104/387/2 79/385/2 110/365/2
f 85/259/4 101/258/4 78/388/4
