# Blender v2.78 (sub 0) OBJ File: ''
# www.blender.org
mtllib PowerupHollowPoint.mtl
o Copy_Powerups.003
v -0.148661 -0.532386 0.150799
v -0.248660 -0.532386 0.150799
v -0.248660 -0.532386 -0.149200
v 0.151338 -0.532386 0.150799
v -0.148661 -0.532386 -0.149200
v -0.148661 -0.532386 0.250797
v -0.148661 -0.432384 -0.149200
v -0.248660 -0.432384 -0.149200
v -0.248660 -0.432384 0.150799
v 0.010368 0.037713 0.150799
v -0.148661 -0.432384 0.150799
v 0.151338 -0.432384 0.150799
v 0.151338 -0.432384 -0.149200
v -0.148661 -0.432384 -0.249203
v -0.148661 0.267617 -0.149200
v 0.010368 0.037713 -0.149200
v -0.148661 0.267617 0.150799
v -0.148661 0.267617 0.050800
v -0.048659 0.267617 0.150799
v 0.251340 -0.532386 -0.149200
v 0.151338 -0.532386 -0.149200
v 0.251340 -0.432384 0.150799
v 0.151338 -0.432384 -0.249203
v 0.151338 -0.532386 -0.249203
v -0.148661 -0.532386 -0.249203
v 0.151338 -0.432384 0.250797
v 0.151338 -0.532386 0.250797
v 0.251340 -0.432384 -0.149200
v 0.051339 0.267617 -0.149200
v 0.151338 0.267617 -0.149200
v 0.151338 0.267617 0.150799
v 0.151338 0.267617 0.050800
v 0.151338 0.367615 -0.049202
v 0.051339 0.367615 -0.049202
v 0.051339 0.367615 -0.009269
v 0.151338 0.267617 -0.049202
v 0.051339 0.267617 -0.049202
v -0.048659 0.267617 -0.149200
v -0.019146 0.367615 -0.049202
v -0.048659 0.367615 -0.149200
v -0.048659 0.367615 -0.049202
v -0.148661 -0.432384 0.250797
v -0.148661 0.267617 -0.049202
v -0.048659 0.267617 -0.049202
v -0.048659 0.367615 -0.009269
v -0.048659 0.267617 -0.009269
v -0.148661 0.367615 -0.049202
v -0.048659 0.267617 0.050800
v -0.048659 0.367615 0.050800
v -0.048659 0.367615 0.150799
v -0.148661 0.367615 0.050800
v 0.251340 -0.532386 0.150799
v -0.019146 0.267617 -0.049202
v -0.019146 0.267617 -0.009269
v 0.051339 0.267617 -0.009269
v 0.051339 0.267617 0.150799
v 0.051339 0.367615 -0.149200
v -0.019146 0.367615 0.050800
v 0.051339 0.367615 0.150799
v 0.051339 0.367615 0.050800
v 0.051339 0.267617 0.050800
v -0.019146 0.267617 0.050800
v 0.151338 0.367615 0.050800
vt 0.4037 0.0267
vt 0.4037 0.0062
vt 0.4652 0.0062
vt 0.4037 0.0885
vt 0.4652 0.0267
vt 0.3832 0.0267
vt 0.8299 0.7140
vt 0.8094 0.7140
vt 0.8094 0.6523
vt 0.9283 0.3313
vt 0.9283 0.3519
vt 0.9078 0.3519
vt 0.9078 0.3313
vt 0.5596 0.6255
vt 0.5922 0.7222
vt 0.5307 0.7222
vt 0.7439 0.4547
vt 0.7643 0.4547
vt 0.7439 0.5165
vt 0.7766 0.5782
vt 0.7971 0.6399
vt 0.7766 0.6399
vt 0.6455 0.0267
vt 0.6781 0.0741
vt 0.6455 0.1708
vt 0.0799 0.4218
vt 0.1004 0.4218
vt 0.0799 0.5658
vt 0.5717 0.5782
vt 0.5922 0.5782
vt 0.4652 0.1091
vt 0.4652 0.0885
vt 0.7070 0.1708
vt 0.2602 0.7675
vt 0.2807 0.7058
vt 0.2807 0.7675
vt 0.4693 0.7963
vt 0.4488 0.7963
vt 0.4488 0.7346
vt 0.0922 0.7263
vt 0.0717 0.7881
vt 0.0717 0.7263
vt 0.7398 0.0679
vt 0.7193 0.0062
vt 0.7398 0.0062
vt 0.4857 0.0885
vt 0.4857 0.0267
vt 0.6865 0.0267
vt 0.7070 0.0267
vt 0.5307 0.5782
vt 0.2152 0.4547
vt 0.2152 0.5988
vt 0.1947 0.4547
vt 0.9037 0.0597
vt 0.8832 0.0597
vt 0.8832 0.0515
vt 0.9693 0.0802
vt 0.9488 0.1008
vt 0.9488 0.0802
vt 0.6660 0.0267
vt 0.3504 0.9754
vt 0.3709 0.9815
vt 0.3504 0.9815
vt 0.8299 0.6523
vt 0.4693 0.7346
vt 0.9078 0.5988
vt 0.9078 0.5782
vt 0.9283 0.5782
vt 0.9283 0.5988
vt 0.9283 0.6111
vt 0.9283 0.6317
vt 0.9078 0.6317
vt 0.9078 0.6111
vt 0.2807 0.8539
vt 0.2807 0.8745
vt 0.2602 0.8745
vt 0.2602 0.8539
vt 0.0922 0.7881
vt 0.7643 0.5165
vt 0.1414 0.4218
vt 0.1414 0.5658
vt 0.1209 0.4218
vt 0.7439 0.9074
vt 0.7643 0.9074
vt 0.7643 0.9156
vt 0.7439 0.9156
vt 0.8504 0.3519
vt 0.8422 0.3519
vt 0.8422 0.3313
vt 0.9078 0.6852
vt 0.9283 0.6852
vt 0.9283 0.7058
vt 0.9078 0.7058
vt 0.9283 0.6728
vt 0.9078 0.6728
vt 0.9078 0.6523
vt 0.9283 0.6523
vt 0.9611 0.2572
vt 0.9611 0.2778
vt 0.9406 0.2778
vt 0.9406 0.2572
vt 0.8750 0.6111
vt 0.8955 0.6111
vt 0.8955 0.6317
vt 0.8750 0.6317
vt 0.0922 0.9733
vt 0.0922 0.9938
vt 0.0717 0.9938
vt 0.0717 0.9733
vt 0.2275 0.9198
vt 0.2479 0.9198
vt 0.2479 0.9403
vt 0.2275 0.9403
vt 0.8627 0.3313
vt 0.8627 0.3519
vt 0.1004 0.4012
vt 0.1209 0.4012
vt 0.7643 0.9280
vt 0.7439 0.9280
vt 0.8627 0.7140
vt 0.8422 0.7140
vt 0.8422 0.6523
vt 0.8627 0.6523
vt 0.3832 0.0885
vt 0.4037 0.1091
vt 0.8627 0.9321
vt 0.8627 0.9527
vt 0.8422 0.9527
vt 0.8422 0.9321
vt 0.2602 0.7058
vt 0.8709 0.1132
vt 0.8709 0.1337
vt 0.8504 0.1337
vt 0.8504 0.1132
vt 0.7193 0.0679
vt 0.8422 0.8663
vt 0.8627 0.8663
vt 0.8627 0.8868
vt 0.8422 0.8868
vt 0.8955 0.3807
vt 0.8955 0.4012
vt 0.8750 0.4012
vt 0.8750 0.3807
vt 0.7971 0.5782
vt 0.1537 0.5988
vt 0.1537 0.4547
vt 0.1742 0.4547
vt 0.9037 0.1606
vt 0.8955 0.1606
vt 0.8955 0.1461
vt 0.9037 0.1461
vt 0.5512 0.5782
vt 0.6865 0.0062
vt 0.6660 0.0062
vt 0.5676 0.8951
vt 0.5676 0.9156
vt 0.5594 0.9156
vt 0.5594 0.8951
vt 0.0061 0.9878
vt 0.0061 0.9733
vt 0.0266 0.9733
vt 0.0266 0.9878
vt 0.3504 0.9609
vt 0.3709 0.9609
vt 0.7766 0.9527
vt 0.7971 0.9527
vt 0.7971 0.9732
vt 0.7766 0.9732
vt 0.9693 0.1008
vt 0.9611 0.9321
vt 0.9611 0.9527
vt 0.9406 0.9527
vt 0.9406 0.9321
vt 0.9548 0.1337
vt 0.9488 0.1132
vt 0.9693 0.1132
vt 0.9693 0.1337
vt 0.6783 0.9403
vt 0.6988 0.9403
vt 0.6988 0.9609
vt 0.6783 0.9609
vt 0.9939 0.2901
vt 0.9939 0.3107
vt 0.9734 0.3107
vt 0.9734 0.2901
vt 0.2807 0.9733
vt 0.2663 0.9733
vt 0.2663 0.9527
vt 0.2807 0.9527
vt 0.5512 0.5576
vt 0.5717 0.5576
vt 0.9406 0.5988
vt 0.9406 0.5782
vt 0.9611 0.5782
vt 0.9611 0.5988
vt 0.8832 0.1606
vt 0.8832 0.1461
vt 0.5471 0.9156
vt 0.5471 0.8951
vt 0.1742 0.4342
vt 0.1947 0.4342
vt 0.8832 0.0391
vt 0.9037 0.0391
vt 0.9037 0.1667
vt 0.8955 0.1667
vt 0.0061 0.9938
vt 0.0266 0.9938
vt 0.2602 0.9733
vt 0.2602 0.9527
vt 0.9488 0.1337
vt 0.8832 0.1667
vn 0.0000 -1.0000 0.0000
vn 0.0000 1.0000 0.0000
vn 0.0000 0.0000 -1.0000
vn 0.0000 -0.0000 1.0000
vn -1.0000 0.0000 0.0000
vn 1.0000 0.0000 0.0000
usemtl palette
s 1
f 1/1/1 2/2/1 3/3/1
f 4/4/1 1/1/1 5/5/1
f 4/4/1 6/6/1 1/1/1
f 7/7/2 8/8/2 9/9/2
f 5/10/3 3/11/3 8/12/3 7/13/3
f 10/14/4 11/15/4 12/16/4
f 2/17/5 9/18/5 3/19/5
f 13/20/2 14/21/2 7/22/2
f 15/23/3 16/24/3 7/25/3
f 17/26/5 18/27/5 11/28/5
f 19/29/4 17/30/4 10/14/4
f 20/31/1 4/4/1 21/32/1
f 16/24/3 13/33/3 7/25/3
f 22/34/2 13/35/2 12/36/2
f 23/37/3 24/38/3 25/39/3
f 26/40/4 6/41/4 27/42/4
f 22/43/6 20/44/6 28/45/6
f 24/46/1 21/32/1 25/47/1
f 29/48/3 30/49/3 16/24/3
f 31/50/4 10/14/4 12/16/4
f 31/51/6 12/52/6 32/53/6
f 33/54/2 34/55/2 35/56/2
f 36/57/2 29/58/2 37/59/2
f 38/60/3 29/48/3 16/24/3
f 39/61/2 40/62/2 41/63/2
f 5/5/1 1/1/1 3/3/1
f 11/64/2 7/7/2 9/9/2
f 14/65/3 23/37/3 25/39/3
f 2/66/4 1/67/4 11/68/4 9/69/4
f 11/70/5 1/71/5 6/72/5 42/73/5
f 14/74/5 25/75/5 5/76/5 7/77/5
f 26/40/4 42/78/4 6/41/4
f 3/19/5 9/18/5 8/79/5
f 15/80/5 7/81/5 11/28/5 43/82/5
f 44/83/6 41/84/6 45/85/6 46/86/6
f 10/14/4 17/30/4 11/15/4
f 45/87/2 41/88/2 47/89/2
f 41/90/3 44/91/3 43/92/3 47/93/3
f 38/94/2 15/95/2 43/96/2 44/97/2
f 40/98/5 38/99/5 44/100/5 41/101/5
f 18/102/2 17/103/2 19/104/2 48/105/2
f 49/106/5 48/107/5 19/108/5 50/109/5
f 18/110/4 48/111/4 49/112/4 51/113/4
f 47/89/2 51/114/2 49/115/2 45/87/2
f 15/23/3 38/60/3 16/24/3
f 11/28/5 18/27/5 43/82/5
f 51/116/5 47/117/5 43/82/5 18/27/5
f 46/86/6 45/85/6 49/118/6 48/119/6
f 11/120/2 42/121/2 26/122/2 12/123/2
f 21/32/1 4/4/1 5/5/1
f 4/4/1 27/124/1 6/6/1
f 20/31/1 52/125/1 4/4/1
f 4/126/6 12/127/6 26/128/6 27/129/6
f 22/34/2 28/130/2 13/35/2
f 20/131/3 21/132/3 13/133/3 28/134/3
f 22/43/6 52/135/6 20/44/6
f 4/136/4 52/137/4 22/138/4 12/139/4
f 24/140/6 23/141/6 13/142/6 21/143/6
f 25/47/1 21/32/1 5/5/1
f 13/20/2 23/144/2 14/21/2
f 13/145/6 30/146/6 36/147/6 12/52/6
f 16/24/3 30/49/3 13/33/3
f 53/148/2 54/149/2 55/150/2 37/151/2
f 31/50/4 56/152/4 10/14/4
f 57/153/3 29/48/3 38/60/3 40/154/3
f 34/155/5 37/156/5 55/157/5 35/158/5
f 53/159/4 37/160/4 34/161/4 39/162/4
f 40/62/2 39/61/2 34/163/2 57/164/2
f 29/165/6 57/166/6 34/167/6 37/168/6
f 36/57/2 30/169/2 29/58/2
f 36/170/3 37/171/3 34/172/3 33/173/3
f 58/174/2 50/175/2 59/176/2 60/177/2
f 61/178/2 56/179/2 31/180/2 32/181/2
f 61/182/6 60/183/6 59/184/6 56/185/6
f 61/186/3 62/187/3 58/188/3 60/189/3
f 19/29/4 56/152/4 59/190/4 50/191/4
f 61/192/4 32/193/4 63/194/4 60/195/4
f 54/149/2 62/196/2 61/197/2 55/150/2
f 56/152/4 19/29/4 10/14/4
f 32/53/6 12/52/6 36/147/6
f 35/158/5 55/157/5 61/198/5 60/199/5
f 36/147/6 33/200/6 63/201/6 32/53/6
f 35/56/2 60/202/2 63/203/2 33/54/2
f 44/204/2 46/205/2 54/149/2 53/148/2
f 44/206/4 53/159/4 39/162/4 41/207/4
f 62/187/3 48/208/3 49/209/3 58/188/3
f 50/175/2 58/174/2 49/210/2
f 46/205/2 48/211/2 62/196/2 54/149/2
