# Blender v2.78 (sub 0) OBJ File: ''
# www.blender.org
mtllib PowerupInfiniteText.mtl
o Copy_Powerups
v -0.249388 0.150389 -0.053166
v -0.149389 -0.049611 -0.053166
v -0.249388 -0.149610 -0.053166
v -0.149389 0.050387 0.046832
v -0.249388 0.150389 0.046832
v -0.149389 -0.049611 0.046832
v -0.049391 -0.049611 -0.053166
v -0.049391 -0.149610 -0.053166
v -0.049391 -0.049611 0.046832
v -0.049391 -0.149610 0.046832
v -0.049391 -0.049611 0.016627
v -0.249388 -0.149610 0.046832
v -0.049391 0.150389 -0.053166
v -0.149389 0.050387 -0.053166
v 0.050611 -0.049611 -0.053166
v 0.150610 -0.049611 -0.053166
v 0.050611 -0.149610 -0.053166
v 0.150610 -0.049611 0.046832
v 0.050611 -0.049611 0.016627
v 0.050611 -0.049611 0.046832
v 0.150610 0.050387 0.046832
v 0.050611 0.050387 0.046832
v 0.050611 0.050387 0.016627
v 0.250612 -0.149610 0.046832
v 0.250612 -0.149610 -0.053166
v 0.250612 0.150389 -0.053166
v 0.250612 0.150389 0.046832
v 0.150610 0.050387 -0.053166
v 0.050611 0.150389 -0.053166
v 0.050611 0.150389 0.046832
v 0.050611 0.050387 -0.053166
v 0.050611 -0.149610 0.046832
v -0.049391 0.050387 0.016627
v -0.049391 -0.002040 0.016627
v -0.049391 -0.002040 0.046832
v -0.049391 0.050387 0.046832
v -0.049391 0.050387 -0.053166
v -0.049391 -0.002040 -0.053166
v -0.049391 0.150389 0.046832
v -0.003207 -0.049611 0.046832
v -0.003207 -0.049611 0.016627
v 0.050611 -0.002040 -0.053166
v -0.003207 -0.002040 -0.053166
v -0.003207 0.050387 -0.053166
v 0.050611 -0.002040 0.016627
v 0.050611 -0.002040 0.046832
v -0.003207 0.050387 0.016627
v -0.003207 0.050387 0.046832
v -0.003207 -0.002040 0.046832
v -0.003207 -0.049611 -0.053166
vt 0.1537 0.6111
vt 0.1742 0.6523
vt 0.1537 0.6728
vt 0.2275 0.6523
vt 0.2070 0.6728
vt 0.2275 0.6317
vt 0.1947 0.6523
vt 0.1947 0.6728
vt 0.9939 0.1831
vt 0.9939 0.2037
vt 0.9877 0.1831
vt 0.2479 0.6317
vt 0.2479 0.6111
vt 0.8094 0.5165
vt 0.8299 0.4547
vt 0.8299 0.5165
vt 0.1947 0.6111
vt 0.1742 0.6317
vt 0.1004 0.5988
vt 0.0799 0.5988
vt 0.1004 0.5782
vt 0.0594 0.9403
vt 0.0389 0.9465
vt 0.0389 0.9403
vt 0.7111 0.9403
vt 0.7316 0.9403
vt 0.7316 0.9465
vt 0.8627 0.6399
vt 0.8422 0.6399
vt 0.8422 0.5782
vt 0.0594 0.6399
vt 0.0594 0.5782
vt 0.0061 0.5782
vt 0.0266 0.6193
vt 0.0061 0.6399
vt 0.0799 0.6193
vt 0.0266 0.5988
vt 0.1004 0.6399
vt 0.7111 0.9280
vt 0.7111 0.9074
vt 0.7173 0.9280
vt 0.1004 0.6193
vt 0.8299 0.8416
vt 0.8094 0.8416
vt 0.8094 0.8004
vt 0.8299 0.8004
vt 0.8627 0.7675
vt 0.8422 0.7675
vt 0.8422 0.7263
vt 0.8627 0.7263
vt 0.6845 0.9732
vt 0.6845 0.9840
vt 0.6783 0.9840
vt 0.6783 0.9732
vt 0.2070 0.6111
vt 0.9611 0.4465
vt 0.9611 0.4527
vt 0.9406 0.4465
vt 0.6845 0.9938
vt 0.6783 0.9938
vt 0.9406 0.4856
vt 0.9406 0.4794
vt 0.9611 0.4794
vt 0.9734 0.2037
vt 0.9734 0.1831
vt 0.8094 0.4547
vt 0.9406 0.4671
vt 0.9611 0.4671
vt 0.7643 0.9403
vt 0.7643 0.9609
vt 0.7439 0.9609
vt 0.7439 0.9403
vt 0.6988 0.9732
vt 0.6988 0.9840
vt 0.9611 0.5000
vt 0.9406 0.5000
vt 0.6988 0.9938
vt 0.8422 0.7798
vt 0.8627 0.7798
vt 0.8627 0.8210
vt 0.8422 0.8210
vt 0.2479 0.6728
vt 0.5143 0.9486
vt 0.5143 0.9280
vt 0.5348 0.9280
vt 0.5286 0.9486
vt 0.1947 0.6317
vt 0.5348 0.9486
vt 0.2479 0.6523
vt 0.8860 0.9321
vt 0.8860 0.9383
vt 0.8750 0.9383
vt 0.8750 0.9321
vt 0.9406 0.8539
vt 0.9406 0.8333
vt 0.9468 0.8333
vt 0.9283 0.7618
vt 0.9173 0.7618
vt 0.9173 0.7510
vt 0.9283 0.7510
vt 0.9550 0.0489
vt 0.9550 0.0597
vt 0.9488 0.0597
vt 0.9488 0.0489
vt 0.1959 0.9383
vt 0.1959 0.9321
vt 0.2070 0.9321
vt 0.2070 0.9383
vt 0.9173 0.8760
vt 0.9283 0.8760
vt 0.9283 0.8868
vt 0.9173 0.8868
vt 0.9283 0.7716
vt 0.9173 0.7716
vt 0.0471 0.6193
vt 0.0471 0.6399
vt 0.9550 0.0391
vt 0.9488 0.0391
vt 0.9173 0.8663
vt 0.9283 0.8663
vt 0.9611 0.8333
vt 0.9611 0.8539
vt 0.8860 0.9527
vt 0.8750 0.9527
vt 0.9693 0.0489
vt 0.9693 0.0597
vt 0.1959 0.9527
vt 0.2070 0.9527
vt 0.9693 0.0062
vt 0.9693 0.0267
vt 0.9488 0.0267
vt 0.9488 0.0062
vt 0.9693 0.0391
vt 0.0389 0.9609
vt 0.0594 0.9609
vt 0.7316 0.9609
vt 0.7111 0.9609
vt 0.6332 0.8498
vt 0.6127 0.8498
vt 0.6127 0.8086
vt 0.6332 0.8086
vt 0.8627 0.5782
vt 0.0471 0.5782
vt 0.7316 0.9074
vt 0.7316 0.9280
vt 0.0471 0.5988
vt 0.8955 0.9321
vt 0.8955 0.9383
vt 0.9078 0.7618
vt 0.9078 0.7510
vt 0.1865 0.9383
vt 0.1865 0.9321
vt 0.9078 0.8760
vt 0.9078 0.8868
vt 0.8955 0.9527
vt 0.1865 0.9527
vt 0.9078 0.7716
vt 0.9078 0.8663
vn 0.0000 0.0000 -1.0000
vn 0.0000 -0.0000 1.0000
vn 1.0000 0.0000 0.0000
vn -1.0000 0.0000 0.0000
vn -0.0000 1.0000 0.0000
vn 0.0000 -1.0000 -0.0000
usemtl palette
s 1
f 1/1/1 2/2/1 3/3/1
f 4/4/2 5/5/2 6/6/2
f 2/2/1 7/7/1 8/8/1
f 9/9/3 10/10/3 11/11/3
f 9/12/2 6/6/2 10/13/2
f 12/14/4 1/15/4 3/16/4
f 1/1/1 13/17/1 14/18/1
f 15/19/1 16/20/1 17/21/1
f 18/22/5 19/23/5 20/24/5
f 21/25/6 22/26/6 23/27/6
f 24/28/3 25/29/3 26/30/3
f 16/20/1 26/31/1 25/32/1
f 27/33/2 18/34/2 24/35/2
f 28/36/1 26/31/1 16/20/1
f 27/33/2 21/37/2 18/34/2
f 29/38/1 26/31/1 28/36/1
f 22/39/4 30/40/4 23/41/4
f 29/38/1 28/36/1 31/42/1
f 2/2/1 8/8/1 3/3/1
f 16/20/1 25/32/1 17/21/1
f 12/43/6 3/44/6 8/45/6 10/46/6
f 32/47/6 17/48/6 25/49/6 24/50/6
f 33/51/4 34/52/4 35/53/4 36/54/4
f 6/6/2 5/5/2 12/55/2
f 1/1/1 14/18/1 2/2/1
f 9/56/5 11/57/5 6/58/5
f 34/52/4 11/59/4 9/60/4 35/53/4
f 33/61/6 36/62/6 4/63/6
f 8/64/3 7/65/3 11/11/3 10/10/3
f 12/14/4 5/66/4 1/15/4
f 2/67/5 6/58/5 11/57/5 7/68/5
f 2/69/3 14/70/3 4/71/3 6/72/3
f 37/73/4 38/74/4 34/52/4 33/51/4
f 4/63/6 14/75/6 37/76/6 33/61/6
f 38/74/4 7/77/4 11/59/4 34/52/4
f 1/78/5 5/79/5 39/80/5 13/81/5
f 39/82/2 5/5/2 4/4/2
f 37/83/3 13/84/3 39/85/3 33/86/3
f 14/18/1 13/17/1 37/87/1
f 39/85/3 36/88/3 33/86/3
f 36/89/2 39/82/2 4/4/2
f 40/90/6 41/91/6 19/92/6 20/93/6
f 32/94/4 20/95/4 19/96/4
f 42/97/1 43/98/1 44/99/1 31/100/1
f 45/101/3 23/102/3 22/103/3 46/104/3
f 47/105/5 48/106/5 22/107/5 23/108/5
f 49/109/2 46/110/2 22/111/2 48/112/2
f 15/113/1 50/114/1 43/98/1 42/97/1
f 18/34/2 20/115/2 32/116/2
f 19/117/3 45/101/3 46/104/3 20/118/3
f 40/119/2 20/120/2 46/110/2 49/109/2
f 15/121/4 17/122/4 32/94/4 19/96/4
f 41/91/6 50/123/6 15/124/6 19/92/6
f 42/125/3 31/126/3 23/102/3 45/101/3
f 44/127/5 47/105/5 23/108/5 31/128/5
f 28/129/4 16/130/4 18/131/4 21/132/4
f 15/133/3 42/125/3 45/101/3 19/117/3
f 15/134/5 19/23/5 18/22/5 16/135/5
f 23/27/6 31/136/6 28/137/6 21/25/6
f 29/138/5 30/139/5 27/140/5 26/141/5
f 27/142/3 24/28/3 26/30/3
f 27/33/2 30/143/2 21/37/2
f 29/144/4 31/145/4 23/41/4 30/40/4
f 21/37/2 30/143/2 22/146/2
f 9/147/6 11/148/6 41/91/6 40/90/6
f 43/98/1 38/149/1 37/150/1 44/99/1
f 33/151/5 36/152/5 48/106/5 47/105/5
f 35/153/2 49/109/2 48/112/2 36/154/2
f 11/148/6 7/155/6 50/123/6 41/91/6
f 37/156/5 33/151/5 47/105/5 44/127/5
f 50/114/1 7/157/1 38/149/1 43/98/1
f 9/158/2 40/119/2 49/109/2 35/153/2
f 10/13/2 6/6/2 12/55/2
f 24/35/2 18/34/2 32/116/2
