# Blender v2.78 (sub 0) OBJ File: ''
# www.blender.org
mtllib PowerupHollowPointText.mtl
o Copy_Powerups.000
v 0.359879 -0.090000 -0.788987
v 0.459878 -0.490001 -0.788987
v 0.359879 -0.490001 -0.788987
v 0.359879 -0.490001 -0.688988
v 0.359879 -0.090000 -0.688988
v 0.459878 0.410000 -0.688988
v 0.459878 -0.490001 -0.688988
v 0.459878 -0.089607 -0.742115
v 0.159878 -0.090000 -0.688988
v 0.059876 -0.490001 -0.688988
v 0.159878 -0.490001 -0.688988
v 0.159878 -0.090000 -0.788987
v 0.159878 -0.490001 -0.788987
v 0.059876 -0.089607 -0.742115
v 0.059876 0.410000 -0.688988
v 0.159878 0.010002 -0.788987
v 0.159878 0.010002 -0.688988
v 0.359879 0.010002 -0.788987
v 0.359879 0.410000 -0.788987
v 0.459878 0.410000 -0.788987
v 0.359879 0.010002 -0.688988
v 0.359879 0.410000 -0.688988
v 0.159878 0.410000 -0.688988
v 0.159878 0.410000 -0.788987
v -0.140121 -0.490001 -0.788987
v -0.140121 -0.490001 -0.688988
v -0.140121 -0.090000 -0.688988
v -0.140121 0.010002 -0.788987
v -0.040122 -0.490001 -0.788987
v -0.140121 -0.090000 -0.788987
v -0.340121 0.010002 -0.788987
v -0.340121 -0.090000 -0.788987
v -0.340121 0.010002 -0.742115
v -0.440123 0.010002 -0.788987
v -0.340121 -0.090000 -0.688988
v -0.040122 0.410000 -0.788987
v -0.040122 -0.490001 -0.688988
v -0.140121 0.310001 -0.788987
v -0.140121 0.010002 -0.688988
v -0.140121 0.310001 -0.688988
v -0.340121 0.410000 -0.788987
v -0.040122 0.410000 -0.688988
v -0.440123 0.310001 -0.788987
v -0.340121 0.179707 -0.788987
v -0.340121 0.310001 -0.688988
v -0.440123 0.310001 -0.688988
v -0.340121 0.179707 -0.688988
v -0.340121 0.310001 -0.742115
v -0.340121 0.310001 -0.788987
v -0.340121 0.410000 -0.688988
v -0.440123 0.010002 -0.688988
v -0.340121 0.010002 -0.688988
v 0.059876 -0.490001 -0.788987
v 0.059876 0.410000 -0.788987
v -0.340121 0.164950 -0.742115
v -0.359879 -0.090000 0.788987
v -0.459878 -0.490001 0.788987
v -0.359879 -0.490001 0.788987
v -0.359879 -0.490001 0.688988
v -0.359879 -0.090000 0.688988
v -0.459878 0.410000 0.688988
v -0.459878 -0.490001 0.688988
v -0.459878 -0.089607 0.742115
v -0.159878 -0.090000 0.688988
v -0.059876 -0.490001 0.688988
v -0.159878 -0.490001 0.688988
v -0.159878 -0.090000 0.788987
v -0.159878 -0.490001 0.788987
v -0.059876 -0.089607 0.742115
v -0.059876 0.410000 0.688988
v -0.159878 0.010002 0.788987
v -0.159878 0.010002 0.688988
v -0.359879 0.010002 0.788987
v -0.359879 0.410000 0.788987
v -0.459878 0.410000 0.788987
v -0.359879 0.010002 0.688988
v -0.359879 0.410000 0.688988
v -0.159878 0.410000 0.688988
v -0.159878 0.410000 0.788987
v 0.140121 -0.490001 0.788987
v 0.140121 -0.490001 0.688988
v 0.140121 -0.090000 0.688988
v 0.140121 0.010002 0.788987
v 0.040122 -0.490001 0.788987
v 0.140121 -0.090000 0.788987
v 0.340121 0.010002 0.788987
v 0.340121 -0.090000 0.788987
v 0.340121 0.010002 0.742115
v 0.440123 0.010002 0.788987
v 0.340121 -0.090000 0.688988
v 0.040122 0.410000 0.788987
v 0.040122 -0.490001 0.688988
v 0.140121 0.310001 0.788987
v 0.140121 0.010002 0.688988
v 0.140121 0.310001 0.688988
v 0.340121 0.410000 0.788987
v 0.040122 0.410000 0.688988
v 0.440123 0.310001 0.788987
v 0.340121 0.179707 0.788987
v 0.340121 0.310001 0.688988
v 0.440123 0.310001 0.688988
v 0.340121 0.179707 0.688988
v 0.340121 0.310001 0.742115
v 0.340121 0.310001 0.788987
v 0.340121 0.410000 0.688988
v 0.440123 0.010002 0.688988
v 0.340121 0.010002 0.688988
v -0.059876 -0.490001 0.788987
v -0.059876 0.410000 0.788987
v 0.340121 0.164950 0.742115
vt 0.1209 0.0885
vt 0.1004 0.0062
vt 0.1209 0.0062
vt 0.2807 0.6934
vt 0.2602 0.6934
vt 0.2602 0.6111
vt 0.0061 0.0062
vt 0.0266 0.1091
vt 0.0061 0.1914
vt 0.7207 0.4835
vt 0.7316 0.3807
vt 0.7316 0.5658
vt 0.0676 0.1091
vt 0.0881 0.1914
vt 0.0676 0.1914
vt 0.2930 0.6111
vt 0.3135 0.6111
vt 0.2930 0.6934
vt 0.3135 0.6934
vt 0.1127 0.8210
vt 0.1332 0.8210
vt 0.1127 0.8621
vt 0.7207 0.2655
vt 0.7316 0.1831
vt 0.7316 0.3683
vt 0.5348 0.8498
vt 0.5143 0.8498
vt 0.5348 0.8086
vt 0.1209 0.1914
vt 0.1004 0.1914
vt 0.1209 0.1091
vt 0.6783 0.6605
vt 0.6988 0.5782
vt 0.6988 0.6605
vt 0.0676 0.0062
vt 0.0881 0.0062
vt 0.0676 0.0885
vt 0.0061 0.6523
vt 0.0266 0.6523
vt 0.0266 0.7346
vt 0.1127 0.5782
vt 0.1332 0.5782
vt 0.1332 0.6605
vt 0.0471 0.2860
vt 0.0676 0.3889
vt 0.0471 0.3066
vt 0.9078 0.7387
vt 0.9078 0.7181
vt 0.9174 0.7387
vt 0.6127 0.9280
vt 0.6332 0.9280
vt 0.6332 0.9376
vt 0.6988 0.8621
vt 0.6783 0.8621
vt 0.6988 0.8210
vt 0.6783 0.3683
vt 0.6783 0.1831
vt 0.6988 0.3683
vt 0.0471 0.2243
vt 0.0676 0.2037
vt 0.8627 0.2572
vt 0.8422 0.3189
vt 0.8422 0.2572
vt 0.1742 0.8210
vt 0.1537 0.7593
vt 0.1742 0.7593
vt 0.8053 0.0679
vt 0.7848 0.0411
vt 0.8053 0.0062
vt 0.4160 0.7346
vt 0.4365 0.7346
vt 0.4160 0.7614
vt 0.1045 0.9074
vt 0.1141 0.9280
vt 0.1045 0.9280
vt 0.0799 0.3889
vt 0.0799 0.3683
vt 0.1209 0.3683
vt 0.0061 0.2037
vt 0.0061 0.2243
vt 0.7766 0.8004
vt 0.7971 0.8004
vt 0.7971 0.8621
vt 0.4365 0.7963
vt 0.4160 0.7963
vt 0.9939 0.2160
vt 0.9939 0.2366
vt 0.9734 0.2366
vt 0.9734 0.2160
vt 0.5471 0.9280
vt 0.5676 0.9280
vt 0.5676 0.9486
vt 0.5471 0.9486
vt 0.0266 0.0885
vt 0.0266 0.1914
vt 0.7111 0.5658
vt 0.7111 0.3807
vt 0.1332 0.8621
vt 0.2807 0.6111
vt 0.1824 0.0062
vt 0.1619 0.0885
vt 0.1619 0.0062
vt 0.7111 0.1831
vt 0.1619 0.1091
vt 0.1824 0.1914
vt 0.7111 0.3683
vt 0.5143 0.8086
vt 0.9406 0.9198
vt 0.9406 0.8992
vt 0.9611 0.8992
vt 0.9611 0.9198
vt 0.6783 0.5782
vt 0.0266 0.0062
vt 0.0717 0.9280
vt 0.0717 0.9074
vt 0.0922 0.9074
vt 0.0922 0.9280
vt 0.0061 0.7346
vt 0.1619 0.1914
vt 0.9939 0.4465
vt 0.9939 0.4671
vt 0.9734 0.4671
vt 0.9734 0.4465
vt 0.1209 0.2860
vt 0.1414 0.2037
vt 0.1414 0.3889
vt 0.1209 0.3066
vt 0.1209 0.2037
vt 0.0799 0.2860
vt 0.0799 0.3066
vt 0.0061 0.3066
vt 0.0061 0.2860
vt 0.5471 0.8086
vt 0.5567 0.8086
vt 0.5471 0.8498
vt 0.9283 0.7181
vt 0.9283 0.7387
vt 0.6332 0.9486
vt 0.6127 0.9486
vt 0.5676 0.8498
vt 0.5676 0.8086
vt 0.6783 0.8210
vt 0.1127 0.6605
vt 0.0471 0.3889
vt 0.8518 0.1831
vt 0.8518 0.2130
vt 0.8422 0.2099
vt 0.8422 0.1831
vt 0.6988 0.1831
vt 0.8627 0.1831
vt 0.8627 0.2099
vt 0.7848 0.0679
vt 0.0158 0.8621
vt 0.0061 0.8621
vt 0.0061 0.8210
vt 0.8750 0.9856
vt 0.8750 0.9650
vt 0.8846 0.9650
vt 0.1537 0.8210
vt 0.1250 0.9280
vt 0.1250 0.9074
vt 0.8955 0.9650
vt 0.8955 0.9856
vt 0.0266 0.8210
vt 0.0266 0.8621
vt 0.7766 0.8621
vt 0.8518 0.2449
vt 0.8422 0.2449
vt 0.8627 0.3189
vt 0.8627 0.2449
vt 0.7848 0.0062
vt 0.1209 0.0885
vt 0.1004 0.0062
vt 0.1209 0.0062
vt 0.2807 0.6934
vt 0.2602 0.6934
vt 0.2602 0.6111
vt 0.0061 0.0062
vt 0.0266 0.1091
vt 0.0061 0.1914
vt 0.7207 0.4835
vt 0.7316 0.3807
vt 0.7316 0.5658
vt 0.0676 0.1091
vt 0.0881 0.1914
vt 0.0676 0.1914
vt 0.2930 0.6111
vt 0.3135 0.6111
vt 0.2930 0.6934
vt 0.3135 0.6934
vt 0.1127 0.8210
vt 0.1332 0.8210
vt 0.1127 0.8621
vt 0.7207 0.2655
vt 0.7316 0.1831
vt 0.7316 0.3683
vt 0.5348 0.8498
vt 0.5143 0.8498
vt 0.5348 0.8086
vt 0.1209 0.1914
vt 0.1004 0.1914
vt 0.1209 0.1091
vt 0.6783 0.6605
vt 0.6988 0.5782
vt 0.6988 0.6605
vt 0.0676 0.0062
vt 0.0881 0.0062
vt 0.0676 0.0885
vt 0.0061 0.6523
vt 0.0266 0.6523
vt 0.0266 0.7346
vt 0.1127 0.5782
vt 0.1332 0.5782
vt 0.1332 0.6605
vt 0.0471 0.2860
vt 0.0676 0.3889
vt 0.0471 0.3066
vt 0.9078 0.7387
vt 0.9078 0.7181
vt 0.9174 0.7387
vt 0.6127 0.9280
vt 0.6332 0.9280
vt 0.6332 0.9376
vt 0.6988 0.8621
vt 0.6783 0.8621
vt 0.6988 0.8210
vt 0.6783 0.3683
vt 0.6783 0.1831
vt 0.6988 0.3683
vt 0.0471 0.2243
vt 0.0676 0.2037
vt 0.8627 0.2572
vt 0.8422 0.3189
vt 0.8422 0.2572
vt 0.1742 0.8210
vt 0.1537 0.7593
vt 0.1742 0.7593
vt 0.8053 0.0679
vt 0.7848 0.0411
vt 0.8053 0.0062
vt 0.4160 0.7346
vt 0.4365 0.7346
vt 0.4160 0.7614
vt 0.1045 0.9074
vt 0.1141 0.9280
vt 0.1045 0.9280
vt 0.0799 0.3889
vt 0.0799 0.3683
vt 0.1209 0.3683
vt 0.0061 0.2037
vt 0.0061 0.2243
vt 0.7766 0.8004
vt 0.7971 0.8004
vt 0.7971 0.8621
vt 0.4365 0.7963
vt 0.4160 0.7963
vt 0.9939 0.2160
vt 0.9939 0.2366
vt 0.9734 0.2366
vt 0.9734 0.2160
vt 0.5471 0.9280
vt 0.5676 0.9280
vt 0.5676 0.9486
vt 0.5471 0.9486
vt 0.0266 0.0885
vt 0.0266 0.1914
vt 0.7111 0.5658
vt 0.7111 0.3807
vt 0.1332 0.8621
vt 0.2807 0.6111
vt 0.1824 0.0062
vt 0.1619 0.0885
vt 0.1619 0.0062
vt 0.7111 0.1831
vt 0.1619 0.1091
vt 0.1824 0.1914
vt 0.7111 0.3683
vt 0.5143 0.8086
vt 0.9406 0.9198
vt 0.9406 0.8992
vt 0.9611 0.8992
vt 0.9611 0.9198
vt 0.6783 0.5782
vt 0.0266 0.0062
vt 0.0717 0.9280
vt 0.0717 0.9074
vt 0.0922 0.9074
vt 0.0922 0.9280
vt 0.0061 0.7346
vt 0.1619 0.1914
vt 0.9939 0.4465
vt 0.9939 0.4671
vt 0.9734 0.4671
vt 0.9734 0.4465
vt 0.1209 0.2860
vt 0.1414 0.2037
vt 0.1414 0.3889
vt 0.1209 0.3066
vt 0.1209 0.2037
vt 0.0799 0.2860
vt 0.0799 0.3066
vt 0.0061 0.3066
vt 0.0061 0.2860
vt 0.5471 0.8086
vt 0.5567 0.8086
vt 0.5471 0.8498
vt 0.9283 0.7181
vt 0.9283 0.7387
vt 0.6332 0.9486
vt 0.6127 0.9486
vt 0.5676 0.8498
vt 0.5676 0.8086
vt 0.6783 0.8210
vt 0.1127 0.6605
vt 0.0471 0.3889
vt 0.8518 0.1831
vt 0.8518 0.2130
vt 0.8422 0.2099
vt 0.8422 0.1831
vt 0.6988 0.1831
vt 0.8627 0.1831
vt 0.8627 0.2099
vt 0.7848 0.0679
vt 0.0158 0.8621
vt 0.0061 0.8621
vt 0.0061 0.8210
vt 0.8750 0.9856
vt 0.8750 0.9650
vt 0.8846 0.9650
vt 0.1537 0.8210
vt 0.1250 0.9280
vt 0.1250 0.9074
vt 0.8955 0.9650
vt 0.8955 0.9856
vt 0.0266 0.8210
vt 0.0266 0.8621
vt 0.7766 0.8621
vt 0.8518 0.2449
vt 0.8422 0.2449
vt 0.8627 0.3189
vt 0.8627 0.2449
vt 0.7848 0.0062
vn -0.0000 -0.0000 -1.0000
vn -1.0000 -0.0000 0.0000
vn 0.0000 0.0000 1.0000
vn 1.0000 -0.0000 -0.0000
vn 0.0000 -1.0000 0.0000
vn 0.0000 1.0000 -0.0000
usemtl palette
s 1
f 1/1/1 2/2/1 3/3/1
f 3/4/2 4/5/2 5/6/2
f 6/7/3 5/8/3 7/9/3
f 8/10/4 6/11/4 7/12/4
f 9/13/3 10/14/3 11/15/3
f 12/16/4 9/17/4 13/18/4
f 13/18/4 9/17/4 11/19/4
f 9/20/5 12/21/5 5/22/5
f 14/23/2 10/24/2 15/25/2
f 16/26/6 17/27/6 18/28/6
f 19/29/1 20/30/1 18/31/1
f 19/32/2 21/33/2 22/34/2
f 23/35/3 15/36/3 17/37/3
f 24/38/4 23/39/4 17/40/4
f 25/41/2 26/42/2 27/43/2
f 28/44/1 29/45/1 30/46/1
f 31/47/2 32/48/2 33/49/2
f 34/50/5 31/51/5 33/52/5
f 35/53/5 32/54/5 27/55/5
f 29/56/4 36/57/4 37/58/4
f 38/59/1 36/60/1 28/44/1
f 38/61/2 39/62/2 40/63/2
f 41/64/6 42/65/6 36/66/6
f 43/67/1 44/68/1 34/69/1
f 45/70/3 46/71/3 47/72/3
f 43/73/6 48/74/6 49/75/6
f 50/76/3 45/77/3 40/78/3
f 41/79/1 38/59/1 49/80/1
f 34/81/2 51/82/2 46/83/2
f 47/72/3 51/84/3 52/85/3
f 2/86/5 7/87/5 4/88/5 3/89/5
f 13/90/5 11/91/5 10/92/5 53/93/5
f 9/13/3 5/8/3 21/94/3 17/37/3
f 7/9/3 5/8/3 4/95/3
f 2/96/4 8/10/4 7/12/4
f 6/7/3 21/94/3 5/8/3
f 1/1/1 18/31/1 20/30/1
f 2/96/4 20/97/4 8/10/4
f 5/22/5 12/21/5 1/98/5
f 1/99/2 3/4/2 5/6/2
f 1/1/1 20/30/1 2/2/1
f 53/100/1 12/101/1 13/102/1
f 14/23/2 53/103/2 10/24/2
f 1/1/1 12/101/1 16/104/1 18/31/1
f 12/101/1 53/100/1 54/105/1 16/104/1
f 9/13/3 15/36/3 10/14/3
f 9/13/3 17/37/3 15/36/3
f 54/106/2 53/103/2 14/23/2
f 18/28/6 17/27/6 21/107/6
f 6/108/6 20/109/6 19/110/6 22/111/6
f 8/10/4 20/97/4 6/11/4
f 19/32/2 18/112/2 21/33/2
f 6/7/3 22/113/3 21/94/3
f 23/114/6 24/115/6 54/116/6 15/117/6
f 16/118/4 24/38/4 17/40/4
f 54/106/2 14/23/2 15/25/2
f 54/105/1 24/119/1 16/104/1
f 29/120/5 37/121/5 26/122/5 25/123/5
f 27/124/3 37/125/3 42/126/3 39/127/3
f 37/125/3 27/124/3 26/128/3
f 35/129/3 27/124/3 39/127/3 52/130/3
f 30/46/1 32/131/1 31/132/1 28/44/1
f 31/133/6 33/134/6 28/135/6
f 35/136/2 52/137/2 33/49/2 32/48/2
f 33/52/5 52/138/5 51/139/5 34/50/5
f 39/140/6 28/135/6 33/134/6 52/141/6
f 27/55/5 32/54/5 30/142/5
f 30/143/2 25/41/2 27/43/2
f 25/144/1 30/46/1 29/45/1
f 48/145/4 55/146/4 44/147/4 49/148/4
f 28/44/1 36/60/1 29/45/1
f 42/126/3 40/78/3 39/127/3
f 37/58/4 36/57/4 42/149/4
f 47/72/3 46/71/3 51/84/3
f 45/150/4 47/151/4 55/146/4 48/145/4
f 43/67/1 49/152/1 44/68/1
f 48/153/5 49/154/5 38/155/5
f 42/126/3 50/76/3 40/78/3
f 41/79/1 36/60/1 38/59/1
f 41/156/2 49/157/2 48/158/2
f 41/64/6 50/159/6 42/65/6
f 45/160/6 48/74/6 43/73/6 46/161/6
f 45/162/2 50/163/2 41/156/2 48/158/2
f 38/155/5 40/164/5 45/165/5 48/153/5
f 43/166/2 34/81/2 46/83/2
f 55/146/4 33/167/4 31/168/4 44/147/4
f 38/61/2 28/169/2 39/62/2
f 47/151/4 52/170/4 33/167/4 55/146/4
f 34/69/1 44/68/1 31/171/1
f 56/172/3 57/173/3 58/174/3
f 58/175/4 59/176/4 60/177/4
f 61/178/1 60/179/1 62/180/1
f 63/181/2 61/182/2 62/183/2
f 64/184/1 65/185/1 66/186/1
f 67/187/2 64/188/2 68/189/2
f 68/189/2 64/188/2 66/190/2
f 64/191/5 67/192/5 60/193/5
f 69/194/4 65/195/4 70/196/4
f 71/197/6 72/198/6 73/199/6
f 74/200/3 75/201/3 73/202/3
f 74/203/4 76/204/4 77/205/4
f 78/206/1 70/207/1 72/208/1
f 79/209/2 78/210/2 72/211/2
f 80/212/4 81/213/4 82/214/4
f 83/215/3 84/216/3 85/217/3
f 86/218/4 87/219/4 88/220/4
f 89/221/5 86/222/5 88/223/5
f 90/224/5 87/225/5 82/226/5
f 84/227/2 91/228/2 92/229/2
f 93/230/3 91/231/3 83/215/3
f 93/232/4 94/233/4 95/234/4
f 96/235/6 97/236/6 91/237/6
f 98/238/3 99/239/3 89/240/3
f 100/241/1 101/242/1 102/243/1
f 98/244/6 103/245/6 104/246/6
f 105/247/1 100/248/1 95/249/1
f 96/250/3 93/230/3 104/251/3
f 89/252/4 106/253/4 101/254/4
f 102/243/1 106/255/1 107/256/1
f 57/257/5 62/258/5 59/259/5 58/260/5
f 68/261/5 66/262/5 65/263/5 108/264/5
f 64/184/1 60/179/1 76/265/1 72/208/1
f 62/180/1 60/179/1 59/266/1
f 57/267/2 63/181/2 62/183/2
f 61/178/1 76/265/1 60/179/1
f 56/172/3 73/202/3 75/201/3
f 57/267/2 75/268/2 63/181/2
f 60/193/5 67/192/5 56/269/5
f 56/270/4 58/175/4 60/177/4
f 56/172/3 75/201/3 57/173/3
f 108/271/3 67/272/3 68/273/3
f 69/194/4 108/274/4 65/195/4
f 56/172/3 67/272/3 71/275/3 73/202/3
f 67/272/3 108/271/3 109/276/3 71/275/3
f 64/184/1 70/207/1 65/185/1
f 64/184/1 72/208/1 70/207/1
f 109/277/4 108/274/4 69/194/4
f 73/199/6 72/198/6 76/278/6
f 61/279/6 75/280/6 74/281/6 77/282/6
f 63/181/2 75/268/2 61/182/2
f 74/203/4 73/283/4 76/204/4
f 61/178/1 77/284/1 76/265/1
f 78/285/6 79/286/6 109/287/6 70/288/6
f 71/289/2 79/209/2 72/211/2
f 109/277/4 69/194/4 70/196/4
f 109/276/3 79/290/3 71/275/3
f 84/291/5 92/292/5 81/293/5 80/294/5
f 82/295/1 92/296/1 97/297/1 94/298/1
f 92/296/1 82/295/1 81/299/1
f 90/300/1 82/295/1 94/298/1 107/301/1
f 85/217/3 87/302/3 86/303/3 83/215/3
f 86/304/6 88/305/6 83/306/6
f 90/307/4 107/308/4 88/220/4 87/219/4
f 88/223/5 107/309/5 106/310/5 89/221/5
f 94/311/6 83/306/6 88/305/6 107/312/6
f 82/226/5 87/225/5 85/313/5
f 85/314/4 80/212/4 82/214/4
f 80/315/3 85/217/3 84/216/3
f 103/316/2 110/317/2 99/318/2 104/319/2
f 83/215/3 91/231/3 84/216/3
f 97/297/1 95/249/1 94/298/1
f 92/229/2 91/228/2 97/320/2
f 102/243/1 101/242/1 106/255/1
f 100/321/2 102/322/2 110/317/2 103/316/2
f 98/238/3 104/323/3 99/239/3
f 103/324/5 104/325/5 93/326/5
f 97/297/1 105/247/1 95/249/1
f 96/250/3 91/231/3 93/230/3
f 96/327/4 104/328/4 103/329/4
f 96/235/6 105/330/6 97/236/6
f 100/331/6 103/245/6 98/244/6 101/332/6
f 100/333/4 105/334/4 96/327/4 103/329/4
f 93/326/5 95/335/5 100/336/5 103/324/5
f 98/337/4 89/252/4 101/254/4
f 110/317/2 88/338/2 86/339/2 99/318/2
f 93/232/4 83/340/4 94/233/4
f 102/322/2 107/341/2 88/338/2 110/317/2
f 89/240/3 99/239/3 86/342/3
