# Blender v2.78 (sub 0) OBJ File: ''
# www.blender.org
mtllib SpikeTrapTopCleaned.mtl
o Copy_spikeTrapTop
v -1.100002 -1.627556 -1.100003
v -0.900002 -1.627556 -0.900003
v -1.100002 -1.627556 -0.900003
v -0.900002 -1.627556 -1.100003
v -1.100002 -1.627556 -0.100003
v -0.900002 -1.627556 0.099997
v -1.100002 -1.627556 0.099997
v -0.900002 -1.627556 -0.100003
v -1.100002 0.472445 -1.100002
v -1.100002 -0.474429 -0.900003
v -1.100002 0.472445 -1.000001
v -1.000001 0.372444 -1.100002
v -0.900002 0.372444 -1.000001
v -1.100002 0.472445 -0.000001
v -1.000001 0.572446 -0.100002
v -0.900002 -0.307762 -0.100002
v -0.900002 0.572446 -0.000001
v -0.100002 -1.627556 -1.100003
v 0.099998 -1.627556 -0.900003
v -0.100002 -1.627556 -0.900003
v -0.100002 -1.627556 -0.100003
v 0.099998 -1.627556 0.099997
v -0.100002 -1.627556 0.099997
v -0.000001 0.472445 -1.100002
v -0.100002 0.472445 -1.000001
v -0.000001 0.572446 -0.900003
v -0.100002 0.372444 -0.000001
v -1.100002 -1.627556 0.899997
v -0.900002 -1.627556 1.099997
v -1.100002 -1.627556 1.099997
v -1.100002 0.272446 0.999999
v -0.900002 -1.627556 0.899997
v -1.100002 0.472445 0.099997
v -1.000001 0.472445 0.099997
v -1.100002 0.272446 0.899998
v -1.100002 0.372444 1.099997
v -1.000001 0.272446 0.899998
v -0.900002 0.572446 1.099997
v -0.900002 0.372444 0.899998
v -0.900002 0.372444 0.999999
v -0.100002 -1.627556 0.899997
v 0.099998 -1.627556 1.099997
v -0.100002 -1.627556 1.099997
v -0.000001 0.272446 0.099997
v -0.100002 0.372444 0.099997
v -0.100002 0.472445 0.899998
v -0.100002 0.372444 0.999999
v -0.100002 0.372444 1.099997
v -0.000001 0.372444 1.099997
v -1.000001 0.472445 -0.900003
v -0.900002 0.472445 -0.900003
v -0.900002 0.372444 -1.100002
v -1.100002 0.572446 -0.100002
v -1.000001 0.372444 -1.000001
v -1.000001 0.472445 -1.100002
v -1.000001 0.472445 -1.000001
v -1.100002 0.672445 -0.900003
v -1.100002 0.672445 -1.000001
v -1.000001 0.672445 -1.000001
v -1.000001 0.672445 -0.900003
v -0.900002 0.472445 -1.000001
v -1.100002 0.572446 -0.000001
v -1.000001 0.472445 -0.000001
v -1.000001 0.572446 -0.000001
v -1.000001 0.772446 -0.100002
v -1.000001 0.772446 -0.000001
v -0.900002 0.772446 -0.100002
v -0.900002 0.772446 -0.000001
v -0.100002 0.472445 -1.100002
v -0.100002 0.572446 -0.900003
v -0.100002 0.572446 -0.100002
v -0.000001 0.372444 -0.100002
v -0.100002 0.572447 -1.000001
v -0.000001 0.472445 -1.000001
v -0.000001 0.572447 -1.100002
v -0.000001 0.572447 -1.000001
v -0.000001 0.772446 -1.000001
v -0.000001 0.772446 -0.900003
v -0.000001 0.272446 -0.000001
v -0.000001 0.372444 -0.000001
v -0.100002 0.572446 -0.000001
v -0.000001 0.572446 -0.100002
v -0.000001 0.572446 -0.000001
v -0.900002 0.572446 0.099997
v -1.000001 0.372444 1.099997
v -1.000001 0.572446 0.099997
v -1.100002 0.372444 0.999999
v -1.000001 0.272446 0.999999
v -1.000001 0.372444 0.899998
v -1.000001 0.372444 0.999999
v -1.000001 0.572446 0.999999
v -1.000001 0.572446 1.099997
v -0.900002 0.572446 0.999999
v -0.000001 0.472445 0.899998
v -0.000001 0.372444 0.099997
v -0.000001 0.372444 0.999999
v -0.100002 0.472445 0.999999
v -0.000001 0.472445 0.999999
v -0.000001 0.472445 1.099997
v -0.000001 0.672445 0.899998
v -0.000001 0.672445 0.999999
v 0.099998 -1.627556 -1.100003
v 0.099998 -1.627556 -0.100003
v 0.099998 0.572447 -1.100002
v 0.899998 -1.627556 -1.100003
v 1.099998 -1.627556 -0.900003
v 0.899998 -1.627556 -0.900003
v 1.099998 -1.627556 -1.100003
v 0.899998 -1.627556 -0.100003
v 1.099998 -1.627556 0.099997
v 0.899998 -1.627556 0.099997
v 1.099998 -1.627556 -0.100003
v 0.899998 0.372444 -1.100002
v 0.899998 0.272446 -1.000001
v 1.000000 0.372444 -1.100002
v 1.000000 0.372444 -0.100002
v 0.899998 0.372444 -0.000001
v 0.899998 0.372444 -0.100002
v 1.099998 0.472445 -0.000001
v 0.099998 -1.627556 0.899997
v 0.099998 0.272446 0.099997
v 0.099998 0.472445 1.099997
v 0.899998 -1.627556 0.899997
v 1.099998 -1.627556 1.099997
v 0.899998 -1.627556 1.099997
v 1.000000 0.172445 0.899998
v 1.099998 -1.627556 0.899997
v 0.899998 0.472445 0.099997
v 1.000000 0.472445 0.099997
v 0.899998 0.172445 1.099997
v 0.899998 0.172445 0.999999
v 1.000000 0.072446 1.099997
v 1.099998 0.072446 1.099997
v 1.099998 0.072446 0.999999
v 0.099998 0.772446 -0.900003
v 0.099998 0.572447 -1.000001
v 0.099998 0.372444 -0.100002
v 0.099998 0.272446 -0.000001
v 0.099998 0.772446 -1.000001
v 0.099998 0.372444 -0.000001
v 0.899998 0.272446 -0.900003
v 1.000000 0.272446 -0.900003
v 1.099998 0.572447 -1.100002
v 1.099998 0.372444 -1.000001
v 1.099998 0.372444 -0.900003
v 1.099998 0.472445 -0.100002
v 0.899998 0.372444 -1.000001
v 1.000000 0.272446 -1.000001
v 1.000000 0.372444 -1.000001
v 1.000000 0.572447 -1.100002
v 1.000000 0.572447 -1.000001
v 1.000000 0.372444 -0.900003
v 1.099998 0.572447 -1.000001
v 1.000000 0.372444 -0.000001
v 0.899998 0.472445 -0.000001
v 1.000000 0.472445 -0.100002
v 1.000000 0.472445 -0.000001
v 1.000000 0.672445 -0.000001
v 1.099998 0.672445 -0.000001
v 0.099998 0.672445 0.899998
v 0.099998 0.472445 0.999999
v 0.099998 0.672445 0.999999
v 1.099998 0.672445 0.099997
v 0.899998 0.372444 0.899998
v 1.000000 0.072446 0.999999
v 1.000000 0.172445 0.999999
v 1.000000 0.172445 1.099997
v 1.099998 0.172445 0.899998
v 1.099998 0.172445 0.999999
v 1.000000 0.672445 0.099997
v 0.899998 0.372444 0.999999
v 1.000000 0.372444 0.899998
v 1.000000 0.372444 0.999999
vt 0.3700 0.9300
vt 0.3700 0.8900
vt 0.4100 0.9300
vt 0.4100 0.8900
vt 0.7340 0.9300
vt 0.7340 0.8900
vt 0.7740 0.9300
vt 0.2140 0.2354
vt 0.2340 0.0460
vt 0.2140 0.4660
vt 0.0260 0.0460
vt 0.0460 0.2220
vt 0.0460 0.4860
vt 0.8900 0.8820
vt 0.9300 0.8820
vt 0.9300 0.9220
vt 0.1820 0.4460
vt 0.1620 0.0060
vt 0.2020 0.0060
vt 0.2540 0.0460
vt 0.2540 0.4660
vt 0.7340 0.4580
vt 0.7740 0.8780
vt 0.7340 0.8780
vt 0.1500 0.4860
vt 0.1100 0.4860
vt 0.1100 0.2220
vt 0.8900 0.8700
vt 0.8900 0.8300
vt 0.9300 0.8700
vt 0.9300 0.8300
vt 0.5780 0.4780
vt 0.5980 0.4780
vt 0.5780 0.8980
vt 0.8580 0.0260
vt 0.8780 0.0260
vt 0.8380 0.4460
vt 0.0260 0.5180
vt 0.0460 0.5180
vt 0.0460 0.8980
vt 0.4620 0.8580
vt 0.4220 0.4780
vt 0.4620 0.4780
vt 0.5660 0.4580
vt 0.5660 0.8980
vt 0.5460 0.4980
vt 0.6820 0.8900
vt 0.7220 0.8900
vt 0.7220 0.9300
vt 0.0780 0.5180
vt 0.0980 0.8980
vt 0.0580 0.8980
vt 0.2140 0.8980
vt 0.2540 0.4780
vt 0.2540 0.8980
vt 0.2660 0.0460
vt 0.3060 0.4660
vt 0.2660 0.4660
vt 0.3900 0.4260
vt 0.3700 0.2366
vt 0.4100 0.0060
vt 0.8060 0.8580
vt 0.8260 0.4580
vt 0.8260 0.8580
vt 0.0060 0.0460
vt 0.0060 0.4860
vt 0.1620 0.9100
vt 0.1820 0.9100
vt 0.1820 0.9500
vt 0.3700 0.4660
vt 0.7860 0.8780
vt 0.8060 0.8780
vt 0.2140 0.0060
vt 0.2340 0.0060
vt 0.3900 0.4660
vt 0.1300 0.0460
vt 0.1100 0.0060
vt 0.0260 0.0060
vt 0.0460 0.0060
vt 0.8060 0.0260
vt 0.8260 0.0260
vt 0.8260 0.4460
vt 0.6500 0.4980
vt 0.6700 0.4580
vt 0.6700 0.8980
vt 0.7860 0.0060
vt 0.8060 0.0060
vt 0.8380 0.0060
vt 0.7020 0.0460
vt 0.7220 0.0460
vt 0.6820 0.4460
vt 0.0060 0.4980
vt 0.0260 0.4980
vt 0.4420 0.8780
vt 0.4220 0.8780
vt 0.4420 0.8580
vt 0.5460 0.4580
vt 0.0780 0.4980
vt 0.0980 0.4980
vt 0.0980 0.4860
vt 0.0580 0.4860
vt 0.0580 0.0460
vt 0.3180 0.9300
vt 0.3180 0.8900
vt 0.3580 0.9300
vt 0.3580 0.8900
vt 0.8380 0.9300
vt 0.8380 0.8900
vt 0.8780 0.9300
vt 0.3700 0.8780
vt 0.4100 0.4780
vt 0.4100 0.8780
vt 0.5260 0.0460
vt 0.5660 0.4460
vt 0.5260 0.4460
vt 0.8580 0.4780
vt 0.8780 0.4780
vt 0.8780 0.8780
vt 0.6820 0.4780
vt 0.7020 0.4780
vt 0.6820 0.8780
vt 0.4220 0.9300
vt 0.4220 0.8900
vt 0.4620 0.9300
vt 0.4620 0.8900
vt 0.4940 0.4260
vt 0.4740 0.4260
vt 0.5140 0.0060
vt 0.8380 0.4580
vt 0.8380 0.8780
vt 0.3180 0.5180
vt 0.3380 0.5180
vt 0.3180 0.8780
vt 0.9100 0.4780
vt 0.9300 0.4580
vt 0.8900 0.8180
vt 0.9420 0.3460
vt 0.9420 0.0060
vt 0.9620 0.3460
vt 0.2020 0.4860
vt 0.0980 0.0060
vt 0.0780 0.0460
vt 0.6500 0.0060
vt 0.6700 0.0060
vt 0.6500 0.0260
vt 0.0780 0.0060
vt 0.1100 0.4980
vt 0.1300 0.5180
vt 0.1100 0.8980
vt 0.4420 0.0460
vt 0.4220 0.4660
vt 0.4220 0.0460
vt 0.5460 0.0060
vt 0.5660 0.0060
vt 0.5460 0.0460
vt 0.2780 0.9100
vt 0.2980 0.9500
vt 0.2780 0.9500
vt 0.7020 0.4580
vt 0.7220 0.4580
vt 0.3580 0.0460
vt 0.3580 0.4660
vt 0.3380 0.0460
vt 0.2860 0.0060
vt 0.3060 0.0060
vt 0.2860 0.0460
vt 0.2660 0.9500
vt 0.2460 0.9500
vt 0.2660 0.9100
vt 0.5140 0.4660
vt 0.3580 0.4780
vt 0.3580 0.8780
vt 0.2020 0.8980
vt 0.1820 0.8580
vt 0.2020 0.4980
vt 0.9100 0.4580
vt 0.9820 0.0060
vt 0.9820 0.3660
vt 0.1220 0.9500
vt 0.1420 0.9100
vt 0.1420 0.9500
vt 0.8580 0.4580
vt 0.4620 0.0060
vt 0.4420 0.0060
vt 0.1820 0.8980
vt 0.8900 0.9220
vt 0.7860 0.9300
vt 0.7860 0.8900
vt 0.8260 0.9300
vt 0.6820 0.9300
vt 0.7740 0.8900
vt 0.8260 0.8900
vt 0.8780 0.8900
vt 0.7540 0.4780
vt 0.7860 0.4580
vt 0.6180 0.8980
vt 0.6300 0.4460
vt 0.6700 0.4460
vt 0.7860 0.4460
vt 0.6300 0.8980
vt 0.3700 0.0060
vt 0.0060 0.8980
vt 0.7220 0.4460
vt 0.6300 0.4980
vt 0.2340 0.4980
vt 0.2140 0.4980
vt 0.8780 0.4460
vt 0.4100 0.4260
vt 0.7740 0.4780
vt 0.7540 0.4580
vt 0.1620 0.9500
vt 0.5980 0.4580
vt 0.6180 0.4580
vt 0.1300 0.0060
vt 0.1620 0.4460
vt 0.6500 0.4580
vt 0.5780 0.0060
vt 0.5980 0.0060
vt 0.5980 0.0460
vt 0.1500 0.0460
vt 0.6820 0.0060
vt 0.8580 0.0060
vt 0.7020 0.0060
vt 0.2340 0.4780
vt 0.7220 0.8780
vt 0.2860 0.8780
vt 0.2660 0.8780
vt 0.2660 0.4780
vt 0.3060 0.4780
vt 0.3900 0.4980
vt 0.8900 0.3860
vt 0.8900 0.0060
vt 0.9300 0.0060
vt 0.0580 0.5180
vt 0.3060 0.8980
vt 0.1620 0.4980
vt 0.9300 0.8180
vt 0.8900 0.4780
vt 0.4740 0.0060
vt 0.6180 0.4460
vt 0.6180 0.0460
vt 0.1820 0.4860
vt 0.9100 0.4060
vt 0.9100 0.3860
vt 0.9300 0.4060
vt 0.1500 0.8980
vt 0.1500 0.5180
vt 0.3700 0.4980
vt 0.3900 0.4780
vt 0.7540 0.0060
vt 0.7540 0.0460
vt 0.7340 0.0060
vt 0.1300 0.4980
vt 0.2980 0.9100
vt 0.2460 0.9100
vt 0.2860 0.8980
vt 0.3380 0.0060
vt 0.3180 0.0060
vt 0.4620 0.4660
vt 0.1620 0.8580
vt 0.9620 0.3660
vt 0.1220 0.9100
vt 0.4940 0.4660
vt 0.3380 0.4780
vt 0.8900 0.4180
vt 0.9100 0.4180
vt 0.9100 0.4380
vt 0.8900 0.4380
vt 0.9420 0.5220
vt 0.9620 0.5220
vt 0.9620 0.5420
vt 0.9420 0.5420
vt 0.9620 0.7340
vt 0.9420 0.7340
vt 0.9420 0.7140
vt 0.9620 0.7140
vt 0.9620 0.6380
vt 0.9420 0.6380
vt 0.9420 0.6180
vt 0.9620 0.6180
vt 0.6420 0.9420
vt 0.6420 0.9620
vt 0.6220 0.9620
vt 0.6220 0.9420
vt 0.2140 0.9820
vt 0.1940 0.9820
vt 0.1940 0.9620
vt 0.2140 0.9620
vt 0.4940 0.7900
vt 0.4940 0.8300
vt 0.4740 0.8300
vt 0.4740 0.7900
vt 0.9620 0.5540
vt 0.9620 0.5740
vt 0.9420 0.5740
vt 0.9420 0.5540
vt 0.9420 0.4780
vt 0.9420 0.4580
vt 0.9620 0.4580
vt 0.9620 0.4780
vt 0.4740 0.8420
vt 0.4940 0.8420
vt 0.4940 0.8820
vt 0.4740 0.8820
vt 0.0900 0.9500
vt 0.0900 0.9100
vt 0.1100 0.9100
vt 0.1100 0.9500
vt 0.8380 0.9420
vt 0.8380 0.9620
vt 0.8180 0.9620
vt 0.8180 0.9420
vt 0.5780 0.4460
vt 0.6300 0.0260
vt 0.8900 0.9340
vt 0.9100 0.9340
vt 0.9100 0.9540
vt 0.8900 0.9540
vt 0.9620 0.3980
vt 0.9420 0.3980
vt 0.9420 0.3780
vt 0.9620 0.3780
vt 0.9620 0.4900
vt 0.9620 0.5100
vt 0.9420 0.5100
vt 0.9420 0.4900
vt 0.8700 0.9620
vt 0.8500 0.9620
vt 0.8500 0.9420
vt 0.8700 0.9420
vt 0.2140 0.9100
vt 0.2340 0.9100
vt 0.2340 0.9500
vt 0.2140 0.9500
vt 0.4740 0.5820
vt 0.4940 0.5820
vt 0.4940 0.6220
vt 0.4740 0.6220
vt 0.4020 0.9620
vt 0.3820 0.9620
vt 0.3820 0.9420
vt 0.4020 0.9420
vt 0.4740 0.5700
vt 0.4740 0.5300
vt 0.4940 0.5300
vt 0.4940 0.5700
vt 0.9420 0.8100
vt 0.9620 0.8100
vt 0.9620 0.8300
vt 0.9420 0.8300
vt 0.5260 0.8980
vt 0.5260 0.4980
vt 0.1100 0.9620
vt 0.1100 0.9820
vt 0.0900 0.9820
vt 0.0900 0.9620
vt 0.2980 0.9820
vt 0.2780 0.9820
vt 0.2780 0.9620
vt 0.2980 0.9620
vt 0.9420 0.8420
vt 0.9620 0.8420
vt 0.9620 0.8620
vt 0.9420 0.8620
vt 0.6100 0.9300
vt 0.5900 0.9300
vt 0.5900 0.9100
vt 0.6100 0.9100
vt 0.7340 0.9620
vt 0.7340 0.9420
vt 0.7540 0.9420
vt 0.7540 0.9620
vt 0.4940 0.9660
vt 0.4740 0.9660
vt 0.4740 0.9460
vt 0.4940 0.9460
vt 0.0060 0.9100
vt 0.0260 0.9100
vt 0.0260 0.9500
vt 0.0060 0.9500
vt 0.9620 0.5860
vt 0.9620 0.6060
vt 0.9420 0.6060
vt 0.9420 0.5860
vt 0.4940 0.8940
vt 0.4940 0.9340
vt 0.4740 0.9340
vt 0.4740 0.8940
vt 0.0580 0.9820
vt 0.0580 0.9620
vt 0.0780 0.9620
vt 0.0780 0.9820
vt 0.5260 0.9620
vt 0.5460 0.9620
vt 0.5460 0.9820
vt 0.5260 0.9820
vt 0.9740 0.4380
vt 0.9540 0.4380
vt 0.9540 0.4180
vt 0.9740 0.4180
vt 0.9420 0.9540
vt 0.9220 0.9540
vt 0.9220 0.9340
vt 0.9420 0.9340
vt 0.3180 0.9620
vt 0.3180 0.9420
vt 0.3380 0.9420
vt 0.3380 0.9620
vt 0.0260 0.9820
vt 0.0060 0.9820
vt 0.0060 0.9620
vt 0.0260 0.9620
vt 0.1540 0.9620
vt 0.1740 0.9620
vt 0.1740 0.9820
vt 0.1540 0.9820
vt 0.4740 0.6340
vt 0.4940 0.6340
vt 0.4940 0.6740
vt 0.4740 0.6740
vt 0.9620 0.7020
vt 0.9420 0.7020
vt 0.9420 0.6820
vt 0.9620 0.6820
vt 0.5460 0.9100
vt 0.5460 0.9500
vt 0.5260 0.9500
vt 0.5260 0.9100
vt 0.9420 0.9660
vt 0.9420 0.9860
vt 0.9220 0.9860
vt 0.9220 0.9660
vt 0.5900 0.9420
vt 0.6100 0.9420
vt 0.6100 0.9620
vt 0.5900 0.9620
vt 0.3180 0.9940
vt 0.3180 0.9740
vt 0.3380 0.9740
vt 0.3380 0.9940
vt 0.7740 0.4460
vt 0.7340 0.4460
vt 0.5780 0.9300
vt 0.5580 0.9300
vt 0.5580 0.9100
vt 0.5780 0.9100
vt 0.7740 0.0460
vt 0.7020 0.9620
vt 0.6820 0.9620
vt 0.6820 0.9420
vt 0.7020 0.9420
vt 0.4740 0.4780
vt 0.4940 0.4780
vt 0.4940 0.5180
vt 0.4740 0.5180
vt 0.8900 0.9660
vt 0.9100 0.9660
vt 0.9100 0.9860
vt 0.8900 0.9860
vt 0.9620 0.7660
vt 0.9420 0.7660
vt 0.9420 0.7460
vt 0.9620 0.7460
vt 0.9620 0.6700
vt 0.9420 0.6700
vt 0.9420 0.6500
vt 0.9620 0.6500
vt 0.0580 0.9500
vt 0.0580 0.9100
vt 0.0780 0.9100
vt 0.0780 0.9500
vt 0.1420 0.9820
vt 0.1220 0.9820
vt 0.1220 0.9620
vt 0.1420 0.9620
vt 0.3700 0.9620
vt 0.3500 0.9620
vt 0.3500 0.9420
vt 0.3700 0.9420
vt 0.4140 0.9420
vt 0.4340 0.9420
vt 0.4340 0.9620
vt 0.4140 0.9620
vt 0.6300 0.9100
vt 0.6500 0.9100
vt 0.6500 0.9300
vt 0.6300 0.9300
vt 0.9540 0.9340
vt 0.9740 0.9340
vt 0.9740 0.9540
vt 0.9540 0.9540
vt 0.3180 0.4660
vt 0.9740 0.9660
vt 0.9740 0.9860
vt 0.9540 0.9860
vt 0.9540 0.9660
vt 0.3700 0.9740
vt 0.3700 0.9940
vt 0.3500 0.9940
vt 0.3500 0.9740
vt 0.9620 0.8940
vt 0.9420 0.8940
vt 0.9420 0.8740
vt 0.9620 0.8740
vt 0.4020 0.9940
vt 0.3820 0.9940
vt 0.3820 0.9740
vt 0.4020 0.9740
vt 0.8060 0.9620
vt 0.7860 0.9620
vt 0.7860 0.9420
vt 0.8060 0.9420
vt 0.9620 0.7980
vt 0.9420 0.7980
vt 0.9420 0.7780
vt 0.9620 0.7780
vt 0.9740 0.4780
vt 0.9740 0.4580
vt 0.9940 0.4580
vt 0.9940 0.4780
vt 0.2660 0.9820
vt 0.2460 0.9820
vt 0.2460 0.9620
vt 0.2660 0.9620
vt 0.5780 0.9620
vt 0.5580 0.9620
vt 0.5580 0.9420
vt 0.5780 0.9420
vt 0.9940 0.3980
vt 0.9740 0.3980
vt 0.9740 0.3780
vt 0.9940 0.3780
vt 0.9220 0.4380
vt 0.9220 0.4180
vt 0.9420 0.4180
vt 0.9420 0.4380
vt 0.4740 0.7780
vt 0.4740 0.7380
vt 0.4940 0.7380
vt 0.4940 0.7780
vt 0.4940 0.7260
vt 0.4740 0.7260
vt 0.4740 0.6860
vt 0.4940 0.6860
vn 0.0000 -1.0000 0.0000
vn -1.0000 0.0000 0.0000
vn 0.0000 0.0000 -1.0000
vn 0.0000 -0.0000 1.0000
vn 1.0000 -0.0000 -0.0000
vn -0.0000 1.0000 0.0000
usemtl palette
s off
f 4/1/1 2/2/1 1/3/1
f 2/2/1 3/4/1 1/3/1
f 8/5/1 6/6/1 5/7/1
f 10/8/2 11/9/2 3/10/2
f 15/11/3 16/12/3 8/13/3
f 19/14/1 20/15/1 18/16/1
f 26/17/4 20/18/4 19/19/4
f 3/10/2 9/20/2 1/21/2
f 9/22/3 4/23/3 1/24/3
f 6/25/5 8/26/5 16/27/5
f 32/28/1 29/29/1 28/30/1
f 29/29/1 30/31/1 28/30/1
f 33/32/2 14/33/2 7/34/2
f 34/35/4 33/36/4 6/37/4
f 31/38/2 35/39/2 28/40/2
f 35/41/3 32/42/3 28/43/3
f 38/44/5 29/45/5 40/46/5
f 42/47/1 43/48/1 41/49/1
f 44/50/4 23/51/4 22/52/4
f 43/53/2 46/54/2 41/55/2
f 46/56/3 120/57/3 41/58/3
f 50/59/4 10/60/4 2/61/4
f 13/62/5 4/63/5 52/64/5
f 53/65/3 15/11/3 5/66/3
f 50/67/5 56/68/5 59/69/5
f 50/59/4 57/70/4 10/60/4
f 51/71/5 13/62/5 61/72/5
f 57/73/2 58/74/2 11/9/2
f 60/75/4 57/70/4 50/59/4
f 17/76/5 16/27/5 67/77/5
f 65/78/3 67/79/3 15/11/3
f 25/80/2 69/81/2 18/82/2
f 27/83/2 71/84/2 21/85/2
f 70/86/2 73/87/2 25/80/2
f 84/88/4 34/35/4 6/37/4
f 85/89/4 36/90/4 29/91/4
f 36/92/2 87/93/2 31/38/2
f 89/94/3 39/95/3 37/96/3
f 38/44/5 40/46/5 93/97/5
f 95/98/4 45/99/4 44/50/4
f 19/100/5 102/101/5 104/102/5
f 108/103/1 106/104/1 105/105/1
f 106/104/1 107/106/1 105/105/1
f 112/107/1 110/108/1 109/109/1
f 107/110/2 113/111/2 105/112/2
f 113/113/3 108/114/3 105/115/3
f 117/116/2 118/117/2 109/118/2
f 118/119/3 116/120/3 109/121/3
f 127/122/1 124/123/1 123/124/1
f 124/123/1 125/125/1 123/124/1
f 129/126/4 128/127/4 110/128/4
f 128/129/2 117/116/2 111/130/2
f 130/131/2 131/132/2 125/133/2
f 132/134/4 130/135/4 124/136/4
f 133/137/5 124/138/5 134/139/5
f 135/140/4 26/17/4 19/19/4
f 135/141/5 19/100/5 136/142/5
f 75/143/3 104/144/3 24/145/3
f 135/141/5 136/142/5 139/146/5
f 145/147/4 142/148/4 106/149/4
f 119/150/5 112/151/5 146/152/5
f 150/153/3 143/154/3 115/155/3
f 158/156/3 119/157/3 157/158/3
f 156/159/3 146/160/3 116/120/3
f 122/161/5 42/162/5 161/163/5
f 100/164/3 160/165/3 94/166/3
f 162/167/4 101/168/4 161/169/4
f 163/170/4 129/126/4 110/128/4
f 131/132/2 164/171/2 123/172/2
f 164/173/3 126/174/3 123/175/3
f 167/176/4 130/135/4 132/134/4
f 134/139/5 127/177/5 168/178/5
f 129/179/2 158/180/2 157/181/2
f 128/129/2 155/182/2 117/116/2
f 163/183/5 119/150/5 159/184/5
f 164/173/3 172/185/3 126/174/3
f 102/186/1 19/14/1 18/16/1
f 103/187/1 22/188/1 21/189/1
f 120/190/1 42/47/1 41/49/1
f 6/6/1 7/191/1 5/7/1
f 22/188/1 23/192/1 21/189/1
f 110/108/1 111/193/1 109/109/1
f 3/10/2 11/9/2 9/20/2
f 9/22/3 12/194/3 4/23/3
f 13/62/5 2/195/5 4/63/5
f 7/34/2 14/33/2 5/196/2
f 5/66/3 15/11/3 8/13/3
f 17/76/5 6/25/5 16/27/5
f 18/197/3 24/145/3 102/198/3
f 20/199/2 25/80/2 18/82/2
f 23/200/2 27/83/2 21/85/2
f 2/61/4 10/60/4 3/201/4
f 30/202/2 31/38/2 28/40/2
f 30/202/2 36/92/2 31/38/2
f 29/91/4 36/90/4 30/203/4
f 27/83/2 23/200/2 45/204/2
f 37/96/3 39/95/3 32/42/3
f 35/41/3 37/96/3 32/42/3
f 44/50/4 45/99/4 23/51/4
f 43/53/2 47/205/2 46/54/2
f 43/53/2 48/206/2 47/205/2
f 6/37/4 33/36/4 7/207/4
f 51/71/5 2/195/5 13/62/5
f 51/208/4 50/59/4 2/61/4
f 12/194/3 52/209/3 4/23/3
f 9/22/3 55/210/3 12/194/3
f 10/8/2 57/73/2 11/9/2
f 60/211/5 50/67/5 59/69/5
f 14/33/2 62/212/2 53/213/2
f 15/11/3 67/79/3 16/12/3
f 68/214/5 17/76/5 67/77/5
f 20/199/2 70/86/2 25/80/2
f 26/17/4 70/215/4 20/18/4
f 27/83/2 81/216/2 71/84/2
f 71/217/3 82/218/3 72/219/3
f 84/220/5 6/25/5 17/76/5
f 38/221/4 85/89/4 29/91/4
f 84/88/4 86/222/4 34/35/4
f 38/221/4 92/223/4 85/89/4
f 46/56/3 94/166/3 120/57/3
f 47/205/2 97/224/2 46/54/2
f 112/225/3 109/121/3 116/120/3
f 49/226/4 48/227/4 43/228/4 42/229/4
f 24/145/3 104/144/3 102/198/3
f 113/113/3 115/155/3 108/114/3
f 107/110/2 114/230/2 113/111/2
f 111/130/2 117/116/2 109/118/2
f 121/231/5 22/232/5 103/233/5
f 121/234/4 44/50/4 22/52/4
f 122/235/4 49/226/4 42/229/4
f 123/175/3 126/174/3 127/236/3
f 124/136/4 130/135/4 125/237/4
f 125/133/2 131/132/2 123/172/2
f 134/139/5 124/138/5 127/177/5
f 133/238/4 132/134/4 124/136/4
f 110/128/4 128/127/4 111/239/4
f 136/142/5 19/100/5 104/102/5
f 103/240/3 72/219/3 137/241/3
f 135/140/4 78/242/4 26/17/4
f 140/243/5 138/244/5 137/245/5
f 107/246/4 142/148/4 141/247/4
f 107/110/2 141/248/2 114/230/2
f 106/149/4 142/148/4 107/246/4
f 115/155/3 143/154/3 108/114/3
f 116/120/3 146/160/3 112/225/3
f 113/111/2 114/230/2 147/249/2
f 153/250/5 144/251/5 143/252/5
f 145/147/4 152/253/4 142/148/4
f 138/244/5 121/231/5 103/233/5
f 158/156/3 159/254/3 119/157/3
f 94/166/3 160/165/3 120/57/3
f 161/169/4 101/168/4 98/255/4
f 122/235/4 99/256/4 49/226/4
f 162/257/5 161/163/5 160/258/5
f 163/183/5 110/259/5 119/150/5
f 126/174/3 168/260/3 127/236/3
f 169/261/5 134/139/5 168/178/5
f 129/179/2 170/262/2 158/180/2
f 163/170/4 170/263/4 129/126/4
f 164/171/2 131/132/2 171/264/2
f 56/265/6 55/266/6 9/267/6 11/268/6
f 53/213/2 5/196/2 14/33/2
f 54/269/5 12/270/5 55/271/5 56/272/5
f 59/273/6 58/274/6 57/275/6 60/276/6
f 52/277/6 12/278/6 54/279/6 13/280/6
f 61/281/3 13/282/3 54/283/3 56/284/3
f 61/285/6 56/286/6 50/287/6 51/288/6
f 59/289/3 56/290/3 11/291/3 58/292/3
f 15/293/6 53/294/6 62/295/6 64/296/6
f 62/297/4 14/298/4 63/299/4 64/300/4
f 66/301/2 65/302/2 15/303/2 64/304/2
f 66/305/4 64/306/4 17/307/4 68/308/4
f 67/309/6 65/310/6 66/311/6 68/312/6
f 72/219/3 103/240/3 21/313/3 71/217/3
f 24/145/3 18/197/3 69/314/3
f 76/315/2 75/316/2 24/317/2 74/318/2
f 24/319/6 69/320/6 25/321/6 74/322/6
f 76/323/3 74/324/3 25/325/3 73/326/3
f 76/327/6 73/328/6 70/329/6 26/330/6
f 78/331/2 77/332/2 76/333/2 26/334/2
f 80/335/5 72/336/5 82/337/5 83/338/5
f 82/339/6 71/340/6 81/341/6 83/342/6
f 81/343/4 27/344/4 80/345/4 83/346/4
f 86/347/2 64/348/2 63/349/2 34/350/2
f 40/46/5 29/45/5 32/351/5 39/352/5
f 63/353/6 14/354/6 33/355/6 34/356/6
f 17/357/6 64/358/6 86/359/6 84/360/6
f 90/361/2 89/362/2 37/363/2 88/364/2
f 37/365/6 35/366/6 31/367/6 88/368/6
f 90/369/3 88/370/3 31/371/3 87/372/3
f 90/373/6 87/374/6 36/375/6 85/376/6
f 92/377/2 91/378/2 90/379/2 85/380/2
f 39/381/6 89/382/6 90/383/6 40/384/6
f 93/385/3 40/386/3 90/387/3 91/388/3
f 93/389/6 91/390/6 92/391/6 38/392/6
f 44/393/5 79/394/5 80/395/5 95/396/5
f 80/397/6 27/398/6 45/399/6 95/400/6
f 94/401/6 46/402/6 97/403/6 98/404/6
f 97/405/4 47/406/4 96/407/4 98/408/4
f 96/409/6 47/410/6 48/411/6 49/412/6
f 99/413/2 98/414/2 96/415/2 49/416/2
f 101/417/2 100/418/2 94/419/2 98/420/2
f 104/421/6 75/422/6 76/423/6 136/424/6
f 112/151/5 119/150/5 110/259/5
f 103/233/5 137/245/5 138/244/5
f 139/425/3 136/426/3 76/427/3 77/428/3
f 139/429/6 77/430/6 78/431/6 135/432/6
f 137/433/6 72/434/6 80/435/6 140/436/6
f 80/437/4 79/438/4 138/439/4 140/440/4
f 144/251/5 106/441/5 108/442/5 143/252/5
f 115/443/6 113/444/6 147/445/6 149/446/6
f 144/251/5 145/447/5 106/441/5
f 149/448/4 147/449/4 114/450/4 148/451/4
f 151/452/2 150/453/2 115/454/2 149/455/2
f 152/456/2 149/457/2 148/458/2 142/459/2
f 148/460/6 114/461/6 141/462/6 142/463/6
f 143/464/6 150/465/6 151/466/6 153/467/6
f 151/468/4 149/469/4 144/470/4 153/471/4
f 144/472/6 149/473/6 152/474/6 145/475/6
f 116/476/6 118/477/6 117/478/6 154/479/6
f 157/480/2 156/481/2 116/482/2 154/483/2
f 157/484/3 154/485/3 117/486/3 155/487/3
f 146/488/6 156/489/6 157/490/6 119/491/6
f 161/163/5 42/162/5 120/492/5 160/258/5
f 138/493/6 79/494/6 44/495/6 121/496/6
f 161/497/6 98/498/6 99/499/6 122/500/6
f 160/501/6 100/502/6 101/503/6 162/504/6
f 132/505/5 165/506/5 166/507/5 167/508/5
f 166/509/6 131/510/6 130/511/6 167/512/6
f 168/513/6 126/514/6 166/515/6 169/516/6
f 166/517/4 165/518/4 134/519/4 169/520/4
f 134/521/6 165/522/6 132/523/6 133/524/6
f 157/525/6 155/526/6 128/527/6 129/528/6
f 159/529/6 158/530/6 170/531/6 163/532/6
f 172/533/6 164/534/6 171/535/6 173/536/6
f 173/537/5 166/538/5 126/539/5 172/540/5
f 173/541/4 171/542/4 131/543/4 166/544/4
